<svg width="37" height="37" viewBox="0 0 37 37" fill="none" xmlns="http://www.w3.org/2000/svg">
<g clip-path="url(#clip0)">
<path d="M25.4359 0C23.4633 0.136437 21.1578 1.39905 19.8143 3.04323C18.5886 4.53479 17.5804 6.75015 17.9735 8.90307C20.1287 8.97013 22.3557 7.67745 23.646 6.00553C24.8532 4.44922 25.7666 2.24774 25.4359 0Z" fill="white"/>
<path d="M33.2314 12.4134C31.3375 10.0385 28.6758 8.66026 26.1622 8.66026C22.8438 8.66026 21.4401 10.2489 19.1345 10.2489C16.7573 10.2489 14.9512 8.66489 12.0814 8.66489C9.26252 8.66489 6.26092 10.3877 4.35774 13.3338C1.68219 17.4824 2.14007 25.2824 6.47598 31.9262C8.02766 34.3035 10.0996 36.9767 12.8099 36.9998C15.2218 37.0229 15.9017 35.4528 19.1692 35.4366C22.4368 35.4181 23.0565 37.0206 25.4638 36.9952C28.1764 36.9744 30.3616 34.0121 31.9133 31.6348C33.0256 29.9305 33.4396 29.0726 34.3021 27.1486C28.0284 24.7598 27.0224 15.8382 33.2314 12.4134Z" fill="white"/>
</g>
<defs>
<clipPath id="clip0">
<rect width="37" height="37" fill="white"/>
</clipPath>
</defs>
</svg>
