<svg width="39" height="39" viewBox="0 0 39 39" fill="none" xmlns="http://www.w3.org/2000/svg">
<path d="M26.5625 38.4375H1.5625C0.699531 38.4375 0 37.738 0 36.875V1.5625C0 0.699531 0.699531 0 1.5625 0H26.5625C27.4255 0 28.125 0.699531 28.125 1.5625V36.875C28.125 37.738 27.4255 38.4375 26.5625 38.4375Z" fill="#6E83B7"/>
<path d="M24.375 10.9375C22.9965 10.9375 21.875 12.059 21.875 13.4375V36.875C21.875 37.4659 22.0815 38.0091 22.4255 38.4375H26.5625C27.4255 38.4375 28.125 37.738 28.125 36.875V10.9375H24.375Z" fill="#466089"/>
<path d="M27.3438 2.34375V33.5938H0.78125V2.34375H27.3438Z" fill="#80D6FB"/>
<path d="M27.3438 33.5938V10.9375H24.375C22.9965 10.9375 21.875 12.059 21.875 13.4375V33.5938H27.3438Z" fill="#46BEE8"/>
<path d="M15.625 36.7969H12.5C12.0685 36.7969 11.7188 36.4471 11.7188 36.0156C11.7188 35.5841 12.0685 35.2344 12.5 35.2344H15.625C16.0565 35.2344 16.4062 35.5841 16.4062 36.0156C16.4062 36.4471 16.0565 36.7969 15.625 36.7969Z" fill="#466089"/>
<path d="M19.375 35.625H22.5V36.4062H19.375V35.625Z" fill="#EDEFF1"/>
<path d="M21.875 35.625H22.5V36.4062H21.875V35.625Z" fill="#D3D3D3"/>
<path d="M8.75 36.4062H5.625V35.625H8.75V36.4062Z" fill="#EDEFF1"/>
<path d="M14.0625 1.95312C14.494 1.95312 14.8438 1.60335 14.8438 1.17188C14.8438 0.740403 14.494 0.390625 14.0625 0.390625C13.631 0.390625 13.2812 0.740403 13.2812 1.17188C13.2812 1.60335 13.631 1.95312 14.0625 1.95312Z" fill="#466089"/>
<path d="M14.0625 1.71875C14.3645 1.71875 14.6094 1.47391 14.6094 1.17188C14.6094 0.869844 14.3645 0.625 14.0625 0.625C13.7605 0.625 13.5156 0.869844 13.5156 1.17188C13.5156 1.47391 13.7605 1.71875 14.0625 1.71875Z" fill="#80D6FB"/>
<path d="M36.875 38.4375H24.375C23.512 38.4375 22.8125 37.738 22.8125 36.875V13.4375C22.8125 12.5745 23.512 11.875 24.375 11.875H36.875C37.738 11.875 38.4375 12.5745 38.4375 13.4375V36.875C38.4375 37.738 37.738 38.4375 36.875 38.4375Z" fill="#6E83B7"/>
<path d="M37.6562 14.2188V36.0938H23.5938V14.2188H37.6562Z" fill="#80D6FB"/>
<path d="M27.5 14.2188L27.9688 15.4688H33.2812L33.75 14.2188H27.5Z" fill="#6E83B7"/>
<path d="M29.0625 14.2188C29.4077 14.2188 29.6875 13.9389 29.6875 13.5938C29.6875 13.2486 29.4077 12.9688 29.0625 12.9688C28.7173 12.9688 28.4375 13.2486 28.4375 13.5938C28.4375 13.9389 28.7173 14.2188 29.0625 14.2188Z" fill="#466089"/>
<path d="M32.1875 14.2188C32.5327 14.2188 32.8125 13.9389 32.8125 13.5938C32.8125 13.2486 32.5327 12.9688 32.1875 12.9688C31.8423 12.9688 31.5625 13.2486 31.5625 13.5938C31.5625 13.9389 31.8423 14.2188 32.1875 14.2188Z" fill="#80D6FB"/>
</svg>
