<svg width="40" height="40" viewBox="0 0 40 40" fill="none" xmlns="http://www.w3.org/2000/svg">
<g clip-path="url(#clip0)">
<path d="M38.0451 20.079C38.0372 20.0868 38.0704 20.079 37.9458 20.079C36.6325 20.079 35.7247 21.2969 36.1824 22.4317C35.962 22.664 36.9132 21.7132 20.8269 37.7153C20.3688 38.1703 19.6319 38.1712 19.1729 37.7153C3.09162 21.7173 4.04015 22.6664 3.81753 22.4317C4.2934 21.2518 3.2986 20.0159 1.95643 20.0814C1.95565 20.0805 1.95565 20.0798 1.95487 20.0791C0.623641 17.999 -0.0445903 15.7424 0.0023086 13.4264C0.184042 4.33618 11.2766 -2.36638 20 5.2636C28.7184 -2.36216 39.8159 4.33141 39.9977 13.4264C40.0446 15.7424 39.3763 17.999 38.0451 20.079Z" fill="#FF405C"/>
<path d="M38.0451 20.0791C38.0373 20.087 38.0705 20.0791 37.9459 20.0791C36.6326 20.0791 35.7247 21.297 36.1825 22.4319C35.9621 22.6642 36.9132 21.7134 20.827 37.7155C20.598 37.9429 20.2994 38.057 20 38.057V5.26377C25.4304 0.514005 32.2059 1.12064 36.5217 5.43495C40.3594 9.27261 41.2439 15.081 38.0451 20.0791Z" fill="#C30047"/>
<path d="M38.0453 20.0791C37.527 20.8896 36.908 21.6736 36.1904 22.424H27.504C27.0726 22.424 26.6763 22.1872 26.4715 21.8073L23.194 15.7198L18.5589 25.5053C18.1664 26.3337 17.0063 26.4147 16.5102 25.6327L13.1514 20.355L12.251 21.8549C12.0391 22.2083 11.6577 22.4239 11.2458 22.4239H3.80993C3.09238 21.6736 2.47331 20.8896 1.95508 20.079H10.5821L12.1165 17.5214C12.5602 16.7803 13.6391 16.7538 14.1105 17.4956L17.3481 22.5826L22.0669 12.6205C22.48 11.7518 23.7034 11.7223 24.1594 12.5666L28.2044 20.079H38.0453V20.0791Z" fill="#E1F3FF"/>
<path d="M24.1592 12.5667C23.704 11.7241 22.4805 11.7505 22.0667 12.6206L20 16.9836V22.4624L23.1938 15.7199L26.4713 21.8073C26.6761 22.1871 27.0724 22.424 27.5038 22.424H36.1903C36.9078 21.6737 37.5269 20.8897 38.0451 20.0791H28.2042L24.1592 12.5667Z" fill="#B1D5F1"/>
</g>
<defs>
<clipPath id="clip0">
<rect width="40" height="40" fill="white"/>
</clipPath>
</defs>
</svg>
