<svg width="40" height="40" viewBox="0 0 40 40" fill="none" xmlns="http://www.w3.org/2000/svg">
<g clip-path="url(#clip0)">
<path d="M4.23527 19.5078C4.23527 19.5078 5.81559 21.8295 9.12777 23.7946C9.12777 23.7946 6.72895 3.52102 22.3589 0C18.3544 14.697 27.4526 18.8417 30.7691 11.077C36.3076 18.4716 32.1024 24.923 32.1024 24.923C34.3734 25.2502 36.2811 22.7691 36.2811 22.7691C36.2981 23.0748 36.3076 23.3825 36.3076 23.6924C36.3077 32.6988 29.0065 40 20 40C10.9936 40 3.69238 32.6988 3.69238 23.6923C3.69238 22.2456 3.88176 20.8433 4.23527 19.5078Z" fill="#FF6536"/>
<path d="M36.2811 22.7691C36.2811 22.7691 34.3734 25.2502 32.1024 24.923C32.1024 24.923 36.3077 18.4716 30.7691 11.077C27.4527 18.8417 18.3545 14.697 22.3589 0C21.5218 0.188594 20.7368 0.425547 20 0.704531V40C29.0065 40 36.3077 32.6988 36.3077 23.6923C36.3077 23.3824 36.2981 23.0748 36.2811 22.7691Z" fill="#FF421D"/>
<path d="M12.8477 32.8483C12.8477 36.7982 16.0497 40.0002 19.9995 40.0002C23.9494 40.0002 27.1514 36.7982 27.1514 32.8483C27.1514 30.7342 26.2341 28.8343 24.7758 27.525C22.0106 31.2817 18.0702 25.5832 21.1411 21.4218C21.1411 21.4218 12.8477 22.461 12.8477 32.8483Z" fill="#FBBF00"/>
<path d="M27.1519 32.8483C27.1519 30.7342 26.2346 28.8343 24.7762 27.525C22.0111 31.2817 18.0706 25.5832 21.1416 21.4218C21.1416 21.4218 20.6909 21.4784 20 21.6964V40.0002C23.9498 40.0002 27.1519 36.7982 27.1519 32.8483Z" fill="#FFA900"/>
</g>
<defs>
<clipPath id="clip0">
<rect width="40" height="40" fill="white"/>
</clipPath>
</defs>
</svg>
