<svg width="40" height="40" viewBox="0 0 40 40" fill="none" xmlns="http://www.w3.org/2000/svg">
<path d="M33.1263 19.2825C33.3723 19.4718 33.5166 19.7647 33.5166 20.0752V35.7302C33.5166 36.2824 33.0688 36.7302 32.5166 36.7302H23.9284C23.3762 36.7302 22.9284 36.2824 22.9284 35.7302V27.3359C22.9284 26.7837 22.4807 26.3359 21.9284 26.3359H18.0551C17.5028 26.3359 17.0551 26.7837 17.0551 27.3359V35.7302C17.0551 36.2824 16.6074 36.7302 16.0551 36.7302H7C6.44771 36.7302 6 36.2824 6 35.7302V20.0752C6 19.7647 6.14421 19.4718 6.39031 19.2825L19.1486 9.46897C19.508 9.19249 20.0085 9.19249 20.368 9.46897L33.1263 19.2825Z" fill="#313655"/>
<path d="M34.725 14.328C34.479 14.1387 34.3348 13.8459 34.3348 13.5354V7.77555C34.3348 7.22326 33.8871 6.77555 33.3348 6.77555H29.4625C28.9533 6.77555 28.5405 7.18836 28.5405 7.69759C28.5405 8.4626 27.6626 8.89486 27.0562 8.42839L20.6097 3.46908C20.2503 3.19254 19.7497 3.19254 19.3903 3.46908L0.792623 17.7762C0.354873 18.113 0.273015 18.7409 0.60979 19.1786L3.58034 23.0397C3.9171 23.4774 4.54492 23.5593 4.98265 23.2226L19.3903 12.1393C19.7497 11.8628 20.2503 11.8628 20.6097 12.1393L35.0174 23.2225C35.4551 23.5592 36.0829 23.4774 36.4197 23.0397L39.3902 19.1786C39.727 18.7409 39.6451 18.113 39.2074 17.7762L34.725 14.328Z" fill="#563719"/>
</svg>
