<svg width="40" height="40" viewBox="0 0 40 40" fill="none" xmlns="http://www.w3.org/2000/svg">
<path d="M25.5501 25.4773L24.5222 25.2708C23.7929 25.1242 23.2682 24.4835 23.2682 23.7396V20.2566H16.545V23.777C16.545 24.5209 16.0203 25.1615 15.2909 25.3082L14.4492 25.4774V31.1308H25.55V25.4773H25.5501Z" fill="#FFDFB8"/>
<path d="M29.2356 16.4247H27.7607V12.1475H29.2356C29.9956 12.1475 30.6117 12.7636 30.6117 13.5236V15.0486C30.6117 15.8086 29.9956 16.4247 29.2356 16.4247Z" fill="#F4C892"/>
<path d="M10.7648 16.4247H12.2396V12.1475H10.7648C10.0048 12.1475 9.38867 12.7636 9.38867 13.5236V15.0486C9.38859 15.8086 10.0047 16.4247 10.7648 16.4247Z" fill="#F4C892"/>
<path d="M19.9998 23.1833C15.244 23.1833 11.3887 19.328 11.3887 14.5722V12.1522C11.3887 7.39635 15.244 3.54102 19.9998 3.54102C24.7556 3.54102 28.611 7.39635 28.611 12.1522V14.5722C28.611 19.328 24.7556 23.1833 19.9998 23.1833Z" fill="#FFDFB8"/>
<path d="M20.0002 3.54114C19.279 3.54114 18.5786 3.63036 17.9092 3.79731C21.6544 4.73169 24.4293 8.11765 24.4293 12.1522V14.5722C24.4293 18.6068 21.6544 21.9928 17.9092 22.9271C18.5787 23.0941 19.279 23.1833 20.0002 23.1833C24.756 23.1833 28.6114 19.3279 28.6114 14.5721V12.1521C28.6114 7.39639 24.756 3.54114 20.0002 3.54114Z" fill="#F4CFA6"/>
<path d="M31.9011 27.2062L24.6236 24.9371C22.0902 27.5395 17.9092 27.5395 15.3758 24.9371L8.09835 27.2062C5.0263 28.1107 2.91699 30.9306 2.91699 34.1331V38.7492C2.91699 39.1168 3.21488 39.4146 3.58239 39.4146H36.417C36.7845 39.4146 37.0824 39.1168 37.0824 38.7492V34.1331C37.0824 30.9306 34.9731 28.1107 31.9011 27.2062Z" fill="#4D4D4D"/>
<path d="M31.9014 27.2062L24.6239 24.9371C24.2691 25.3016 23.8811 25.6132 23.4707 25.8755L27.7385 27.2062C30.8106 28.1107 32.9199 30.9306 32.9199 34.1331V39.4146H36.4173C36.7848 39.4146 37.0827 39.1168 37.0827 38.7492V34.1331C37.0827 30.9306 34.9734 28.1107 31.9014 27.2062Z" fill="#353535"/>
<path d="M20.0001 0.585693C14.5478 0.585693 10.1279 5.00564 10.1279 10.4579V10.9784H29.8723V10.4579C29.8722 5.00564 25.4524 0.585693 20.0001 0.585693Z" fill="#4D4D4D"/>
<path d="M19.9996 0.585693C19.2924 0.585693 18.6027 0.660694 17.9375 0.802023C22.3998 1.75039 25.7475 5.71291 25.7475 10.4579V10.9784H29.8718V10.4579C29.8718 5.00564 25.4519 0.585693 19.9996 0.585693Z" fill="#353535"/>
<path d="M30.0003 12.1427C23.3346 11.5437 16.6655 11.5437 9.99986 12.1427C9.38103 12.1983 8.83228 11.7469 8.76751 11.1289C8.76673 11.1212 8.76595 11.1137 8.76509 11.106C8.69884 10.4744 9.16267 9.91054 9.79517 9.85366C16.5966 9.24202 23.4035 9.24194 30.205 9.85366C30.8375 9.91054 31.3013 10.4744 31.2351 11.106C31.2343 11.1137 31.2335 11.1212 31.2326 11.1289C31.1679 11.747 30.6191 12.1983 30.0003 12.1427Z" fill="#434443"/>
<path d="M30.0789 22.7517C29.1704 21.5634 28.0113 20.5634 26.8264 19.8203C25.9072 21.0142 24.682 21.9601 23.268 22.5407V23.7392C23.268 24.4832 23.7927 25.1238 24.522 25.2704L24.7058 25.3074L24.6913 25.3109C24.6971 25.3104 24.701 25.3099 24.701 25.3099C24.2242 25.4078 22.0732 26.5661 19.9995 26.5676C17.9257 26.5661 15.7746 25.4078 15.2979 25.3099C15.2979 25.3099 16.479 25.1222 16.5429 23.8214C16.5433 23.8064 16.5448 23.7917 16.5448 23.7767V22.4617C15.4601 21.986 14.4923 21.2934 13.6962 20.4384C13.6958 20.4379 13.6954 20.4374 13.695 20.437C13.5115 20.2398 13.3372 20.0341 13.1725 19.8204C11.9877 20.5634 10.8285 21.5635 9.92003 22.7518C9.32784 23.5264 9.29557 24.6493 9.73026 25.47C10.9043 27.6862 19.9525 29.6963 19.9995 29.6962C20.0466 29.6964 29.0948 27.6862 30.2687 25.47C30.7034 24.6493 30.6711 23.5263 30.0789 22.7517Z" fill="#434443"/>
<path d="M30.0796 22.7516C29.1711 21.5633 28.012 20.5632 26.8271 19.8202C26.2649 20.5504 25.5878 21.1872 24.8235 21.705C25.1459 22.0345 25.451 22.384 25.7321 22.7516C26.3243 23.5262 26.3566 24.6491 25.9219 25.4698C24.7481 27.686 20.0598 29.6728 20.0154 29.6882C20.0085 29.6907 20.0011 29.6927 19.9941 29.695C19.9967 29.6955 19.9997 29.696 20.0002 29.696C20.0472 29.6963 29.0954 27.686 30.2693 25.4698C30.704 24.6491 30.6718 23.5262 30.0796 22.7516Z" fill="#353535"/>
<path d="M17.7301 15.8716H15.023C14.2947 15.8716 13.7041 15.2811 13.7041 14.5527V13.4491C13.7041 13.3302 13.8005 13.2338 13.9194 13.2338H17.7301C18.4584 13.2338 19.049 13.8242 19.049 14.5527C19.0489 15.2811 18.4584 15.8716 17.7301 15.8716Z" fill="#434443"/>
<path d="M17.7304 13.2339H14.9131V15.8661C14.9496 15.8691 14.9861 15.8716 15.0234 15.8716H17.7304C18.4588 15.8716 19.0494 15.2812 19.0494 14.5527C19.0493 13.8244 18.4588 13.2339 17.7304 13.2339Z" fill="#353535"/>
<path d="M24.9 15.8716H22.1929C21.4646 15.8716 20.874 15.2811 20.874 14.5527C20.874 13.8243 21.4645 13.2338 22.1929 13.2338H26.0036C26.1225 13.2338 26.2188 13.3302 26.2188 13.4491V14.5527C26.2188 15.2811 25.6283 15.8716 24.9 15.8716Z" fill="#434443"/>
<path d="M26.0033 13.2339H22.1926C22.1484 13.2339 22.1046 13.2362 22.0615 13.2405V15.8651C22.1046 15.8694 22.1483 15.8717 22.1926 15.8717H24.8997C25.628 15.8717 26.2186 15.2812 26.2186 14.5528V13.4492C26.2185 13.3302 26.1222 13.2339 26.0033 13.2339Z" fill="#353535"/>
<path d="M36.1127 29.457C35.0962 28.098 33.6986 27.1259 32.071 26.6456L30.5005 26.1559C30.618 26.0189 30.7134 25.8818 30.7863 25.7443C31.3448 24.6898 31.2453 23.313 30.5443 22.3961C29.7636 21.375 28.7721 20.4396 27.6539 19.665C28.1911 18.8601 28.6048 17.9662 28.8679 17.0103H29.2353C30.3171 17.0103 31.1972 16.1303 31.1972 15.0484V13.5235C31.1972 13.1574 31.0961 12.8147 30.9208 12.5211C31.4026 12.258 31.7537 11.772 31.8147 11.1902L31.8172 11.1673C31.8657 10.7046 31.7296 10.2519 31.434 9.8924C31.1674 9.56826 30.8008 9.35818 30.3915 9.2892C30.2393 7.91122 29.8212 6.59894 29.1444 5.38191C28.9872 5.09917 28.6306 4.99737 28.3478 5.15464C28.0651 5.31183 27.9634 5.66847 28.1206 5.95121C28.6821 6.96106 29.0436 8.04481 29.1987 9.18122C28.8308 9.15162 28.4627 9.12427 28.0943 9.09826C28.0757 9.09693 28.0572 9.09552 28.0386 9.09419C27.696 9.07013 27.3532 9.04802 27.0102 9.02701C26.9548 9.02365 26.8995 9.02005 26.8441 9.01677C26.5163 8.99724 26.1884 8.97919 25.8603 8.96247C25.7934 8.95904 25.7264 8.95568 25.6595 8.9524C25.334 8.93638 25.0085 8.92161 24.6828 8.90833C24.6195 8.90576 24.5561 8.90341 24.4928 8.90091C24.1591 8.88786 23.8252 8.87591 23.4913 8.86576C23.4498 8.8645 23.4081 8.86349 23.3666 8.86224C21.123 8.79654 18.8763 8.79654 16.6327 8.86224C16.5913 8.86341 16.5499 8.86443 16.5085 8.86568C16.1743 8.87583 15.8401 8.88779 15.5061 8.90083C15.4432 8.90325 15.3804 8.90568 15.3175 8.90818C14.9911 8.92146 14.665 8.93622 14.3389 8.95232C14.2729 8.9556 14.207 8.95888 14.141 8.96224C13.8117 8.97904 13.4825 8.99708 13.1535 9.01677C13.1001 9.01997 13.0467 9.02341 12.9934 9.02662C12.6481 9.04771 12.303 9.06997 11.9581 9.09427C11.9435 9.09529 11.9289 9.09646 11.9144 9.09748C11.5431 9.12372 11.1719 9.15123 10.801 9.18115C11.4262 4.63807 15.3419 1.17149 19.9995 1.17149C22.4868 1.17149 24.8232 2.14204 26.5785 3.90448C26.8067 4.1337 27.1776 4.13432 27.4068 3.90612C27.636 3.67783 27.6368 3.30697 27.4085 3.07775C25.4318 1.09305 22.8006 0 19.9995 0C14.6631 0 10.1916 4.04127 9.60727 9.2892C9.19813 9.35818 8.83172 9.56826 8.56515 9.89232C8.26961 10.2517 8.13351 10.7045 8.18203 11.1673L8.18445 11.1901C8.24546 11.7719 8.5957 12.2594 9.0775 12.5226C8.90281 12.8159 8.80211 13.158 8.80211 13.5234V15.0484C8.80211 16.1302 9.68219 17.0103 10.764 17.0103H11.1314C11.3945 17.966 11.8081 18.86 12.3454 19.665C11.2272 20.4396 10.2357 21.3749 9.455 22.3961C8.75398 23.3129 8.65445 24.6898 9.21297 25.7442C9.28578 25.8817 9.38117 26.0189 9.49875 26.1559L7.92843 26.6455C5.33654 27.4102 3.29348 29.506 2.59567 32.1161C2.51215 32.4286 2.6977 32.7497 3.01028 32.8332C3.32278 32.9168 3.64387 32.7312 3.72739 32.4186C4.32075 30.1991 6.05905 28.417 8.26375 27.7679C8.26671 27.767 8.26968 27.7661 8.27265 27.7652L10.5804 27.0456C10.6348 27.0798 10.6908 27.1138 10.7476 27.1477C10.7542 27.1517 10.7613 27.1558 10.768 27.1598C10.8024 27.1802 10.8369 27.2005 10.8721 27.2209C11.8673 27.7988 13.2728 28.3792 15.1077 28.9716C15.2555 29.0193 15.4039 29.0663 15.5523 29.1125C16.6336 29.4509 17.6626 29.7307 18.4583 29.9317C19.3156 30.1502 19.9178 30.2819 19.9965 30.2818C19.9966 30.2818 19.9966 30.2818 19.9967 30.2818C19.9968 30.2818 19.9969 30.2818 19.997 30.2818H19.9971C20.0833 30.2818 20.7534 30.1346 21.6912 29.8931C22.4411 29.7014 23.3745 29.4455 24.355 29.1409C24.534 29.0856 24.7132 29.0291 24.8916 28.9715C26.7257 28.3794 28.1307 27.7992 29.1258 27.2215C29.1648 27.1991 29.203 27.1765 29.2409 27.154C29.244 27.1521 29.2473 27.1502 29.2504 27.1484C29.3077 27.1142 29.3641 27.08 29.4188 27.0455L31.7265 27.7651C31.7294 27.766 31.7324 27.7669 31.7354 27.7678C33.1204 28.1756 34.3097 29.0023 35.1745 30.1585C36.0393 31.3146 36.4964 32.6889 36.4964 34.1328V38.7489C36.4964 38.7928 36.4607 38.8286 36.4167 38.8286H31.7941V33.1136C31.7941 32.7943 31.5353 32.5355 31.216 32.5355C30.8967 32.5355 30.6379 32.7943 30.6379 33.1136V38.8286H9.36125V33.1136C9.36125 32.7943 9.10242 32.5355 8.78305 32.5355C8.46375 32.5355 8.20492 32.7943 8.20492 33.1136V38.8286H3.58216C3.53825 38.8286 3.50247 38.7929 3.50247 38.7489V34.9766C3.50247 34.6531 3.2402 34.3909 2.91676 34.3909C2.59332 34.3909 2.33105 34.6532 2.33105 34.9766V38.7489C2.33105 39.4387 2.89231 40 3.58216 40H36.4169C37.1067 40 37.668 39.4387 37.668 38.7489V34.133C37.668 32.4342 37.1302 30.8173 36.1127 29.457ZM26.0028 12.6481H22.1921C21.3434 12.6481 20.6229 13.2062 20.3775 13.9746H19.5445C19.2991 13.2062 18.5786 12.6481 17.7299 12.6481H13.9192C13.4776 12.6481 13.1182 13.0074 13.1182 13.4491V13.7078H11.9742V12.572C12.0584 12.5659 12.1426 12.5595 12.2268 12.5536C12.4088 12.5409 12.5907 12.5284 12.7728 12.5166C12.9886 12.5026 13.2045 12.4894 13.4203 12.4767C13.5776 12.4674 13.7348 12.4577 13.8921 12.449C14.2542 12.4291 14.6164 12.4106 14.9788 12.3943C15.0757 12.3899 15.1727 12.3866 15.2696 12.3825C15.5527 12.3705 15.8357 12.3591 16.1189 12.3493C16.2659 12.3442 16.4129 12.3399 16.5599 12.3354C16.7964 12.3281 17.0329 12.3214 17.2695 12.3156C17.4229 12.3119 17.5762 12.3084 17.7297 12.3052C17.9701 12.3003 18.2107 12.2965 18.4512 12.2931C18.5932 12.2912 18.7351 12.2888 18.877 12.2873C19.204 12.2841 19.531 12.2823 19.858 12.2819C19.9526 12.2817 20.047 12.2817 20.1416 12.2819C20.4684 12.2823 20.7953 12.2841 21.1222 12.2873C21.2642 12.2887 21.4062 12.2911 21.5483 12.2931C21.7887 12.2965 22.0291 12.3003 22.2694 12.3052C22.4229 12.3083 22.5764 12.3118 22.7299 12.3155C22.9663 12.3213 23.2026 12.328 23.4389 12.3353C23.5861 12.3398 23.7333 12.3441 23.8805 12.3492C24.1632 12.3591 24.4458 12.3704 24.7284 12.3823C24.8258 12.3865 24.9232 12.3898 25.0206 12.3942C25.3829 12.4105 25.7449 12.429 26.1068 12.4488C26.2645 12.4575 26.422 12.4673 26.5795 12.4766C26.795 12.4893 27.0106 12.5023 27.226 12.5163C27.4083 12.5282 27.5905 12.5406 27.7727 12.5534C27.8568 12.5593 27.9409 12.5657 28.025 12.5718V13.9744H26.8039V13.4489C26.8038 13.0075 26.4444 12.6481 26.0028 12.6481ZM25.6323 13.8196V14.5527C25.6323 14.957 25.3034 15.2859 24.8992 15.2859H22.1921C21.7879 15.2859 21.459 14.957 21.459 14.5527C21.459 14.1485 21.7879 13.8196 22.1921 13.8196H25.6323ZM18.463 14.5527C18.463 14.957 18.1341 15.2859 17.7299 15.2859H15.0228C14.6186 15.2859 14.2897 14.957 14.2897 14.5527V13.8196H17.7299C18.1341 13.8196 18.463 14.1485 18.463 14.5527ZM30.0256 15.0484C30.0256 15.4843 29.671 15.8388 29.2352 15.8388H29.1093C29.1104 15.831 29.1111 15.823 29.1122 15.815C29.1385 15.621 29.1588 15.4252 29.1728 15.2277C29.1742 15.208 29.1753 15.1883 29.1765 15.1687C29.1815 15.0912 29.1855 15.0134 29.1886 14.9353C29.1895 14.9104 29.1906 14.8856 29.1914 14.8607C29.1943 14.7649 29.1964 14.6689 29.1964 14.5724V12.7331H29.2351C29.671 12.7331 30.0255 13.0877 30.0255 13.5235V15.0484H30.0256ZM10.7639 15.8388C10.3281 15.8388 9.97352 15.4843 9.97352 15.0484V13.5235C9.97352 13.0877 10.3281 12.7331 10.7639 12.7331H10.8027V14.5724C10.8027 14.6689 10.8047 14.7649 10.8077 14.8607C10.8084 14.8856 10.8095 14.9105 10.8105 14.9354C10.8135 15.0134 10.8175 15.0912 10.8225 15.1687C10.8238 15.1884 10.8249 15.2081 10.8263 15.2278C10.8402 15.4254 10.8606 15.6212 10.8869 15.8151C10.888 15.823 10.8887 15.831 10.8898 15.8389L10.7639 15.8388ZM11.3415 11.4435C10.8763 11.4794 10.4113 11.5176 9.94696 11.5593C9.64836 11.5855 9.38078 11.3656 9.34953 11.0678L9.34711 11.045C9.33156 10.8968 9.37516 10.7516 9.46992 10.6365C9.56469 10.5212 9.69868 10.4505 9.84711 10.4371C9.96422 10.4265 10.0816 10.4176 10.1988 10.4075H10.1989C16.698 9.84318 23.2888 9.84295 29.7882 10.4065C29.9094 10.4169 30.0308 10.4262 30.152 10.4371C30.3004 10.4505 30.4344 10.5212 30.5292 10.6365C30.624 10.7517 30.6676 10.8968 30.652 11.0449L30.6496 11.0679C30.6183 11.3656 30.3506 11.5862 30.0522 11.5593C29.5878 11.5176 29.1229 11.4794 28.6576 11.4435C28.6565 11.4434 28.6554 11.4432 28.6543 11.4431C28.4961 11.4308 28.3376 11.4202 28.1793 11.4087C27.8177 11.3823 27.4559 11.3576 27.0939 11.3347C26.8681 11.3204 26.6424 11.3058 26.4164 11.293C26.2419 11.283 26.0674 11.2744 25.8928 11.2652C25.6731 11.2537 25.4534 11.2423 25.2335 11.232C25.0572 11.2238 24.8809 11.2165 24.7045 11.2091C24.4854 11.2 24.2663 11.1913 24.0472 11.1834C23.872 11.1771 23.6966 11.1712 23.5213 11.1657C23.2981 11.1587 23.0749 11.1526 22.8516 11.147C22.6813 11.1427 22.511 11.1383 22.3407 11.1348C22.1027 11.1298 21.8646 11.1262 21.6266 11.1228C21.4717 11.1205 21.3169 11.1177 21.1621 11.1161C20.8399 11.1128 20.5177 11.1112 20.1955 11.1107C20.1302 11.1106 20.0648 11.1096 19.9995 11.1096C19.9342 11.1096 19.8689 11.1106 19.8035 11.1107C19.4813 11.1112 19.159 11.1128 18.8369 11.1161C18.6821 11.1176 18.5273 11.1205 18.3725 11.1228C18.1344 11.1262 17.8962 11.1298 17.6582 11.1348C17.4879 11.1383 17.3177 11.1427 17.1475 11.147C16.9241 11.1526 16.7007 11.1587 16.4775 11.1657C16.3022 11.1712 16.127 11.1771 15.9518 11.1833C15.7325 11.1912 15.5134 11.1999 15.2943 11.2091C15.1179 11.2164 14.9417 11.2237 14.7654 11.2319C14.5454 11.2422 14.3257 11.2536 14.1058 11.2651C13.9314 11.2743 13.7569 11.283 13.5826 11.2929C13.3565 11.3058 13.1306 11.3203 12.9047 11.3346C12.5429 11.3574 12.1814 11.3822 11.82 11.4085C11.6616 11.4201 11.503 11.4307 11.3446 11.443C11.3437 11.4432 11.3426 11.4434 11.3415 11.4435ZM12.1474 16.2333C12.141 16.2026 12.1346 16.1719 12.1285 16.1412C12.1218 16.1074 12.1153 16.0736 12.109 16.0397C12.1018 16.0008 12.0949 15.9619 12.0884 15.9229C12.0837 15.8953 12.079 15.8678 12.0746 15.8402C12.0674 15.7946 12.0606 15.7489 12.0542 15.7032C12.051 15.6806 12.0477 15.6581 12.0446 15.6354C12.0379 15.5848 12.0319 15.5341 12.0261 15.4834C12.0239 15.4645 12.0216 15.4456 12.0196 15.4266C12.0139 15.3727 12.009 15.3188 12.0043 15.2647C12.0029 15.248 12.0012 15.2313 11.9999 15.2146C11.9955 15.1594 11.9919 15.1041 11.9887 15.0487C11.9878 15.0326 11.9865 15.0166 11.9856 15.0006C11.9832 14.9551 11.9817 14.9096 11.9801 14.8641H13.1441C13.2931 15.7667 14.0787 16.4574 15.0228 16.4574H17.7299C18.5786 16.4574 19.2991 15.8993 19.5445 15.1309H20.3775C20.6229 15.8993 21.3434 16.4574 22.1921 16.4574H24.8992C25.7478 16.4574 26.4684 15.8993 26.7138 15.1309H28.0048C28.0029 15.1589 28.0014 15.1868 27.9992 15.2147C27.9978 15.2312 27.9962 15.2475 27.9948 15.2639C27.9901 15.3182 27.9852 15.3725 27.9794 15.4267C27.9775 15.4454 27.9751 15.464 27.973 15.4827C27.9672 15.5337 27.9611 15.5846 27.9544 15.6355C27.9514 15.658 27.9482 15.6803 27.945 15.7028C27.9385 15.7487 27.9318 15.7945 27.9245 15.8402C27.9201 15.8677 27.9154 15.8952 27.9107 15.9227C27.9041 15.9617 27.8973 16.0006 27.8901 16.0395C27.8838 16.0735 27.8773 16.1075 27.8705 16.1414C27.8645 16.1719 27.8582 16.2024 27.8518 16.2327C27.1268 19.6646 24.2026 22.2947 20.6283 22.5731C20.6234 22.5735 20.6184 22.574 20.6134 22.5744C20.5555 22.5787 20.4973 22.5822 20.4391 22.5854C20.4286 22.586 20.4182 22.5868 20.4077 22.5873C20.3531 22.5901 20.2983 22.5919 20.2433 22.5936C20.2299 22.594 20.2165 22.5947 20.203 22.5951C20.1354 22.5968 20.0676 22.5976 19.9995 22.5976C16.1436 22.5977 12.9146 19.8642 12.1474 16.2333ZM23.2829 25.2264C22.3895 25.5737 21.1738 25.9811 20 25.9819C19.8477 25.9818 19.6948 25.9749 19.5419 25.9621C19.5194 25.9602 19.497 25.9573 19.4745 25.9552C19.3441 25.9429 19.2138 25.9273 19.0842 25.9073C19.0705 25.9052 19.0569 25.9026 19.0433 25.9004C18.9052 25.8784 18.7679 25.8529 18.632 25.8238C18.6086 25.8188 18.5854 25.8131 18.5621 25.808C18.511 25.7966 18.4599 25.7854 18.4093 25.7732C18.3955 25.7699 18.3821 25.7662 18.3684 25.7629C18.3086 25.7482 18.2488 25.7334 18.1897 25.7176C18.1866 25.7168 18.1836 25.7159 18.1804 25.7151C17.966 25.658 17.7568 25.5949 17.5558 25.5291C17.5545 25.5286 17.5532 25.5282 17.5518 25.5277C17.2138 25.4169 16.8985 25.2985 16.6182 25.1881C16.6511 25.1499 16.6828 25.1093 16.7136 25.0675C16.7159 25.0644 16.7181 25.0613 16.7204 25.0583C16.7488 25.0193 16.7764 24.9789 16.8027 24.9367C16.8053 24.9326 16.808 24.9287 16.8106 24.9244C16.8363 24.8825 16.8607 24.839 16.884 24.7938C16.8915 24.7795 16.8983 24.7646 16.9054 24.75C16.9202 24.7197 16.9343 24.6887 16.9479 24.6569C16.9564 24.637 16.9649 24.6172 16.9729 24.5968C16.9874 24.5594 17.001 24.521 17.0138 24.4817C17.0234 24.4522 17.0322 24.4217 17.0407 24.3911C17.0462 24.3712 17.0523 24.352 17.0574 24.3318L17.0596 24.3234C17.0607 24.3194 17.0617 24.3153 17.0627 24.3112C17.065 24.3015 17.0672 24.2914 17.0693 24.2814C17.0725 24.2677 17.0754 24.2539 17.0783 24.24C17.1063 24.1131 17.1229 23.9833 17.1275 23.8532C17.1276 23.8521 17.1278 23.8511 17.1279 23.85C17.128 23.8459 17.1283 23.8421 17.1284 23.8379C17.1297 23.8176 17.1305 23.7972 17.1305 23.7766V23.3126C17.1699 23.3256 17.2097 23.3367 17.2492 23.349C17.268 23.355 17.2869 23.3606 17.3058 23.3664C17.4227 23.4022 17.5401 23.4357 17.6583 23.4668C17.6793 23.4723 17.7004 23.4781 17.7216 23.4835C17.7868 23.5001 17.8521 23.5162 17.9176 23.5315C17.9385 23.5363 17.9597 23.5407 17.9807 23.5455C18.0898 23.5699 18.1994 23.5926 18.3094 23.6129C18.3501 23.6205 18.3908 23.6279 18.4317 23.6349C18.4863 23.6443 18.5409 23.6538 18.5958 23.6622C18.6799 23.6751 18.7645 23.6868 18.8494 23.6974C18.8929 23.7028 18.9366 23.7076 18.9803 23.7124C19.0521 23.7204 19.1242 23.7274 19.1965 23.7337C19.2265 23.7363 19.2564 23.7394 19.2865 23.7418C19.3873 23.7495 19.4887 23.7551 19.5905 23.7597C19.6189 23.7609 19.6474 23.7619 19.6759 23.763C19.7833 23.7667 19.8911 23.7693 19.9994 23.7693C20.1008 23.7693 20.2016 23.767 20.3022 23.7637C20.3317 23.7628 20.3611 23.7616 20.3905 23.7604C20.4705 23.757 20.5501 23.7526 20.6295 23.7472C20.6532 23.7457 20.6769 23.7445 20.7006 23.7427C20.7924 23.7358 20.8837 23.7272 20.9748 23.7175C21.0158 23.7132 21.0566 23.7083 21.0976 23.7034C21.1539 23.6967 21.2101 23.6894 21.2662 23.6816C21.3105 23.6755 21.3548 23.6697 21.3991 23.663C21.4787 23.6508 21.558 23.6374 21.6369 23.6231C21.6908 23.6134 21.7444 23.6028 21.7981 23.5922C21.8354 23.5847 21.8726 23.5771 21.9097 23.5692C22.1001 23.5289 22.2891 23.4825 22.4767 23.43C22.5024 23.4228 22.5281 23.4154 22.5538 23.408C22.5966 23.3957 22.6396 23.3844 22.6823 23.3714V23.7394C22.6823 24.3088 22.9088 24.8365 23.2829 25.2264ZM29.7511 25.1959C29.6392 25.4073 29.2764 25.8407 28.1071 26.4433C28.0798 26.4573 28.0525 26.4712 28.0249 26.4852C28.0178 26.4887 28.0111 26.4923 28.0039 26.4959C26.8277 27.086 25.2786 27.6322 23.8446 28.0726C22.0595 28.618 20.4425 29.0007 19.9996 29.0981C19.5562 29.0006 17.9356 28.617 16.1478 28.0705C14.7151 27.6303 13.1685 27.0847 11.994 26.4952C11.9895 26.4929 11.9853 26.4907 11.9808 26.4884C11.9502 26.473 11.92 26.4576 11.8899 26.4421C10.7223 25.8402 10.3599 25.4071 10.2481 25.1959C9.90204 24.5426 9.95985 23.6644 10.3856 23.1076C11.1025 22.1699 12.0181 21.3101 13.0535 20.5993C13.1225 20.6789 13.1927 20.7568 13.2634 20.8329C13.2652 20.8348 13.2671 20.8369 13.2692 20.8391C14.0437 21.6707 14.9472 22.3411 15.9593 22.8358V23.7676C15.9587 23.7772 15.9582 23.7869 15.9578 23.7965C15.9504 23.9394 15.9234 24.0608 15.8836 24.1639C15.8832 24.1646 15.8829 24.1653 15.8826 24.166C15.8704 24.1974 15.8568 24.2268 15.8425 24.2549C15.8382 24.2633 15.8336 24.2711 15.829 24.2791C15.8191 24.2972 15.8088 24.3146 15.7981 24.3313C15.7877 24.3472 15.777 24.3626 15.766 24.3773C15.7616 24.3832 15.7571 24.3891 15.7527 24.3949C15.5617 24.6365 15.2943 24.7118 15.2208 24.7284C15.2191 24.7288 15.2173 24.7292 15.2157 24.7295C15.2119 24.7303 15.2078 24.7312 15.2057 24.7316C15.1879 24.734 15.1705 24.7371 15.1534 24.7409C15.153 24.741 15.1527 24.7412 15.1524 24.7412C15.1357 24.7451 15.1193 24.7495 15.1032 24.7547C15.1017 24.7551 15.1003 24.7558 15.0989 24.7562C15.0839 24.7612 15.0693 24.7666 15.055 24.7726C15.0542 24.7729 15.0535 24.7733 15.0527 24.7737C15.0378 24.7801 15.0233 24.7869 15.0092 24.7944C15.0051 24.7966 15.0013 24.7992 14.9973 24.8015C14.9867 24.8075 14.9761 24.8135 14.9658 24.8201C14.96 24.824 14.9546 24.8283 14.9489 24.8323C14.941 24.838 14.9328 24.8433 14.9253 24.8494C14.9178 24.8553 14.9107 24.8618 14.9035 24.8681C14.8982 24.8728 14.8925 24.8771 14.8874 24.8819C14.8793 24.8895 14.8718 24.8976 14.8642 24.9057C14.8603 24.9098 14.8563 24.9135 14.8525 24.9176C14.8436 24.9276 14.8353 24.9381 14.8271 24.9487C14.8251 24.9512 14.8229 24.9537 14.821 24.9562C14.8123 24.9679 14.8042 24.98 14.7964 24.9923C14.7952 24.9941 14.7939 24.9957 14.7928 24.9976C14.7398 25.0828 14.7082 25.183 14.7043 25.2902C14.6948 25.5578 14.874 25.7941 15.1268 25.8703C15.1271 25.8704 15.1275 25.8705 15.1278 25.8706C15.1446 25.8757 15.1619 25.8801 15.1794 25.8837C15.198 25.8878 15.2278 25.8973 15.2654 25.9107C15.3785 25.9509 15.5627 26.0257 15.7301 26.0937C16.299 26.3249 17.174 26.6805 18.157 26.9152C18.7468 27.0559 19.3754 27.153 19.9999 27.1535C21.6645 27.1522 23.3587 26.4637 24.2688 26.0937C24.2967 26.0824 24.325 26.0709 24.3535 26.0594C24.5524 25.9787 24.7543 25.8981 24.8188 25.8838C24.8467 25.8781 24.8737 25.8705 24.8998 25.8611C24.9258 25.8517 24.9509 25.8406 24.9748 25.8279C24.9938 25.818 25.0117 25.8064 25.0293 25.7947C25.1923 25.6864 25.2953 25.5009 25.2913 25.2963C25.286 25.0216 25.0905 24.7875 24.8211 24.7333L24.6373 24.6964C24.1831 24.6051 23.8535 24.2027 23.8535 23.7394V22.9243C25.0347 22.3782 26.0901 21.5843 26.9455 20.5993C27.9809 21.3102 28.8964 22.1701 29.6133 23.1076C30.0393 23.6644 30.0971 24.5426 29.7511 25.1959Z" fill="black"/>
</svg>
