<svg width="40" height="40" viewBox="0 0 40 40" fill="none" xmlns="http://www.w3.org/2000/svg">
<path d="M39.3333 38H0.666667C0.2985 38 0 37.7015 0 37.3333C0 36.9651 0.2985 36.6666 0.666667 36.6666H39.3333C39.7015 36.6666 40 36.9651 40 37.3333C40 37.7015 39.7015 38 39.3333 38Z" fill="#6D6C6B"/>
<path d="M24.0003 35.3333H17.3337C16.9655 35.3333 16.667 35.0348 16.667 34.6667C16.667 34.2985 16.9655 34 17.3337 34H24.0003C24.3685 34 24.667 34.2985 24.667 34.6667C24.667 35.0348 24.3685 35.3333 24.0003 35.3333Z" fill="#6D6C6B"/>
<path d="M14.667 35.3333H13.3337C12.9655 35.3333 12.667 35.0348 12.667 34.6667C12.667 34.2985 12.9655 34 13.3337 34H14.667C15.0352 34 15.3337 34.2985 15.3337 34.6667C15.3337 35.0348 15.0352 35.3333 14.667 35.3333Z" fill="#6D6C6B"/>
<path d="M21.9997 26H13.9997C13.6315 26 13.333 25.7015 13.333 25.3333C13.333 24.9651 13.6315 24.6666 13.9997 24.6666H21.9997C22.3678 24.6666 22.6663 24.9651 22.6663 25.3333C22.6663 25.7015 22.3678 26 21.9997 26Z" fill="#6D6C6B"/>
<path d="M11.333 26H9.99967C9.63151 26 9.33301 25.7015 9.33301 25.3333C9.33301 24.9651 9.63151 24.6666 9.99967 24.6666H11.333C11.7012 24.6666 11.9997 24.9651 11.9997 25.3333C11.9997 25.7015 11.7012 26 11.333 26Z" fill="#6D6C6B"/>
<path d="M7.90633 27.8379L8.90766 29.8666L11.1457 30.1919L9.52632 31.7706L9.90833 33.9999L7.90633 32.9472L5.90433 33.9999L6.28699 31.7706L4.66699 30.1919L6.90566 29.8666L7.90633 27.8379Z" fill="#FFDE55"/>
<path d="M8.00026 12.4039C5.42309 14.9813 5.42309 19.1598 8.00026 21.7372L8.25292 21.9892C8.51809 22.2546 8.87776 22.4038 9.25292 22.4039C10.0339 22.4036 10.6669 21.7702 10.6669 20.9892C10.6669 20.6142 10.518 20.2545 10.2529 19.9892L10.0003 19.7372C8.52759 18.2645 8.52759 15.8766 10.0003 14.4039L22.0003 26.4039V32.6666C21.9994 33.3362 22.3338 33.9618 22.8909 34.3332C23.5627 34.7811 24.4378 34.7811 25.1096 34.3332C25.6668 33.9618 26.0011 33.3362 26.0003 32.6666V24.4039L22.6669 21.0706L26.0003 17.7372L30.1149 21.8512C30.4683 22.2052 30.948 22.4041 31.4483 22.4039C32.4896 22.4036 33.3336 21.5592 33.3336 20.5179C33.3335 20.0179 33.1349 19.5383 32.7816 19.1846L26.0003 12.4039L20.6669 17.7372L15.3336 12.4039V11.7372C18.2791 11.7372 20.6669 9.34938 20.6669 6.40388V6.28922C20.6668 5.93563 20.5263 5.59655 20.2763 5.34655C19.7556 4.82605 18.9116 4.82605 18.3909 5.34655C18.1408 5.59655 18.0003 5.93563 18.0003 6.28922C18.0003 7.8253 16.755 9.07055 15.2189 9.07055C12.7312 9.07055 10.3453 10.0588 8.58626 11.8179L8.00026 12.4039Z" fill="#C1D6E8"/>
<path d="M8.00033 11.0705C9.84127 11.0705 11.3337 9.57809 11.3337 7.73714C11.3337 5.89619 9.84127 4.40381 8.00033 4.40381C6.15938 4.40381 4.66699 5.89619 4.66699 7.73714C4.66699 9.57809 6.15938 11.0705 8.00033 11.0705Z" fill="#C1D6E8"/>
<path d="M34.9698 2.17667L34.6671 2L34.3645 2.17667C32.9989 2.96992 31.3918 3.24042 29.8418 2.938V9.65133C29.842 10.4797 30.0729 11.2915 30.5085 11.996C31.0215 12.823 31.7815 13.4679 32.6811 13.8393L34.6671 14.6667L36.6518 13.8393C37.5514 13.4679 38.3114 12.8231 38.8245 11.996C39.26 11.2915 39.4909 10.4797 39.4911 9.65133V2.938C37.9415 3.24008 36.335 2.96958 34.9698 2.17667Z" fill="#4091DB"/>
<path d="M34.9697 2.17667L34.667 2V14.6667L36.6517 13.8393C37.5512 13.4679 38.3112 12.8231 38.8243 11.996C39.2599 11.2915 39.4907 10.4797 39.491 9.65133V2.938C37.9414 3.24008 36.3348 2.96958 34.9697 2.17667Z" fill="#2273AF"/>
</svg>
