<svg width="452" height="397" viewBox="0 0 452 397" fill="none" xmlns="http://www.w3.org/2000/svg">
<path d="M32.3663 341.032C95.1636 420.34 206.445 407.271 291.27 352.114C342.388 318.875 358.861 282.094 384.08 226.602C409.88 169.833 438.955 129.076 417.588 70.4959C384.634 -19.8521 275.308 -0.63134 179.416 7.37878C119.615 12.3741 72.5639 7.41924 32.3663 51.9462C-5.83495 94.2618 0.666224 137.331 0.304672 194.321C-0.0673675 252.964 -4.0481 295.044 32.3663 341.032Z" fill="#17114C"/>
<path d="M72.8192 338.402C130.674 411.518 233.198 399.469 311.348 348.619C358.443 317.975 373.62 284.066 396.854 232.908C420.623 180.571 447.41 142.997 427.725 88.9912C397.364 5.6981 296.642 23.418 208.296 30.8026C153.202 35.4078 109.853 30.8399 72.8192 71.8899C37.6242 110.901 43.6138 150.607 43.2807 203.147C42.9379 257.212 39.2705 296.005 72.8192 338.402Z" fill="#59529C"/>
<path d="M371.486 370.481C310.565 405.653 211.484 405.474 150.18 370.081C88.8781 334.688 88.568 277.484 149.488 242.311C210.409 207.139 309.49 207.318 370.793 242.711C371.486 196 434.877 213.855 442 221.5C473.911 255.749 421.289 341.727 371.486 370.481Z" fill="#CA7CAB"/>
<path d="M204.348 350.708C202.191 350.708 200.024 350.49 197.878 350.046L137.742 339.62C128.018 337.71 125.97 324.705 134.637 319.898L190.825 288.741L190.816 328.915C190.815 333.902 192.366 337.472 194.8 339.094L194.795 339.109L204.35 345.429L207.758 347.683L207.76 347.679C208.753 348.394 209.903 348.771 211.164 348.771C212.498 348.771 213.955 348.348 215.48 347.453L237.32 334.624L222.772 344.871C217.336 348.699 210.891 350.708 204.348 350.708Z" fill="#59529C"/>
<path d="M204.35 345.429L194.795 339.109L194.8 339.094C192.367 337.472 190.815 333.902 190.816 328.915L190.825 288.741L190.84 225.213L190.868 106.078C190.87 96.9428 196.055 86.4226 202.392 82.7003L291.581 30.3107C293.098 29.4198 294.547 29 295.875 29C297.466 29 298.882 29.6039 300.032 30.7255L300.038 30.7067L308.917 36.5801L307.735 35.7991C307.018 35.4882 306.24 35.3258 305.416 35.3258C304.093 35.3258 302.65 35.7436 301.137 36.6316L211.948 89.0212C205.612 92.7435 200.426 103.263 200.424 112.399L200.372 335.235C200.371 340.223 201.923 343.792 204.356 345.413L204.35 345.429V345.429ZM311.21 38.0967L309.594 37.0276L309.588 37.0454L309.459 36.9385L311.21 38.0967Z" fill="url(#paint0_linear)"/>
<path d="M207.759 347.683L204.35 345.429L204.356 345.413C201.923 343.792 200.372 340.223 200.373 335.235L200.424 112.399C200.426 103.263 205.612 92.7434 211.948 89.0212L301.137 36.6316C302.65 35.7436 304.093 35.3258 305.416 35.3258C306.24 35.3258 307.018 35.4882 307.736 35.799L308.918 36.5801L309.458 36.9375L309.459 36.9385L309.588 37.0454L309.594 37.0276L311.21 38.0967C310.535 37.8265 309.81 37.6869 309.045 37.6869C307.711 37.6869 306.253 38.1116 304.729 39.0065L215.54 91.3961C209.203 95.1183 204.018 105.639 204.015 114.774L203.963 337.61C203.962 342.474 205.43 346.003 207.761 347.679L207.759 347.683" fill="url(#paint1_linear)"/>
<path d="M304.669 295.063L215.48 347.453C209.143 351.175 203.961 346.746 203.963 337.61L204.014 114.774C204.017 105.639 209.203 95.1184 215.539 91.3962L304.729 39.0066C311.064 35.2844 316.248 39.7134 316.246 48.8488L316.193 271.685C316.192 280.821 311.006 291.341 304.669 295.063Z" fill="#F5F5F5"/>
<path d="M213.007 346.109C212.453 346.089 211.623 345.916 210.816 344.66C209.917 343.259 209.422 341.06 209.423 338.468L209.474 115.631C209.476 107.648 214.023 98.2338 219.403 95.0718L308.592 42.6823C309.606 42.0873 310.558 41.7874 311.344 41.8161C311.899 41.8359 312.728 42.0081 313.534 43.2644C314.433 44.6652 314.929 46.8648 314.928 49.4575L314.876 272.294C314.874 280.278 310.328 289.693 304.946 292.853L215.757 345.242C214.743 345.838 213.792 346.138 213.007 346.109Z" fill="#3A3B3B"/>
<path d="M284.226 66.5541L239.784 92.7336C232.751 96.8766 226 97.3013 221.213 93.9017L220.754 93.1276L302.894 45.3106L302.54 45.9947C297.917 54.938 291.26 62.4112 284.226 66.5541" fill="#F5F5F5"/>
<path d="M257.553 75.038C257.553 73.0037 258.885 70.5228 260.526 69.4992C262.167 68.4756 263.498 69.2963 263.497 71.3316C263.497 73.367 262.166 75.8468 260.525 76.8705C258.884 77.8941 257.553 77.0734 257.553 75.038" fill="#3A3B3B"/>
<path d="M305.875 59.0928L306.381 280.037L219.223 330.852V113.102L305.875 59.0928Z" fill="#CFCAFD"/>
<path d="M294.231 287.121L219.223 330.852V229.665L294.231 287.121" fill="#CFCAFD"/>
<path d="M305.991 293.368L305.875 293.446L300.998 290.873L300.843 290.795L300.078 62.7111L305.914 59.0928L305.991 293.368" fill="#8F6D4A"/>
<path d="M294.237 287.12L300.826 290.796V62.2399L294.237 66.3462V287.12Z" fill="#947453"/>
<path d="M305.98 245.218V271.779L300.355 268.525V241.964L305.98 245.218Z" fill="#858585"/>
<path d="M304.232 266.347C305.377 266.347 306.306 265.823 306.306 265.175L306.368 255.433C304.991 255.514 303.606 255.542 302.218 255.523L302.157 265.176C302.157 265.823 303.085 266.347 304.232 266.347Z" fill="url(#paint2_linear)"/>
<path d="M302.218 255.517C302.218 256.167 303.15 256.693 304.3 256.693C305.449 256.693 306.381 256.167 306.381 255.517C306.381 254.868 305.449 254.341 304.3 254.341C303.15 254.341 302.218 254.868 302.218 255.517Z" fill="#C7C7C7"/>
<path d="M304.239 256.263C305.172 256.263 305.93 255.835 305.929 255.308L305.98 247.368C304.857 247.434 303.729 247.457 302.597 247.442L302.548 255.308C302.548 255.835 303.304 256.263 304.239 256.263Z" fill="url(#paint3_linear)"/>
<path d="M302.598 247.436C302.598 247.966 303.358 248.395 304.294 248.395C305.232 248.395 305.991 247.966 305.991 247.436C305.991 246.908 305.231 246.478 304.294 246.479C303.357 246.479 302.598 246.908 302.598 247.436Z" fill="#C7C7C7"/>
<path d="M305.98 108.726V135.289L300.355 132.033V105.471L305.98 108.726" fill="#858585"/>
<path d="M304.232 129.856C305.377 129.856 306.306 129.331 306.306 128.684L306.368 118.942C304.991 119.023 303.606 119.051 302.218 119.032L302.157 128.685C302.157 129.331 303.085 129.856 304.232 129.856Z" fill="url(#paint4_linear)"/>
<path d="M302.218 119.026C302.218 119.675 303.15 120.201 304.3 120.201C305.449 120.201 306.381 119.675 306.381 119.026C306.381 118.376 305.449 117.85 304.3 117.85C303.15 117.85 302.218 118.376 302.218 119.026Z" fill="#C7C7C7"/>
<path d="M304.239 119.771C305.172 119.77 305.93 119.344 305.929 118.816L305.98 110.877C304.857 110.943 303.729 110.966 302.597 110.95L302.548 118.816C302.548 119.344 303.304 119.77 304.239 119.771Z" fill="url(#paint5_linear)"/>
<path d="M302.598 110.945C302.598 111.474 303.358 111.903 304.294 111.903C305.232 111.903 305.991 111.474 305.991 110.945C305.991 110.415 305.231 109.987 304.294 109.987C303.357 109.987 302.598 110.415 302.598 110.945Z" fill="#C7C7C7"/>
<path d="M386.029 110.534L380.54 113.622V336.372L386.029 333.284V110.534" fill="#9E8061"/>
<path d="M380.54 113.622L305.875 70.7684V293.446L380.54 336.372V113.622Z" fill="#947453"/>
<path d="M372.174 229.81L367.729 229.884C367.729 229.884 366.452 226.798 365.391 226.623C364.332 226.45 361.307 227.669 362.592 232.268C363.877 236.868 364.247 237.074 364.247 237.074L370.537 240.347L372.505 233.386L372.174 229.81" fill="#795237"/>
<path d="M372.241 127.295L314.354 94.9402V196.128L372.241 228.483V127.295Z" fill="#8F6D4A"/>
<path d="M316.573 96.2143V194.846L372.241 225.927V228.483L314.354 196.128V94.9402L316.573 96.2143" fill="#876746"/>
<path d="M372.241 241.542L314.354 209.187V281.623L372.241 313.977V241.542Z" fill="#8F6D4A"/>
<path d="M316.573 210.461V280.341L372.241 311.421V313.977L314.354 281.623V209.187L316.573 210.461Z" fill="#876746"/>
<path d="M311.366 67.6807L305.875 70.7683L380.54 113.622L386.03 110.534L311.366 67.6807Z" fill="#E0CFB4"/>
<path d="M316.573 96.2142V194.846L314.354 196.128V94.9401L316.573 96.2142Z" fill="#9E8061"/>
<path d="M316.573 210.461V280.341L314.354 281.623V209.187L316.573 210.461Z" fill="#9E8061"/>
<path d="M375.319 231.665C374.441 230.145 373.032 229.314 372.174 229.81L367.773 232.326C368.938 234.091 370.036 235.908 371.075 237.764L375.354 235.317C376.213 234.821 376.197 233.187 375.319 231.665" fill="url(#paint6_linear)"/>
<path d="M372.505 233.386C370.871 230.556 368.252 229.01 366.654 229.934L364.635 231.057C366.8 234.341 368.843 237.722 370.776 241.177L372.57 240.18C374.168 239.257 374.139 236.216 372.505 233.386" fill="url(#paint7_linear)"/>
<path d="M370.697 241.258C372.299 240.331 372.271 237.28 370.632 234.44C368.993 231.602 366.364 230.051 364.761 230.976C363.157 231.902 363.186 234.954 364.825 237.793C366.465 240.633 369.093 242.184 370.697 241.258" fill="#CCCCCB"/>
<path d="M381.815 225.024V250.146L381.134 249.75V224.628L381.815 225.024Z" fill="#84A3AA"/>
<path d="M385.516 222.865V247.987L381.815 250.146V225.024L385.516 222.865Z" fill="#B4C7CB"/>
<path d="M384.835 222.469L381.134 224.628L381.815 225.024L385.516 222.865L384.835 222.469Z" fill="#E8F2F7"/>
<path d="M382.662 232.989L382.663 240.762L384.549 241.859V234.087L382.662 232.989" fill="#97ADAD"/>
<path d="M384.549 234.087V241.859L386.566 240.663V232.892L384.549 234.087" fill="#BDCDCD"/>
<path d="M384.679 231.794L382.662 232.989L384.549 234.087L386.566 232.892L384.679 231.794Z" fill="#DDE9F5"/>
<path d="M384.397 226.617C384.311 226.505 384.188 226.444 384.04 226.442L384.007 226.443C383.814 226.451 383.611 226.556 383.439 226.718C383.285 226.866 383.154 227.059 383.077 227.273L383.047 227.366C382.996 227.552 382.99 227.727 383.032 227.873L383.123 228.061C383.188 228.146 383.274 228.201 383.377 228.223L383.511 228.234C383.903 228.219 384.335 227.804 384.473 227.311C384.55 227.035 384.522 226.782 384.397 226.617Z" fill="#B5C6C9"/>
<path d="M383.288 227.395L383.263 228.005L383.032 227.873C382.99 227.727 382.996 227.552 383.047 227.366L383.077 227.273L383.288 227.395" fill="#A0B5BA"/>
<path d="M383.628 226.827L383.288 227.395L383.077 227.273C383.154 227.059 383.285 226.866 383.439 226.718L383.628 226.827Z" fill="#B5C6C9"/>
<path d="M384.216 226.544L383.628 226.827L383.439 226.718C383.612 226.556 383.815 226.451 384.008 226.443L384.04 226.442L384.216 226.544" fill="#CCD9E0"/>
<path d="M383.377 228.223C383.274 228.201 383.188 228.146 383.124 228.061L383.033 227.873L383.263 228.005L383.377 228.223Z" fill="#90A8AD"/>
<path d="M383.178 228.1C383.27 228.222 383.405 228.282 383.568 228.276C383.96 228.259 384.391 227.845 384.528 227.353C384.605 227.075 384.579 226.822 384.453 226.658C384.361 226.537 384.226 226.477 384.064 226.484C383.672 226.5 383.241 226.913 383.103 227.406C383.025 227.684 383.053 227.937 383.178 228.1Z" fill="#AEBFC2"/>
<path d="M383.314 228.209L383.188 228.109L384.411 226.623L384.453 226.658L384.508 226.758L383.314 228.209" fill="#6F8C92"/>
<path d="M384.397 245.408C384.311 245.295 384.188 245.235 384.04 245.233L384.007 245.234C383.814 245.243 383.611 245.347 383.439 245.51C383.285 245.656 383.154 245.849 383.077 246.064L383.047 246.156C382.996 246.342 382.99 246.519 383.032 246.663L383.123 246.851C383.188 246.937 383.274 246.992 383.377 247.014L383.511 247.025C383.903 247.01 384.335 246.595 384.473 246.103C384.55 245.826 384.522 245.572 384.397 245.408Z" fill="#B5C6C9"/>
<path d="M383.288 246.185L383.263 246.797L383.032 246.663C382.99 246.519 382.996 246.342 383.047 246.156L383.077 246.064L383.288 246.185" fill="#A0B5BA"/>
<path d="M383.628 245.619L383.288 246.185L383.077 246.064C383.154 245.849 383.285 245.656 383.439 245.51L383.628 245.619Z" fill="#B5C6C9"/>
<path d="M384.216 245.335L383.628 245.619L383.439 245.51C383.612 245.346 383.815 245.243 384.008 245.234L384.04 245.233L384.216 245.335" fill="#CCD9E0"/>
<path d="M383.377 247.014C383.274 246.992 383.188 246.937 383.124 246.851L383.033 246.663L383.263 246.797L383.377 247.014Z" fill="#90A8AD"/>
<path d="M383.178 246.892C383.27 247.013 383.405 247.072 383.568 247.066C383.96 247.05 384.391 246.636 384.528 246.143C384.605 245.866 384.579 245.613 384.453 245.448C384.361 245.328 384.226 245.267 384.064 245.274C383.672 245.29 383.241 245.704 383.103 246.197C383.025 246.474 383.053 246.727 383.178 246.892Z" fill="#AEBFC2"/>
<path d="M383.314 247L383.188 246.9L384.411 245.415L384.453 245.448L384.508 245.548L383.314 247Z" fill="#6F8C92"/>
<path d="M219.223 330.852V342.874L304.622 292.784L291.583 285.647L219.223 330.852" fill="#746DB4"/>
<path d="M380.54 336.372H370.666L301.094 297.163L304.669 295.063C305.285 294.701 305.89 294.275 306.48 293.793L380.54 336.372" fill="#6F68B5"/>
<path d="M301.094 297.163L300.869 297.037L300.01 295.753L304.855 292.907L305.875 293.446L306.48 293.793C305.89 294.275 305.285 294.701 304.67 295.063L301.094 297.163" fill="#D0D0D0"/>
<path d="M300.01 295.753L299.883 295.564L304.622 292.784L304.854 292.907L300.01 295.753V295.753ZM300.843 290.715L300.826 290.706V290.703L300.843 290.712V290.715Z" fill="#313232"/>
<path d="M305.875 293.446L304.855 292.907L304.622 292.784L300.843 290.715V290.712L305.875 293.446" fill="#7A5D3F"/>
<path d="M300.826 290.706L300.105 290.312L300.826 290.703V290.706Z" fill="#7E6347"/>
<path d="M299.883 295.564L294.231 287.121L300.106 290.312L300.827 290.706L300.843 290.715L304.622 292.784L299.883 295.564" fill="#6F68B5"/>
<path d="M293.372 286.463L276.139 273.262C278.957 274.159 281.608 275.299 284 276.68C288.841 279.474 291.965 282.882 293.372 286.463Z" fill="#6F68B5"/>
<path d="M252.076 310.328C245.859 309.518 239.947 307.712 235.098 304.913C221.51 297.067 221.441 284.387 234.945 276.591C236.734 275.558 238.669 274.663 240.715 273.906C241.372 280.871 242.161 288.807 242.161 290.287C242.161 290.378 242.158 290.444 242.152 290.485C242.146 290.527 242.142 290.572 242.142 290.617C242.143 290.994 242.372 291.436 242.754 291.891C242.674 292.701 242.581 293.667 242.538 294.197C242.46 294.36 242.397 294.525 242.376 294.664C242.307 295.131 242.293 296.36 242.314 296.56C242.335 296.761 244.754 299.147 245.608 300.451C246.461 301.754 249.27 304.695 251.565 305.883C252.609 306.423 253.933 306.602 255.26 306.602C256.39 306.602 257.522 306.472 258.483 306.325L252.076 310.328V310.328ZM264.306 302.688C264.399 301.789 264.151 300.322 264.151 300.322C264.151 300.322 263.107 299.258 262.854 299.258C262.849 299.258 262.846 299.258 262.842 299.259C261.378 297.79 257.676 295.014 257.467 294.566C257.284 294.174 256.175 292.816 255.552 292.067C255.957 289.184 256.712 279.281 257.301 270.803C257.323 270.802 257.346 270.802 257.367 270.801C257.447 273.305 257.517 275.16 257.553 275.425C257.584 275.669 257.788 276.084 258.158 276.543C258.114 276.806 258.064 277.122 258.036 277.464C257.881 277.58 257.754 277.731 257.724 277.927C257.633 278.503 257.347 280.629 257.62 281.109C257.894 281.588 259.582 283.091 262.711 283.699C265.694 284.28 271.875 286.642 276.31 286.642C276.527 286.642 276.74 286.636 276.948 286.624C281.905 285.519 281.791 283.488 281.791 283.488L281.874 280.957C281.874 280.957 281.389 279.169 280.059 278.841C278.258 277.875 273.908 276.62 272.067 275.354C270.937 274.577 270.159 274.298 269.664 274.213C269.675 273.581 269.694 272.627 269.732 271.684C271.934 272.081 274.08 272.607 276.139 273.262L293.372 286.463C293.399 286.532 293.426 286.601 293.451 286.669L291.583 285.647L264.306 302.688" fill="#59529C"/>
<path d="M281.192 306.527L287.133 303.042C286.227 303.723 285.233 304.378 284.153 305.001C283.207 305.548 282.217 306.057 281.192 306.527" fill="#313232"/>
<path d="M259.767 310.823C257.188 310.823 254.606 310.658 252.076 310.328L258.483 306.325C258.876 306.265 259.24 306.202 259.564 306.144C261.611 305.777 263.954 303.844 264.223 303.093C264.263 302.982 264.289 302.843 264.306 302.688L291.583 285.647L293.451 286.669C295.55 292.281 293.447 298.298 287.133 303.042L281.192 306.527C274.943 309.392 267.362 310.823 259.767 310.823" fill="#59529C"/>
<path d="M258.735 277.153C258.735 277.153 257.815 277.351 257.724 277.927C257.633 278.503 257.346 280.629 257.62 281.109C257.894 281.588 259.582 283.091 262.711 283.699C265.839 284.307 272.488 286.877 276.948 286.624C281.905 285.519 281.791 283.488 281.791 283.488L281.874 280.957C281.874 280.957 281.389 279.168 280.058 278.841C277.939 278.318 258.735 277.153 258.735 277.153Z" fill="#4D4640"/>
<path d="M242.986 293.444C242.986 293.444 242.446 294.198 242.376 294.664C242.307 295.132 242.293 296.36 242.314 296.56C242.335 296.761 244.754 299.147 245.608 300.451C246.461 301.754 249.269 304.696 251.565 305.883C253.861 307.07 257.516 306.511 259.564 306.144C261.611 305.777 263.955 303.844 264.224 303.093C264.492 302.341 264.151 300.322 264.151 300.322C264.151 300.322 263.073 299.223 262.842 299.259C262.61 299.294 242.986 293.444 242.986 293.444" fill="#4D4640"/>
<path d="M282.883 181.653C281.984 182.053 281.258 182.23 280.934 182.015C280.837 181.951 280.735 181.877 280.633 181.801V181.796C279.421 180.87 277.987 179.035 276.239 177.375C274.529 175.751 272.646 174.067 271.991 173.263C271.92 173.174 271.862 173.098 271.82 173.032C271.408 172.367 274.057 166.52 280.3 168.17C280.3 168.17 281.65 169.009 283.449 171.456C285.255 173.904 288.881 175.907 289.287 176.789C289.591 177.446 285.51 180.496 282.883 181.653Z" fill="#FCC7AA"/>
<path d="M284.134 182.44L282.06 181.969C282.31 181.892 282.587 181.784 282.883 181.653C283.21 181.862 283.64 182.133 284.134 182.44" fill="#378D89"/>
<path d="M282.06 181.969L280.373 181.587C279.218 180.612 277.865 178.917 276.239 177.375C275.467 176.642 274.66 175.897 273.947 175.226C274.381 174.975 274.979 174.626 275.709 174.187C275.807 174.13 275.907 174.069 276.01 174.007C275.915 175.143 281.438 178.839 281.517 179.719C281.547 180.024 281.783 180.127 282.082 180.128C282.083 180.128 282.084 180.128 282.084 180.128C282.64 180.128 283.418 179.781 283.418 179.781C283.418 179.781 282.076 180.983 282.229 181.205C282.254 181.242 282.497 181.401 282.884 181.653C282.588 181.784 282.31 181.892 282.06 181.969" fill="#F7A57F"/>
<path d="M281.382 168.279C281.382 168.279 280.193 171.424 277.534 173.075C276.86 173.491 276.25 173.867 275.709 174.187C274.109 175.148 273.146 175.681 273.146 175.681C273.146 175.681 271.013 173.953 269.302 172.215C268.288 171.188 267.423 170.161 267.228 169.481C266.71 167.654 265.895 152.718 265.895 152.718L268.281 151.167C268.281 151.167 272.388 153.364 274.962 158.733C277.54 164.098 281.382 168.279 281.382 168.279" fill="#59529C"/>
<path d="M273.146 175.681C273.146 175.681 272.814 175.412 272.308 174.98C272.294 174.283 272.295 173.724 272.315 173.339C272.372 172.259 272.548 170.395 272.614 168.146C272.614 168.146 272.68 170.111 273.289 171.308C274.064 172.836 275.442 173.714 275.709 174.187C274.979 174.626 274.381 174.975 273.947 175.226C273.43 175.524 273.146 175.681 273.146 175.681Z" fill="#385199"/>
<path d="M268.954 274.239C268.954 274.239 269.801 273.797 272.067 275.354C274.332 276.912 280.398 278.453 280.836 279.46C281.273 280.468 281.061 282.56 279.036 283.616C277.011 284.672 273.825 284.713 271.026 283.97C268.227 283.227 261.249 281.915 259.261 280.728C257.273 279.541 258.242 276.46 258.261 275.882C258.28 275.303 268.954 274.239 268.954 274.239" fill="#B8B5B3"/>
<path d="M255.126 291.559C255.126 291.559 257.21 294.015 257.467 294.566C257.725 295.118 263.291 299.208 263.428 300.027C263.564 300.846 263.026 302.348 259.56 303.755C256.094 305.162 252.269 304.278 250.666 303.465C249.065 302.653 247.434 300.211 245.255 297.941C243.076 295.672 242.468 295.191 242.519 294.433C242.572 293.674 242.891 290.508 242.891 290.508C242.891 290.508 250.657 287.125 255.126 291.559" fill="#B8B5B3"/>
<path d="M260.429 278.277C258.602 277.445 257.624 275.984 257.552 275.425C257.514 275.137 257.434 272.977 257.346 270.148C257.765 264.089 258.091 258.887 258.129 257.708C258.23 254.602 259.342 242.764 259.723 242.125C260.101 241.491 264.487 233.998 265.686 231.661C264.143 235.557 262.116 240.78 261.904 241.835C261.556 243.562 261.765 255.004 261.343 259.046C261.053 261.829 260.585 271.771 260.429 278.277Z" fill="#59529C"/>
<path d="M275.426 221.104C275.218 226.417 272.606 244.356 271.982 248.027C271.354 251.698 269.945 268.299 269.809 270.18C269.679 272.056 269.654 274.951 269.654 274.951C269.654 274.951 268.532 278.315 264.246 278.827C262.716 279.007 261.444 278.74 260.429 278.277C258.603 277.445 257.625 275.984 257.552 275.425C257.437 274.553 256.94 256.513 256.998 254.705C257.046 253.221 258.666 234.968 259.243 228.473C259.372 227.052 259.447 226.195 259.447 226.195C259.447 226.195 259.306 224.431 259.451 222.234C259.646 219.309 260.353 215.614 262.585 214.28C264.179 213.328 266.517 212.211 268.76 211.236C272.024 209.815 275.075 208.693 275.283 208.831C275.283 208.831 275.313 209.392 275.348 210.314C275.374 210.988 275.402 211.857 275.431 212.844C275.495 215.265 275.536 218.398 275.426 221.104Z" fill="#7BBDBF"/>
<path d="M267.448 227.25C267.431 227.758 266.872 229.329 265.712 231.61C264.552 233.888 260.105 241.486 259.723 242.125C259.342 242.764 258.231 254.602 258.13 257.708C258.029 260.819 255.928 291.945 255.389 292.87C254.856 293.795 249.224 295.492 246.864 294.621C246.448 294.463 246.023 294.276 245.61 294.054C243.693 293.05 241.997 291.491 242.152 290.485C242.335 289.261 239.661 264.706 239.863 262.905C240.07 261.102 240.414 252.645 240.266 250.542C240.117 248.435 239.569 243.136 239.127 241.094C238.686 239.05 237.864 233.234 237.276 229.016C236.692 224.802 237.686 216.435 237.686 216.435C237.686 216.435 238.916 216.153 240.87 215.766C247.973 214.355 264.677 211.517 266.815 215.503C269.546 220.587 267.464 226.742 267.448 227.25" fill="#599EA0"/>
<path d="M245.609 294.054C243.775 293.092 242.144 291.624 242.142 290.617C242.142 290.572 242.146 290.527 242.151 290.485C242.157 290.444 242.16 290.378 242.16 290.287C242.16 287.755 239.853 266.36 239.852 263.193C239.852 263.068 239.856 262.972 239.863 262.905C240.035 261.405 240.302 255.298 240.302 252.077C240.302 251.427 240.29 250.894 240.266 250.542C240.117 248.435 239.569 243.136 239.127 241.094C238.686 239.05 237.864 233.234 237.276 229.016C237.143 228.061 237.093 226.893 237.092 225.657C237.092 223.086 237.313 220.222 237.485 218.378C237.949 219.293 238.949 221.024 240.118 221.621C240.231 221.683 240.346 221.731 240.462 221.766C240.096 226.497 239.611 232.909 239.571 234.159C239.504 236.185 242.836 244.979 242.836 244.979C242.836 244.979 241.597 260.86 241.451 265.347C241.345 268.605 244.295 283.497 245.609 294.054" fill="#7BBDBF"/>
<path d="M276.37 208.792C276.37 208.792 275.756 209.932 275.383 210.28L275.348 210.314C275.057 210.586 273.803 211.77 272.358 213.296C271.085 214.639 269.665 216.244 268.626 217.734C266.604 220.621 261.908 221.714 259.451 222.234C259.136 222.297 258.86 222.354 258.628 222.402C256.586 222.844 242.569 222.096 240.698 221.818C240.499 221.79 240.306 221.723 240.118 221.621C238.5 220.796 237.208 217.796 237.208 217.796C237.208 217.796 235.946 209.863 235.742 207.325C235.534 204.786 236.125 197.709 236.229 194.529C236.332 191.349 234.4 188.533 233.815 186.49L233.769 186.336C233.634 185.919 233.351 185.137 232.977 184.104C231.664 180.535 229.19 173.966 227.773 169.181C226.933 166.335 226.467 164.122 226.837 163.548C226.887 163.467 226.96 163.374 227.055 163.269L227.185 163.113C227.478 162.788 227.9 162.371 228.424 161.884C232.056 158.528 240.383 151.969 241.299 151.156C241.429 151.043 241.663 150.924 241.979 150.808V150.804C244.431 149.912 251.986 149.046 256.393 149.476C261.372 149.964 268.282 151.167 268.282 151.167C274.03 157.325 272.506 169.728 272.315 173.339C272.128 176.95 273.606 195.964 273.666 198.499L273.677 198.686C273.854 201.396 276.37 208.792 276.37 208.792" fill="#2E416E"/>
<path d="M272.358 213.296C273.803 211.77 275.057 210.586 275.348 210.314C275.374 210.988 275.403 211.857 275.431 212.844C274.309 213.011 273.139 213.187 272.358 213.296Z" fill="#59529C"/>
<path d="M240.118 221.621C238.499 220.796 237.208 217.796 237.208 217.796C237.208 217.796 235.945 209.863 235.741 207.325C235.711 206.948 235.698 206.471 235.698 205.922C235.698 204.617 235.774 202.903 235.869 201.151C236.63 201.167 237.402 201.175 238.158 201.175C240.07 201.175 241.889 201.119 243.224 200.981C247.061 200.584 250.98 199.393 252.976 199.393C253.189 199.393 253.381 199.407 253.549 199.436C255.276 199.745 256.027 200.025 256.95 200.598C257.874 201.172 260.312 201.793 260.312 201.793L260.334 201.79L260.854 201.698L261.697 201.548C261.697 201.548 261.852 201.6 262.096 201.682L262.109 201.687C262.655 201.866 263.631 202.175 264.423 202.367C264.816 202.462 265.165 202.529 265.391 202.537C266.297 202.566 266.514 202.573 266.514 202.573C266.514 202.573 266.589 202.584 266.717 202.606H266.726C267.288 202.698 268.835 202.949 269.684 203.002C270.446 203.053 271.286 203.125 271.796 203.125C271.814 203.125 271.83 203.125 271.847 203.125C272.013 203.122 272.138 203.108 272.213 203.084C272.39 203.026 272.588 202.645 272.589 202.312C272.589 202.234 272.579 202.158 272.554 202.09L274.469 202.566C275.266 205.545 276.37 208.792 276.37 208.792C276.37 208.792 275.756 209.932 275.383 210.28L275.348 210.314C275.057 210.586 273.802 211.77 272.358 213.296C271.859 213.364 271.519 213.41 271.446 213.41C271.445 213.41 271.443 213.41 271.442 213.41C271.269 213.404 269.917 212.238 268.76 211.237C268.012 210.592 267.345 210.018 267.128 209.867C266.576 209.489 263.669 207.658 263.669 207.658L256.857 203.452L249.435 202.399L243.19 203.081L238.201 205.16L240.29 207.682L251.076 212.025L246.679 211.517L239.735 209.118L247.207 213.045L246.169 213.889L239.443 211.428C239.443 211.428 240.431 218.036 240.118 221.621V221.621ZM242.094 192.32C240.903 192.175 239.63 191.984 238.274 191.738C238.274 191.738 237.073 191.304 235.608 190.959C235.564 190.833 235.519 190.707 235.473 190.582C235.712 189.502 235.955 187.943 236.155 186.515C236.382 186.517 236.587 186.517 236.728 186.517C236.85 186.517 236.923 186.517 236.923 186.517C236.923 186.517 238.93 178.257 239.213 176.243C239.298 175.635 239.524 174.6 239.67 173.335L239.673 173.33L240.246 177.866L240.194 181.703C240.194 181.703 240.438 185.312 240.578 185.508C240.716 185.699 242.242 187.776 242.214 188.644C242.195 189.214 242.134 191.097 242.094 192.32" fill="#71529C"/>
<path d="M224.044 181.971C224.044 181.971 223.636 190.065 224.085 194.061C224.533 198.056 224.802 198.716 226.157 199.34C227.512 199.963 234.537 193.171 235.165 191.671C235.793 190.172 236.607 182.96 236.607 182.96L224.044 181.971" fill="#FCC7AA"/>
<path d="M298.085 187.751L296.365 195.62C296.365 195.62 293.947 193.566 291.007 191.037C286.461 187.133 280.671 182.102 280.633 181.801V181.796C280.64 181.588 281.262 180.918 282.082 180.128C283.014 179.238 284.208 178.191 285.064 177.498C286.683 176.196 289.288 176.789 289.288 176.789C289.288 176.789 291.24 177.916 293.478 180.921C295.712 183.926 298.085 187.751 298.085 187.751" fill="#FCC7AA"/>
<path d="M278.108 181.073L254.041 191.616L283.612 198.733L306.076 187.414L278.108 181.073" fill="#FEBA6F"/>
<path d="M278.421 182.496L258.241 191.335L283.036 197.303L301.871 187.812L278.421 182.496" fill="#FEFFC5"/>
<path d="M299.878 188.816L260.6 191.903L258.241 191.335L260.399 190.39L299.925 187.371L301.871 187.812L299.878 188.816" fill="#70BAE7"/>
<path d="M283.738 204.872L306.205 193.444L306.076 187.414L283.612 198.733L254.041 191.615L253.851 197.437L283.738 204.872" fill="#B66B3D"/>
<path d="M283.612 198.733L283.824 203.516L306.17 191.784L306.076 187.414L283.612 198.733Z" fill="#E2934C"/>
<path d="M269.851 201.217C268.828 200.966 267.878 200.733 267.878 200.733L267.831 200.701L267.482 200.486L267.337 200.398L263.621 198.08C263.621 198.08 265.701 198.638 266.317 198.658C266.429 198.662 266.623 198.708 266.869 198.776L266.891 198.781L266.895 198.786C267.957 199.094 269.89 199.869 270.185 199.904C270.2 199.907 270.216 199.908 270.233 199.908C270.337 199.908 270.461 199.865 270.579 199.793L269.874 200.481L269.851 201.217V201.217ZM270.912 199.467C270.95 199.405 270.977 199.339 270.992 199.272C270.985 199.354 270.958 199.42 270.912 199.467ZM270.955 198.985C270.95 198.974 270.944 198.963 270.937 198.952C270.664 198.509 267.076 196.438 266.25 196.158C265.542 195.918 262.331 194.274 261.362 193.567C261.362 193.567 268.12 196.018 269.339 196.946C270.207 197.607 270.803 198.442 270.955 198.985" fill="#59529C"/>
<path d="M308.002 192.5C308.002 192.5 307.389 193.834 307.3 194.049C307.21 194.263 307.093 196.269 307.093 196.269C307.093 196.269 307.033 196.376 306.954 196.517C306.848 196.692 306.711 196.922 306.634 197.04C306.487 197.253 305.746 197.607 305.495 197.708C305.249 197.808 304.376 198.73 304.131 198.797C303.885 198.858 302.878 199.008 302.036 198.98C301.194 198.952 300.064 198.724 299.848 198.657C299.634 198.585 298.351 197.439 298.351 197.439L300.537 196.326L300.533 196.317C300.504 196.163 299.932 193.578 299.998 193.159C300.046 192.848 300.349 192.354 300.505 192.111C300.569 192.018 300.61 191.959 300.61 191.959C300.61 191.959 300.597 191.685 300.613 191.355C300.629 190.956 300.684 190.48 300.849 190.337C301.144 190.087 301.91 190.446 301.983 190.479L301.987 190.483C301.987 190.483 301.987 190.483 302.136 190.028C302.286 189.568 302.668 189.58 303.205 189.738C303.744 189.889 305.36 191.84 305.36 191.84L306.19 192.653L306.17 191.784C306.17 191.784 305.955 191.182 305.966 190.856C305.976 190.531 306.129 189.858 306.129 189.858C306.129 189.858 306.466 189.626 307.091 189.646C307.712 189.666 307.886 190.185 308.063 190.599C308.241 191.013 308.002 192.5 308.002 192.5" fill="#FCC7AA"/>
<path d="M272.213 203.084C272.138 203.108 272.012 203.122 271.847 203.125C271.343 203.13 270.473 203.054 269.684 203.002C268.835 202.948 267.288 202.698 266.726 202.606H266.717C266.588 202.584 266.514 202.573 266.514 202.573C266.514 202.573 266.297 202.566 265.391 202.537C265.165 202.529 264.815 202.461 264.423 202.366C263.63 202.175 262.655 201.865 262.109 201.687L262.096 201.682C261.851 201.6 261.697 201.548 261.697 201.548L260.854 201.698L260.334 201.79L260.312 201.793C260.312 201.793 257.874 201.172 256.95 200.598C256.027 200.025 255.276 199.745 253.549 199.436C251.821 199.128 247.471 200.541 243.223 200.98C238.974 201.424 229.794 201.016 228.428 200.681C227.066 200.345 225.599 199.794 225.026 198.454C224.655 197.578 224.729 196.239 225.215 195.048C225.47 194.421 225.837 193.83 226.316 193.372C227.697 192.044 231.517 190.358 233.68 190.611C235.844 190.859 238.274 191.738 238.274 191.738C248.493 193.59 254.02 192.32 254.872 192.131C255.73 191.942 258.881 189.495 259.912 189.69C260.943 189.888 263.57 190.717 263.57 190.717C263.57 190.717 265.441 190.995 266.021 191.048C266.597 191.102 267.257 191.922 267.095 192.495C266.933 193.067 264.899 193.257 264.139 193.232C263.38 193.207 261.11 192.894 261.11 192.894C261.11 192.894 260.927 192.91 261.088 193.311C261.249 193.716 265.429 195.88 266.25 196.158C267.075 196.438 270.664 198.509 270.936 198.952C271.213 199.396 270.543 199.956 270.185 199.904C269.89 199.869 267.957 199.094 266.894 198.786L266.89 198.781L266.869 198.776C266.623 198.708 266.429 198.662 266.316 198.658C265.7 198.638 263.621 198.08 263.621 198.08L267.337 200.398L267.481 200.485L267.831 200.701L267.877 200.733C267.877 200.733 271.647 201.655 272.255 201.818C272.866 201.985 272.507 202.986 272.213 203.084" fill="#FCC7AA"/>
<path d="M247.435 227.369C244.992 227.369 243.711 227.019 243.711 227.019L246.606 224.824C246.606 224.824 251.69 222.49 252.673 222.49C252.676 222.49 252.681 222.49 252.685 222.49C253.635 222.511 255.42 222.579 255.42 222.579C255.42 222.579 254.449 226.826 250.21 227.231C249.163 227.331 248.237 227.369 247.435 227.369Z" fill="#7BBDBF"/>
<path d="M303.83 197.219L303.166 196.545L301.185 192.573L300.505 192.111C300.569 192.018 300.61 191.959 300.61 191.959C300.61 191.959 300.605 191.849 300.605 191.685C300.605 191.59 300.607 191.476 300.613 191.355C300.658 191.396 301.447 192.107 301.596 192.507C301.742 192.92 303.83 197.219 303.83 197.219" fill="#F7A57F"/>
<path d="M305.154 196.584L304.293 194.602L301.987 190.483C301.987 190.483 301.987 190.483 302.136 190.028L303.751 193.012L305.176 195.908L305.154 196.584Z" fill="#F7A57F"/>
<path d="M302.247 198.983C302.176 198.983 302.105 198.982 302.036 198.98C301.655 198.968 301.215 198.913 300.826 198.853C300.358 198.779 299.966 198.694 299.848 198.657C299.634 198.585 298.351 197.439 298.351 197.439L300.537 196.326L300.75 197.527L302.822 198.167L304.284 198.215L305.127 197.426C305.127 197.426 306.369 197.006 306.936 196.534L306.954 196.517C306.848 196.692 306.711 196.922 306.634 197.04C306.537 197.181 306.179 197.384 305.875 197.533C305.721 197.611 305.58 197.673 305.495 197.708C305.249 197.808 304.376 198.73 304.131 198.797C303.906 198.853 303.038 198.983 302.247 198.983" fill="#F7A57F"/>
<path d="M306.787 193.923L306.19 192.653L306.17 191.784C306.17 191.784 305.965 191.21 305.965 190.88C305.965 190.872 305.966 190.864 305.966 190.856C305.976 190.531 306.129 189.858 306.129 189.858C306.129 189.858 306.404 190.601 306.478 190.873C306.551 191.149 307.411 191.446 307.411 191.446C307.411 191.446 307.641 191.81 307.585 191.942C307.525 192.075 306.969 193.252 306.969 193.252L306.787 193.923" fill="#F7A57F"/>
<path d="M260.312 201.793C260.312 201.793 257.874 201.172 256.95 200.598C256.027 200.025 255.276 199.745 253.549 199.436C253.381 199.407 253.189 199.393 252.976 199.393C250.98 199.393 247.061 200.584 243.224 200.981C241.889 201.119 240.07 201.175 238.158 201.175C233.98 201.175 229.365 200.91 228.428 200.681C227.066 200.345 225.599 199.794 225.026 198.454C224.87 198.085 224.792 197.633 224.792 197.145C224.791 196.474 224.934 195.736 225.215 195.048C225.396 196.955 225.887 198.548 226.966 198.879C229.524 199.652 232.961 199.974 236.981 199.974C237.692 199.974 238.42 199.964 239.166 199.945C244.06 199.817 252.989 198.804 254.108 198.804C254.125 198.804 254.139 198.804 254.152 198.805C255.054 198.834 259.847 201.666 259.847 201.666L260.334 201.79L260.312 201.793" fill="#F7A57F"/>
<path d="M260.854 201.698L259.162 200.449L262.096 201.682C261.852 201.6 261.697 201.548 261.697 201.548L260.854 201.698" fill="#F7A57F"/>
<path d="M266.717 202.606C266.588 202.584 266.514 202.573 266.514 202.573C266.514 202.573 266.297 202.566 265.391 202.537C265.165 202.529 264.815 202.462 264.423 202.366L264.179 202.028C264.179 202.028 260.995 199.502 261.175 199.502C261.178 199.502 261.181 199.502 261.186 199.503C261.469 199.586 263.911 201.329 263.911 201.329L266.717 202.606" fill="#F7A57F"/>
<path d="M267.337 200.398C266.157 199.7 263.541 198.246 263.541 198.246L260.445 196.656L262.705 197.272L266.869 198.776C266.623 198.708 266.429 198.662 266.316 198.658C265.7 198.638 263.621 198.08 263.621 198.08L267.337 200.398" fill="#F7A57F"/>
<path d="M271.847 203.125L271.966 202.934C272.102 202.104 270.589 201.873 270.589 201.873C270.589 201.873 268.255 201.019 267.877 200.733C267.877 200.733 271.647 201.655 272.255 201.818C272.501 201.885 272.59 202.087 272.589 202.312C272.588 202.645 272.39 203.026 272.213 203.084C272.138 203.108 272.013 203.122 271.847 203.125Z" fill="#F7A57F"/>
<path d="M239.213 176.242C238.93 178.257 236.924 186.517 236.924 186.517C236.924 186.517 234.969 186.527 234.685 186.444C234.629 186.429 234.283 186.392 233.769 186.336C231.738 186.135 227.048 185.717 226.824 185.536C226.709 185.446 225.997 185.162 225.193 184.811C223.998 184.285 222.6 183.619 222.699 183.231C222.868 182.584 224.926 166.075 226.837 163.548C226.909 163.455 226.981 163.362 227.055 163.269L227.185 163.113C227.556 162.668 227.969 162.243 228.424 161.884C229.222 161.251 230.148 160.803 231.228 160.738C232.725 160.648 234.502 161.292 236.598 163.198C241.335 167.508 239.496 174.224 239.213 176.242" fill="#59529C"/>
<path d="M226.837 163.548C226.887 163.467 226.96 163.374 227.055 163.269C226.981 163.362 226.909 163.455 226.837 163.548ZM228.424 161.884C231.707 158.851 238.825 153.199 240.84 151.541C240.58 152.005 240.369 152.296 240.418 152.539C240.423 152.566 240.433 152.601 240.447 152.644L238.766 154.656C238.766 154.656 233.95 158.382 231.228 160.738C230.148 160.803 229.222 161.25 228.424 161.884" fill="#71529C"/>
<path d="M225.193 184.811C224.037 184.302 222.692 183.662 222.694 183.27C222.694 183.256 222.696 183.243 222.699 183.231C222.868 182.584 224.926 166.075 226.837 163.548C226.909 163.455 226.981 163.362 227.055 163.269L227.185 163.113C227.556 162.668 227.969 162.243 228.424 161.884C229.222 161.251 230.148 160.803 231.228 160.738C230.308 161.538 229.63 162.176 229.456 162.461C229.195 162.896 228.513 165.675 227.773 169.181C226.612 174.694 225.297 181.999 225.193 184.811" fill="#385199"/>
<path d="M256.62 150.787C256.62 150.787 258.342 152.905 258.226 154.802C258.109 156.698 257.753 160.269 250.028 158.606C242.304 156.943 240.53 153.097 240.418 152.539C240.305 151.979 241.57 151.165 241.654 148.561C241.74 145.959 239.865 140.197 239.315 138.714C238.767 137.23 247.725 132.202 251.129 132.693C254.534 133.184 256.62 150.787 256.62 150.787Z" fill="#FCC7AA"/>
<path d="M258.162 155.543C258.195 155.28 258.213 155.03 258.227 154.802C258.342 152.905 256.62 150.787 256.62 150.787C256.62 150.787 256.565 150.329 256.46 149.56C257.97 149.701 259.771 149.87 259.894 149.886C260.107 149.914 260.904 150.926 260.904 150.926L259.248 153.424C259.248 153.424 258.737 154.604 258.162 155.543" fill="#2E416E"/>
<path d="M257.064 156.681C256.977 156.681 256.898 156.639 256.83 156.548C256.158 155.64 255.273 153.783 255.273 153.783C255.273 153.783 251.985 153.078 250.97 152.557C249.956 152.035 245.205 148.281 245.205 148.281C245.325 147.832 245.918 147.661 246.749 147.661C249.376 147.661 254.385 149.368 254.385 149.368C254.385 149.368 255.344 149.456 256.46 149.56C256.565 150.329 256.62 150.787 256.62 150.787C256.62 150.787 258.342 152.905 258.227 154.802C258.213 155.03 258.195 155.28 258.162 155.543C257.781 156.165 257.372 156.681 257.064 156.681" fill="#F7A57F"/>
<path d="M255.107 158.89L255.956 157.094C255.956 157.094 257.241 156.321 257.443 155.133C257.645 153.946 256.812 151.041 256.812 151.041L258.097 150.079C258.097 150.079 259.515 153.198 259.47 154.578C259.425 155.958 258.049 160.256 258.049 160.256L256.998 158.81L255.107 158.89Z" fill="#599E9F"/>
<path d="M255.184 128.211C255.184 128.211 257.363 129.639 257.873 133.999C258.382 138.358 259.129 142.074 259.059 144.243C258.988 146.412 258.34 150.227 257.705 150.822C257.068 151.416 254.759 152.355 252.662 152.015C250.565 151.675 244.692 148.66 243.777 146.731C242.863 144.801 240.075 141.941 239.248 139.906C238.42 137.871 236.863 134.02 238.308 131.298C239.755 128.576 255.184 128.211 255.184 128.211Z" fill="#FCC7AA"/>
<path d="M247.115 133.445C247.115 133.445 243.754 134.949 243.726 135.817C243.698 136.685 242.701 138.951 242.837 139.774C242.973 140.597 243.762 143.039 243.762 143.039L242.713 143.005C242.713 143.005 241.548 139.357 241.186 138.774C240.826 138.193 240.393 137.511 239.674 137.821C238.955 138.132 240.196 142.542 240.196 142.542L239.318 142.514C239.318 142.514 237.666 141.863 236.34 139.268C235.012 136.674 238.05 130.909 238.05 130.909L247.115 133.445" fill="#4A2727"/>
<path d="M241.028 138.525C241.028 138.525 239.754 137.208 238.589 137.388C237.425 137.567 237.494 139.659 238.082 140.763C238.67 141.868 241.108 144.267 241.642 144.273C242.174 144.279 242.537 143.949 242.551 143.542C242.564 143.135 241.946 141.269 241.946 141.269C241.946 141.269 241.63 139.184 241.028 138.525" fill="#FFD6BF"/>
<path d="M253.766 130.644C253.766 130.644 254.793 133.537 255.009 134.701C255.224 135.866 254.944 136.69 254.944 136.69C254.944 136.69 251.144 136.675 250.412 136.94C249.679 137.205 247.792 137.362 247.24 138.755C246.688 140.149 247.583 141.553 249.269 142.006C250.956 142.459 251.981 142.094 251.981 142.094C251.981 142.094 251.431 144.537 250.507 145.122C249.583 145.708 246.789 143.699 245.662 142.757C244.534 141.816 243.729 138.785 243.729 138.785C243.729 138.785 244.028 136.262 244.214 136.122C244.399 135.984 244.417 135.442 244.417 135.442C244.417 135.442 247.765 133.777 248.799 133.124C249.834 132.469 252.013 130.007 253.766 130.644" fill="#FFD6BF"/>
<path d="M253.708 135.781L254.677 139.846L254.895 141.646L254.499 142.574C254.499 142.574 256.089 142.627 256.632 142.644C257.174 142.662 257.298 142.195 257.298 142.195L254.944 136.69L253.708 135.781Z" fill="#FFD6BF"/>
<path d="M244.018 133.547C244.018 133.547 240.897 135.155 239.947 135.993C238.997 136.83 236.566 139.689 236.566 139.689C236.566 139.689 235.471 140.081 234.333 135.864C233.194 131.647 233.533 130.708 235.047 127.554C236.561 124.401 239.15 122.712 242.479 121.59C245.809 120.468 250.825 122.043 251.891 122.657C252.957 123.271 255.836 127.092 255.9 127.347C255.964 127.603 246.542 132.977 244.018 133.547" fill="#97D2D2"/>
<path d="M255.732 127.509L260.525 127.57C260.525 127.57 262.191 128.638 262.6 129.411C263.01 130.185 262.446 130.82 260.808 131.109C259.17 131.399 256.881 130.417 256.881 130.417C256.881 130.417 256.33 129.407 254.059 129.269C251.789 129.131 254.116 127.507 254.116 127.507L255.732 127.509Z" fill="#2E416E"/>
<path d="M260.525 127.57C260.525 127.57 256.16 126.855 255.517 126.759C254.873 126.662 249.539 128.19 247.065 129.702C244.591 131.213 241.955 134.675 241.955 134.675C241.955 134.675 246.693 134.466 247.967 134.254C249.24 134.043 252.131 129.721 254.871 128.942C257.611 128.163 259.476 127.572 260.525 127.57" fill="#59529C"/>
<path d="M264.448 164.727L263.859 173.184C263.849 173.327 264.539 173.405 264.629 173.398C265.011 173.373 265.355 173.143 265.715 173.031C266.134 172.899 266.585 172.917 267.024 172.895C267.327 172.881 267.629 172.845 267.928 172.791C268.096 172.76 268.27 172.72 268.402 172.612C268.506 172.527 268.576 172.408 268.671 172.316C268.796 172.195 268.961 172.122 269.113 172.037C269.338 171.911 269.919 171.557 269.942 171.27C269.957 171.092 269.671 170.72 269.587 170.55L264.448 164.727Z" fill="#FEDE36"/>
<path d="M266.184 167.566C266.234 167.925 265.984 168.257 265.624 168.308C265.265 168.359 264.932 168.109 264.882 167.75C264.831 167.39 265.082 167.058 265.441 167.007C265.801 166.956 266.133 167.206 266.184 167.566Z" fill="#2E416E"/>
<path d="M266.771 169.703C266.821 170.062 266.571 170.394 266.211 170.445C265.852 170.496 265.519 170.245 265.469 169.886C265.418 169.527 265.669 169.194 266.028 169.143C266.388 169.093 266.72 169.343 266.771 169.703Z" fill="#2E416E"/>
<path d="M265.859 171.489C265.911 171.848 265.66 172.18 265.301 172.23C264.941 172.282 264.609 172.031 264.558 171.672C264.508 171.312 264.758 170.98 265.118 170.929C265.477 170.879 265.809 171.129 265.859 171.489Z" fill="#2E416E"/>
<path d="M268.862 170.64C268.912 171 268.663 171.332 268.303 171.383C267.943 171.433 267.611 171.183 267.561 170.824C267.509 170.464 267.76 170.132 268.119 170.082C268.479 170.03 268.811 170.281 268.862 170.64Z" fill="#2E416E"/>
<path d="M253.57 157.396C253.57 157.396 245.202 156.145 243.22 154.398C241.238 152.651 241.069 150.528 241.069 150.528C241.069 150.528 238.863 151.187 238.862 151.744C238.861 152.301 238.815 153.185 238.815 153.185C238.815 153.185 240.118 157.228 243.1 158.086C246.082 158.943 254.552 161.119 254.552 161.119L255.107 158.89L253.57 157.396" fill="#599E9F"/>
<defs>
<linearGradient id="paint0_linear" x1="165.907" y1="321.957" x2="332.699" y2="50.6177" gradientUnits="userSpaceOnUse">
<stop stop-color="#8A8C8E"/>
<stop offset="0.0405405" stop-color="#868686"/>
<stop offset="0.618794" stop-color="#868686"/>
<stop offset="0.648637" stop-color="#AFAFAF"/>
<stop offset="0.666318" stop-color="#AFAFAF"/>
<stop offset="0.707113" stop-color="#DEDEDE"/>
<stop offset="0.976552" stop-color="#DEDEDE"/>
<stop offset="1" stop-color="#F9F9F9"/>
</linearGradient>
<linearGradient id="paint1_linear" x1="170.782" y1="324.954" x2="337.34" y2="53.9964" gradientUnits="userSpaceOnUse">
<stop stop-color="#B3B3B3"/>
<stop offset="0.0405405" stop-color="#BDBDBD"/>
<stop offset="0.618794" stop-color="#BDBDBD"/>
<stop offset="0.648637" stop-color="#D5D5D5"/>
<stop offset="0.666318" stop-color="#D5D5D5"/>
<stop offset="0.707113" stop-color="#F0F0F0"/>
<stop offset="0.976552" stop-color="#F0F0F0"/>
<stop offset="1" stop-color="white"/>
</linearGradient>
<linearGradient id="paint2_linear" x1="302.157" y1="260.89" x2="306.51" y2="260.89" gradientUnits="userSpaceOnUse">
<stop stop-color="#6E6E6E"/>
<stop offset="0.161336" stop-color="#6E6E6E"/>
<stop offset="0.163257" stop-color="#858585"/>
<stop offset="0.559309" stop-color="#858585"/>
<stop offset="0.56219" stop-color="#C7C7C7"/>
<stop offset="0.872769" stop-color="#C7C7C7"/>
<stop offset="0.873853" stop-color="#B8B8B8"/>
<stop offset="1" stop-color="#B8B8B8"/>
</linearGradient>
<linearGradient id="paint3_linear" x1="302.548" y1="251.815" x2="306.096" y2="251.815" gradientUnits="userSpaceOnUse">
<stop stop-color="#6E6E6E"/>
<stop offset="0.161336" stop-color="#6E6E6E"/>
<stop offset="0.163257" stop-color="#858585"/>
<stop offset="0.559309" stop-color="#858585"/>
<stop offset="0.56219" stop-color="#C7C7C7"/>
<stop offset="0.872769" stop-color="#C7C7C7"/>
<stop offset="0.873853" stop-color="#B8B8B8"/>
<stop offset="1" stop-color="#B8B8B8"/>
</linearGradient>
<linearGradient id="paint4_linear" x1="302.157" y1="124.398" x2="306.51" y2="124.398" gradientUnits="userSpaceOnUse">
<stop stop-color="#6E6E6E"/>
<stop offset="0.161336" stop-color="#6E6E6E"/>
<stop offset="0.163257" stop-color="#858585"/>
<stop offset="0.559309" stop-color="#858585"/>
<stop offset="0.56219" stop-color="#C7C7C7"/>
<stop offset="0.872769" stop-color="#C7C7C7"/>
<stop offset="0.873853" stop-color="#B8B8B8"/>
<stop offset="1" stop-color="#B8B8B8"/>
</linearGradient>
<linearGradient id="paint5_linear" x1="302.548" y1="115.323" x2="306.096" y2="115.323" gradientUnits="userSpaceOnUse">
<stop stop-color="#6E6E6E"/>
<stop offset="0.161336" stop-color="#6E6E6E"/>
<stop offset="0.163257" stop-color="#858585"/>
<stop offset="0.559309" stop-color="#858585"/>
<stop offset="0.56219" stop-color="#C7C7C7"/>
<stop offset="0.872769" stop-color="#C7C7C7"/>
<stop offset="0.873853" stop-color="#B8B8B8"/>
<stop offset="1" stop-color="#B8B8B8"/>
</linearGradient>
<linearGradient id="paint6_linear" x1="373.937" y1="236.136" x2="370.639" y2="230.423" gradientUnits="userSpaceOnUse">
<stop stop-color="#B3B3B2"/>
<stop offset="0.161336" stop-color="#B3B3B2"/>
<stop offset="0.163257" stop-color="#D7D7D7"/>
<stop offset="0.559309" stop-color="#D7D7D7"/>
<stop offset="0.56219" stop-color="white"/>
<stop offset="0.872769" stop-color="white"/>
<stop offset="0.873853" stop-color="#F1F1F1"/>
<stop offset="1" stop-color="#F1F1F1"/>
</linearGradient>
<linearGradient id="paint7_linear" x1="373.016" y1="239.922" x2="366.882" y2="229.298" gradientUnits="userSpaceOnUse">
<stop stop-color="#999999"/>
<stop offset="0.161336" stop-color="#999999"/>
<stop offset="0.163257" stop-color="#B0B0B0"/>
<stop offset="0.559309" stop-color="#B0B0B0"/>
<stop offset="0.56219" stop-color="#EDEDEC"/>
<stop offset="0.872769" stop-color="#EDEDEC"/>
<stop offset="0.873853" stop-color="#DFDFDE"/>
<stop offset="1" stop-color="#DFDFDE"/>
</linearGradient>
</defs>
</svg>
