<svg width="31" height="31" viewBox="0 0 31 31" fill="none" xmlns="http://www.w3.org/2000/svg">
<g clip-path="url(#clip0)">
<path d="M11.3018 22.7488V28.7396C11.3018 29.1581 11.5704 29.5288 11.9683 29.6605C12.0677 29.6928 12.1698 29.7083 12.2705 29.7083C12.5728 29.7083 12.8647 29.5662 13.0507 29.3131L16.555 24.5443L11.3018 22.7488Z" fill="white"/>
<path d="M30.5932 0.178807C30.2961 -0.0317343 29.906 -0.060151 29.5831 0.109057L0.520599 15.2861C0.177016 15.4657 -0.0257759 15.8325 0.00264078 16.2187C0.0323491 16.6062 0.289391 16.9369 0.654933 17.0622L8.73431 19.8238L25.9406 5.11168L12.6261 21.1529L26.1666 25.7809C26.2674 25.8145 26.3733 25.8326 26.4792 25.8326C26.6549 25.8326 26.8293 25.7848 26.983 25.6918C27.2284 25.542 27.395 25.2901 27.4376 25.0072L30.9897 1.11139C31.0427 0.749724 30.8903 0.390641 30.5932 0.178807V0.178807Z" fill="white"/>
</g>
<defs>
<clipPath id="clip0">
<rect width="31" height="31" fill="white"/>
</clipPath>
</defs>
</svg>
