<svg width="37" height="37" viewBox="0 0 37 37" fill="none" xmlns="http://www.w3.org/2000/svg">
<path d="M27.632 12.6914C23.3338 10.2873 16.435 6.42698 5.73446 0.435494C5.01303 -0.0409539 4.18299 -0.103391 3.46582 0.139349L21.8249 18.4985L27.632 12.6914Z" fill="#32BBFF"/>
<path d="M3.46588 0.139465C3.33147 0.184993 3.20067 0.239915 3.07558 0.306255C2.28362 0.734646 1.70166 1.55898 1.70166 2.60156V34.3956C1.70166 35.4382 2.28354 36.2625 3.07558 36.6908C3.20045 36.7571 3.33118 36.8123 3.46545 36.8581L21.825 18.4986L3.46588 0.139465Z" fill="#32BBFF"/>
<path d="M21.8249 18.4986L3.46533 36.8581C4.18271 37.1026 5.01276 37.045 5.7344 36.5616C16.1116 30.7507 22.9326 26.936 27.2806 24.5115C27.4016 24.4435 27.5202 24.377 27.6374 24.3112L21.8249 18.4986Z" fill="#32BBFF"/>
<path d="M1.70166 18.4986V34.3956C1.70166 35.4382 2.28354 36.2625 3.07558 36.6909C3.20045 36.7571 3.33118 36.8123 3.46545 36.8581L21.825 18.4986H1.70166Z" fill="#2C9FD9"/>
<path d="M5.73463 0.435611C4.87792 -0.130085 3.86764 -0.11397 3.07568 0.306328L21.5465 18.7772L27.6321 12.6915C23.3339 10.2875 16.4352 6.42709 5.73463 0.435611Z" fill="#29CC5E"/>
<path d="M21.5466 18.2201L3.07568 36.6908C3.86772 37.111 4.87792 37.1353 5.73463 36.5615C16.1119 30.7507 22.9329 26.936 27.2808 24.5115C27.4019 24.4435 27.5204 24.377 27.6377 24.3112L21.5466 18.2201Z" fill="#D93F21"/>
<path d="M35.2982 18.4986C35.2982 17.6177 34.8537 16.7287 33.9727 16.2357C33.9727 16.2357 32.3252 15.3164 27.275 12.4916L21.2681 18.4986L27.2809 24.5115C32.2756 21.707 33.9727 20.7614 33.9727 20.7614C34.8537 20.2685 35.2982 19.3795 35.2982 18.4986Z" fill="#FFD500"/>
<path d="M33.9727 20.7615C34.8537 20.2685 35.2982 19.3795 35.2982 18.4986H21.2681L27.2809 24.5115C32.2757 21.7071 33.9727 20.7615 33.9727 20.7615Z" fill="#FFAA00"/>
</svg>
