<svg width="40" height="40" viewBox="0 0 40 40" fill="none" xmlns="http://www.w3.org/2000/svg">
<path d="M10.667 11.6671V5.00045C10.6692 4.26498 11.2649 3.66931 12.0003 3.66711H28.0003C28.7358 3.66931 29.3315 4.26498 29.3337 5.00045V11.6671" fill="#3B97D3"/>
<path d="M8 22.4794V12.9995C8.0022 12.264 8.59787 11.6683 9.33333 11.6661H30.6667C31.4021 11.6683 31.9978 12.264 32 12.9995V22.4794H8Z" fill="#D1D4D1"/>
<path d="M35.1134 25.1727L26.6201 38.1127C25.4735 38.0994 24.3308 38.2498 23.2267 38.5594C21.1202 39.1462 18.8933 39.1462 16.7867 38.5594H16.7801C15.6738 38.2494 14.5289 38.099 13.3801 38.1127L4.88673 25.1727C4.65333 24.8197 4.6026 24.3763 4.7502 23.9797C4.8978 23.583 5.22598 23.2807 5.6334 23.1661L20.0001 18.9994L34.3667 23.1661C34.7742 23.2807 35.1023 23.583 35.2499 23.9797C35.3975 24.3763 35.3468 24.8197 35.1134 25.1727Z" fill="#C03A2B"/>
<path d="M22.6673 16.9998C23.4037 16.9998 24.0007 16.4029 24.0007 15.6665C24.0007 14.9301 23.4037 14.3331 22.6673 14.3331C21.9309 14.3331 21.334 14.9301 21.334 15.6665C21.334 16.4029 21.9309 16.9998 22.6673 16.9998Z" fill="#3B97D3"/>
<path d="M17.3333 16.9998C18.0697 16.9998 18.6667 16.4029 18.6667 15.6665C18.6667 14.9301 18.0697 14.3331 17.3333 14.3331C16.597 14.3331 16 14.9301 16 15.6665C16 16.4029 16.597 16.9998 17.3333 16.9998Z" fill="#3B97D3"/>
<path d="M12.0003 16.9998C12.7367 16.9998 13.3337 16.4029 13.3337 15.6665C13.3337 14.9301 12.7367 14.3331 12.0003 14.3331C11.2639 14.3331 10.667 14.9301 10.667 15.6665C10.667 16.4029 11.2639 16.9998 12.0003 16.9998Z" fill="#3B97D3"/>
<path d="M25.3333 9.00017C26.0697 9.00017 26.6667 8.40321 26.6667 7.66683C26.6667 6.93045 26.0697 6.3335 25.3333 6.3335C24.597 6.3335 24 6.93045 24 7.66683C24 8.40321 24.597 9.00017 25.3333 9.00017Z" fill="#B0D3F0"/>
<path d="M20.0003 9.00017C20.7367 9.00017 21.3337 8.40321 21.3337 7.66683C21.3337 6.93045 20.7367 6.3335 20.0003 6.3335C19.2639 6.3335 18.667 6.93045 18.667 7.66683C18.667 8.40321 19.2639 9.00017 20.0003 9.00017Z" fill="#B0D3F0"/>
<path d="M14.6663 9.00017C15.4027 9.00017 15.9997 8.40321 15.9997 7.66683C15.9997 6.93045 15.4027 6.3335 14.6663 6.3335C13.93 6.3335 13.333 6.93045 13.333 7.66683C13.333 8.40321 13.93 9.00017 14.6663 9.00017Z" fill="#B0D3F0"/>
<path d="M28.0003 16.9998C28.7367 16.9998 29.3337 16.4029 29.3337 15.6665C29.3337 14.9301 28.7367 14.3331 28.0003 14.3331C27.2639 14.3331 26.667 14.9301 26.667 15.6665C26.667 16.4029 27.2639 16.9998 28.0003 16.9998Z" fill="#3B97D3"/>
<path d="M18.0007 0.333252H22.0007C22.3689 0.333252 22.6673 0.631729 22.6673 0.999919V3.66659H17.334V0.999919C17.334 0.631729 17.6325 0.333252 18.0007 0.333252Z" fill="#285680"/>
<path d="M35.1133 25.1727L30.9933 31.4461L20 27.6661V18.9994L34.3667 23.1661C34.7741 23.2807 35.1023 23.583 35.2499 23.9797C35.3975 24.3763 35.3467 24.8197 35.1133 25.1727Z" fill="#E64C3C"/>
<path d="M29.2533 34.1001L26.62 38.1134C25.4734 38.1001 24.3308 38.2505 23.2267 38.5601C22.1779 38.8505 21.0949 38.9985 20.0067 39.0001H20V31.0001L29.2533 34.1001Z" fill="#E64C3C"/>
<path d="M20.0002 27.6665V30.9998L10.7468 34.0999L9.00684 31.4465L20.0002 27.6665Z" fill="#D1D4D1"/>
<path d="M30.9933 31.4465L29.2533 34.0999L20 30.9998V27.6665L30.9933 31.4465Z" fill="white"/>
<path d="M7.11154 39.6668C5.96454 39.6654 4.82302 39.5084 3.71821 39.2002L0.488877 38.3095C0.259274 38.2459 0.0810394 38.0647 0.0213114 37.834C-0.0384165 37.6034 0.0294367 37.3584 0.199311 37.1914C0.369186 37.0243 0.615274 36.9606 0.844877 37.0242L4.07354 37.9169C6.06225 38.4749 8.16617 38.4749 10.1549 37.9169C12.3799 37.2925 14.7338 37.2925 16.9589 37.9169C18.9498 38.4755 21.056 38.4755 23.0469 37.9169C25.2706 37.2927 27.6232 37.2927 29.8469 37.9169C31.8379 38.4762 33.9445 38.4762 35.9355 37.9169L39.1549 37.0255C39.3845 36.9619 39.6306 37.0257 39.8004 37.1927C39.9703 37.3598 40.0382 37.6047 39.9784 37.8354C39.9187 38.066 39.7405 38.2473 39.5109 38.3109L36.2915 39.2002C34.0679 39.8249 31.7152 39.8249 29.4915 39.2002C27.5011 38.6415 25.3953 38.6415 23.4049 39.2002C21.1812 39.8245 18.8286 39.8245 16.6049 39.2002C14.6142 38.6416 12.5082 38.6416 10.5175 39.2002C9.40851 39.5089 8.26275 39.6659 7.11154 39.6668Z" fill="#2FA8CC"/>
</svg>
