<svg width="40" height="40" viewBox="0 0 40 40" fill="none" xmlns="http://www.w3.org/2000/svg">
<path d="M25.7352 2H15L18.531 39.5418H22.2042L25.7352 2Z" fill="#A95E2C"/>
<path d="M18.6495 14.4372L15.1185 1.77392C14.7525 0.461185 13.3767 -0.292018 12.0735 0.106888L8.34456 1.24837C7.23347 1.58845 6.51995 2.66908 6.64355 3.82447L7.13659 8.43322C7.34784 10.4081 6.41316 12.33 4.72995 13.3845C4.71323 13.3949 4.69659 13.4053 4.67987 13.4158C3.25198 14.3084 2.34269 15.8394 2.25206 17.5209C1.91542 23.7687 1.91597 30.0165 2.25378 36.2642C2.3523 38.0857 3.77073 39.5556 5.58519 39.7433C9.93995 40.1938 14.2947 40.0513 18.6494 39.3158C19.2436 31.0229 19.2436 22.73 18.6495 14.4372Z" fill="#FCB143"/>
<path d="M21.4456 14.4372L24.9765 1.774C25.3426 0.461185 26.7184 -0.292018 28.0215 0.106888L31.7504 1.24837C32.8615 1.58845 33.575 2.66908 33.4515 3.82447L32.9584 8.43322C32.7472 10.4081 33.6818 12.33 35.365 13.3845C35.3818 13.3949 35.3984 13.4053 35.4151 13.4158C36.843 14.3084 37.7523 15.8394 37.8429 17.5209C38.1796 23.7687 38.179 30.0165 37.8412 36.2642C37.7427 38.0857 36.3243 39.5556 34.5098 39.7433C30.1551 40.1938 25.8003 40.0513 21.4456 39.3158C20.8515 31.0229 20.8515 22.73 21.4456 14.4372Z" fill="#FCB143"/>
<path d="M39.1515 30H1.52031C1.23297 30 1 30.233 1 30.5203V32.6369C1 32.9242 1.23297 33.1572 1.52031 33.1572H39.1515C39.4388 33.1572 39.6718 32.9242 39.6718 32.6369V30.5203C39.6718 30.2329 39.4388 30 39.1515 30Z" fill="#695E66"/>
<path d="M26.166 29H14.0738C13.4808 29 13 29.4808 13 30.0738V33.6548C13 34.2479 13.4808 34.7287 14.0738 34.7287H26.166C26.759 34.7287 27.2398 34.2479 27.2398 33.6548V30.0738C27.2397 29.4808 26.759 29 26.166 29Z" fill="#453E43"/>
<path d="M39.1515 19H1.52031C1.23297 19 1 19.233 1 19.5203V21.6369C1 21.9242 1.23297 22.1572 1.52031 22.1572H39.1515C39.4388 22.1572 39.6718 21.9242 39.6718 21.6369V19.5203C39.6718 19.2329 39.4388 19 39.1515 19Z" fill="#695E66"/>
<path d="M26.166 17H14.0738C13.4808 17 13 17.4808 13 18.0738V21.6548C13 22.2479 13.4808 22.7287 14.0738 22.7287H26.166C26.759 22.7287 27.2398 22.2479 27.2398 21.6548V18.0738C27.2397 17.4808 26.759 17 26.166 17Z" fill="#453E43"/>
</svg>
