<svg width="40" height="40" viewBox="0 0 40 40" fill="none" xmlns="http://www.w3.org/2000/svg">
<path d="M20 40C31.0158 40 40 31.0154 40 20C40 8.98422 31.0158 0 20 0C8.98422 0 0 8.98461 0 20C0 31.0154 8.98461 40 20 40Z" fill="#FF757C"/>
<path d="M20.0005 9.97217C29.7768 9.97217 37.7012 17.8969 37.7012 27.6729C37.7012 28.2867 37.6698 28.8929 37.6092 29.4904C34.2292 35.7482 27.6118 40 20.0005 40C12.3893 40 5.77215 35.7486 2.39215 29.4908C2.33113 28.8933 2.2998 28.2867 2.2998 27.6729C2.2998 17.8966 10.225 9.97217 20.0005 9.97217Z" fill="#0E7886"/>
<path d="M31.0593 13.8525C34.3509 16.4899 36.6802 20.2777 37.4361 24.6074C37.3827 24.5255 37.3282 24.4179 37.2734 24.2585C36.9277 24.3717 36.9165 24.3811 36.5084 24.449L36.4903 24.4739C36.328 24.7053 36.4986 24.6074 36.2132 24.8485C35.8737 25.1342 35.6525 25.5243 35.2729 25.7556C35.227 26.1598 35.3064 26.2507 35.2046 26.7313C35.165 26.9085 34.9665 27.3849 34.7341 27.3488C34.6605 27.335 34.3487 26.5636 34.2751 26.3503C34.1503 25.9874 34.0088 25.7196 33.9182 25.302C33.8674 25.0794 33.8331 24.6529 33.7822 24.5031C33.5386 24.5392 33.5495 24.694 33.3171 24.5306C33.1528 24.4122 33.2268 24.34 33.1356 24.1628C32.9432 23.9813 32.7448 23.7999 32.5467 23.6183C32.3933 23.5685 31.8041 23.6544 31.5543 23.6273C31.1069 23.5861 31.0675 23.6135 30.8013 23.2553C30.3304 23.2784 30.3704 23.4548 29.9111 23.06C29.6108 22.806 29.6675 22.3975 29.2312 22.6288C29.2146 23.0009 29.3957 23.0831 29.56 23.2553C29.6787 23.387 29.8263 23.4775 29.8883 23.6543C29.8941 23.6594 29.9226 23.8268 29.9284 23.8496C30.3535 23.877 30.4552 23.6731 30.6876 23.5006C30.9146 23.7135 30.6934 23.7503 31.0221 23.9178C31.2827 24.0498 31.2318 23.9726 31.4014 24.1855C31.4865 24.4713 30.8182 25.2474 30.5967 25.3881C30.4268 25.4971 30.3365 25.4336 30.1832 25.5599C29.9565 25.7512 30.2117 25.7238 29.8151 25.8688C29.39 26.0233 28.9704 26.3499 28.5229 26.3773C28.4266 26.1135 28.3303 25.8465 28.2339 25.5788C27.9503 24.6666 27.9618 25.0206 27.6724 24.5485C27.5364 24.3439 27.593 24.2126 27.5025 24.0311C27.4396 23.8951 27.344 23.8359 27.2586 23.6685C27.1283 23.4097 26.9757 23.006 26.675 23.0467C26.6126 23.2506 26.9525 23.9406 27.0373 24.1083C27.1225 24.2764 27.2585 24.349 27.2982 24.5896C27.3548 24.9205 27.287 24.8794 27.4681 25.1017C27.8481 25.5596 27.4511 25.4784 28.0407 25.9273C28.4824 26.2636 28.3695 26.3631 28.5564 26.8128C28.8454 26.8939 29.7068 26.5089 29.8536 26.6222C30.0293 26.935 29.65 27.4341 29.5537 27.7065C29.2361 28.6187 28.6808 28.6053 28.2557 29.3039C28.0237 29.681 27.9158 29.7308 27.7004 30.1847C27.4565 30.6974 28.1933 32.1178 27.7517 32.7128C27.6553 32.8485 27.3436 32.9303 26.9528 33.3435C26.5389 33.7924 26.9639 33.7156 26.8052 34.4639C26.6807 34.6364 26.5277 34.6454 26.3747 34.7685C26.3181 34.9449 26.3636 35.0853 26.2668 35.3036C26.1647 35.5667 26.1481 35.426 26.0002 35.6396C25.8927 35.807 25.9042 35.8752 25.7793 36.0296C25.6718 36.1707 25.6148 36.2108 25.5134 36.3021C25.0201 36.756 23.9604 36.7693 23.8698 36.7058C23.6201 36.4929 23.7904 36.4384 23.7283 36.1389C23.6677 35.8755 23.5281 35.655 23.4115 35.4519L23.3996 35.431C23.3433 35.3313 23.2921 35.2357 23.2636 35.1448C23.0594 34.5003 23.1334 34.011 22.7765 33.3572C22.3287 32.5128 23.0255 32.073 22.997 31.5963C22.9858 31.4692 22.9407 31.392 22.9288 31.292C22.844 30.7656 22.7935 30.2939 22.442 29.8808C22.0563 29.4319 22.1075 29.5903 22.232 28.851C22.3904 28.0023 22.0281 28.2199 21.5178 28.1974C21.2682 27.4263 20.7807 27.8023 20.2936 28.0296C19.9872 28.17 19.8743 27.9888 19.5282 28.0386C18.7575 28.1429 19.364 28.4745 18.3324 27.6576C17.9015 27.317 18.1906 27.4895 17.9358 27.0629C17.8511 26.9085 17.5901 26.7046 17.4707 26.5498C17.0799 26.0598 17.5446 25.565 17.4764 25.0025C17.3574 23.9586 17.1874 24.8661 17.7713 23.6046C18.0776 22.9331 18.5421 22.9288 18.6615 22.6289C18.7636 22.3615 18.6954 22.1706 18.8882 21.9256C19.0581 21.7261 19.3021 21.7669 19.3984 21.4537C19.5344 21.068 19.2736 21.0185 18.9903 21.0088C18.8715 20.605 18.8715 20.7046 18.9618 20.3325C19.013 20.1236 18.9675 20.0236 19.013 19.8151C19.1263 19.2933 20.0161 19.8108 20.2713 19.5971C20.39 19.3749 20.4073 19.1573 20.2713 18.9436C20.1291 18.7303 19.9425 18.7574 19.8462 18.5535C20.0616 18.4085 19.9029 18.5355 20.0898 18.4944C20.3107 18.4446 20.2821 18.3807 20.543 18.3313C20.7757 18.2854 20.9233 18.0725 21.1496 17.9275C21.4725 17.7186 21.3195 17.5321 21.7107 17.4692C22.3396 17.3599 21.9315 17.3783 22 16.7927C22.0961 16.7566 22.1866 16.7151 22.2771 16.6747C22.4756 16.9335 22.2263 16.8292 22.4641 17.0013C22.5265 16.9652 22.6001 16.9291 22.6683 16.893C22.634 16.6112 22.5041 16.6656 22.4189 16.3167C22.1071 16.3665 21.9939 16.6296 21.7446 16.5343C21.501 16.4438 21.4895 16.0941 21.501 15.8036C21.5915 15.586 22.0447 15.4681 22.2201 15.4132C22.5041 15.318 22.464 15.1274 22.7246 14.8684C23.0648 14.5281 22.8151 14.8731 22.9796 14.4332C23.3539 14.4192 23.1781 14.4058 23.3989 14.2925L23.4101 14.2882L23.4329 14.2788C23.5635 14.2197 23.7334 14.2063 23.9034 14.1475C24.5266 13.9389 24.7817 14.0432 25.2349 14.2287C25.5864 14.3741 26.6461 14.3785 26.7255 14.8237C26.4707 15.0907 26.2271 14.8959 25.8584 14.9189C25.9262 15.2635 25.9544 15.2635 26.2665 15.3588C26.3178 15.1953 26.2438 15.2592 26.3289 15.1546C26.4311 15.1773 26.5332 15.1953 26.635 15.2141C26.7375 14.8644 26.8561 14.9146 27.2022 14.8735C27.1452 14.6328 27.0828 14.701 27.2131 14.5105C27.5707 14.5473 27.2813 14.5156 27.457 14.8013C27.7064 14.7692 27.9503 14.4924 28.2956 14.4563C28.511 14.4336 28.4998 14.5155 28.8054 14.4834C29.0548 14.4563 29.0432 14.3654 29.2933 14.47C29.3836 14.3019 29.2933 14.3062 29.5142 14.2658C29.8537 14.2067 30.1489 14.4152 30.4773 14.461C30.2341 14.1619 30.0014 14.2203 30.3019 13.7213C30.6815 13.6442 30.7154 13.6986 30.88 13.9848C30.9731 13.9324 31.0128 13.8798 31.0589 13.8531L31.0593 13.8525ZM11.9971 38.3327C11.4075 38.075 10.8331 37.7896 10.2749 37.4785C10.268 37.4554 10.2619 37.4302 10.2564 37.401C10.1717 36.8969 10.3871 36.8424 10.1486 36.0027C9.9923 35.4474 10.0551 34.1317 9.8898 33.4573C9.86348 33.3498 9.83098 33.2585 9.79168 33.1888C9.63871 32.9352 9.26449 32.8172 8.96465 32.6126C8.9473 32.6086 8.93613 32.6036 8.93074 32.5946C8.51684 32.3041 8.12574 31.1649 7.79699 30.7388C7.64434 30.5342 7.54801 30.6247 7.4798 30.3029C7.40621 30.0081 7.51949 30.0582 7.61621 29.8125C7.11176 28.887 8.26785 28.9003 8.03012 27.7885C7.97887 27.5843 7.83199 27.2985 7.70715 27.2083C7.46902 27.3126 7.58191 27.371 7.45746 27.571C7.26512 27.462 7.07246 27.3527 6.88551 27.2444C6.30168 26.6815 6.61309 27.0896 6.44926 26.7223C6.09777 25.9508 5.76293 26.3824 5.34363 26.001C5.15637 25.8418 5.12246 25.5921 4.81105 25.638C4.34051 25.7015 4.60105 25.774 4.11395 25.5467C3.70004 25.3514 3.26957 25.1249 2.9802 24.8614C2.96902 24.453 3.1166 24.4346 2.86145 24.0538C2.81637 23.9831 2.76543 23.9174 2.71387 23.8546C3.51129 20.2263 5.4209 17.0156 8.06801 14.598C8.27371 14.6698 8.54574 14.6225 8.74996 14.6142C8.82324 14.4782 8.86871 14.3599 8.99934 14.31C9.0502 14.292 9.11262 14.2877 9.19746 14.292C9.20863 14.3595 9.22598 14.428 9.24293 14.4959C9.24293 14.501 9.25449 14.546 9.24871 14.5371C9.25449 14.5277 9.25988 14.5641 9.26527 14.5774C9.62285 14.3688 9.3223 14.3642 9.51465 13.9874C9.21441 13.9283 9.2541 13.9643 9.06684 13.7738C9.24871 13.5743 9.59941 13.5061 9.86035 13.5245C9.84301 13.7063 9.75824 13.7017 9.82676 13.8557C10.0307 13.7287 10.1725 13.3888 10.5008 13.452C10.5632 13.4971 10.6372 13.5382 10.705 13.579C10.5347 13.7378 10.28 13.7471 10.0591 13.8378C9.96238 14.8228 10.3709 13.9969 10.2345 14.6731C10.4781 14.655 10.7162 14.4778 10.8068 14.2963C10.7162 14.1784 10.5856 14.1784 10.5123 14.0376C10.5693 13.8561 10.6913 13.7186 10.8638 13.6367C10.9804 13.5815 11.1196 13.552 11.2777 13.552C13.0797 13.5657 12.2238 13.6472 12.7795 13.9017C12.9039 13.9558 13.1248 13.9835 13.1988 14.0922C13.3121 14.2647 13.2046 14.4278 13.3857 14.5642C13.5445 14.6821 13.5672 14.5595 13.7769 14.8232C13.7318 14.9726 13.6239 15.1271 13.4031 15.1317C13.0971 15.136 13.2782 14.9271 12.9495 14.9592C12.9557 15.2674 13.2613 15.3857 12.9776 15.5535C12.7282 15.7036 12.8867 15.4994 12.7001 15.6037C12.6943 15.6084 12.6774 15.6174 12.672 15.6221C12.6608 15.6311 12.6493 15.6449 12.6435 15.6538C12.6099 15.6903 12.5811 15.7221 12.5532 15.7542C12.1 15.6311 12.1852 15.686 11.9128 15.3864C11.8111 15.2731 11.794 15.2457 11.6125 15.2594C11.4993 15.2637 11.352 15.3135 11.2441 15.2139C11.4653 14.9371 11.5732 15.2049 11.8961 15.0411C11.9528 15.0137 12.3096 14.7373 12.3667 14.6734C12.2704 14.4554 12.3551 14.6366 12.214 14.4962C11.8964 14.1743 11.8052 14.2555 11.3754 14.2555C11.1737 14.4875 11.0229 14.7744 10.8032 14.9003C10.6704 14.9765 10.5127 14.9938 10.3041 14.9046C10.4004 15.2951 10.6498 14.9956 10.6721 15.4672C10.5079 15.4355 10.4228 15.3535 10.2529 15.4128C9.88988 15.5488 10.2132 15.5351 10.2413 15.608C10.2413 15.6127 10.4112 15.6307 10.2413 15.6942C10.054 15.7621 10.2128 15.6578 9.85051 15.4446C9.90137 15.354 9.95262 15.2587 10.0035 15.1635C9.70902 15.2544 9.34027 15.3995 8.99496 15.5672C8.60348 15.7624 8.23535 15.9851 8.01418 16.1889C8.0084 16.5296 8.07082 16.3022 8.10512 16.7067C8.63191 16.7381 8.46199 16.8965 8.98918 17.0467C9.09059 17.0745 9.22152 17.1015 9.38035 17.1285C9.38035 17.3829 9.1534 17.5735 9.31176 17.8369C9.68019 18.0949 9.69137 17.5915 9.7823 17.2696C11.0297 17.0091 10.4286 16.6425 10.7508 15.9562C10.7992 15.8537 10.8677 15.7444 10.9666 15.6263C11.0626 15.631 11.4537 15.6722 11.5389 15.6899C11.8225 15.7396 11.6695 15.8078 11.9755 15.9439C11.9697 16.1893 11.8453 16.5068 12.2079 16.448C12.4857 16.3985 12.4236 16.1803 12.7632 16.1257C12.9158 16.4844 12.8764 16.6388 12.9443 17.0697C13.7606 17.3876 13.3975 17.646 13.2388 18.241C13.3413 18.2908 13.4485 18.3363 13.5564 18.3814C13.551 18.5539 13.5448 18.7221 13.5394 18.8902C13.5225 18.8902 12.6662 18.7036 12.6099 18.686C12.7401 18.3135 12.9783 18.3092 13.1313 17.9282C12.8253 17.9824 12.8477 18.0776 12.6268 18.1458C12.4287 18.2049 12.2757 18.1638 12.0661 18.1913C11.9925 18.436 12.0603 17.9777 12.0834 18.2905C12.0946 18.4088 12.1516 18.2956 12.0718 18.4222C11.7882 18.2905 11.8849 17.982 11.3577 18.2678C11.4768 18.3222 11.5955 18.3721 11.7204 18.4222C11.7038 18.7711 11.6753 18.5081 11.6016 18.7398C11.4201 19.3341 12.0945 18.9664 12.2703 18.935C12.2248 19.2482 12.0321 19.2482 11.76 19.3341C11.4602 19.425 11.3693 19.5477 11.1311 19.6022C11.1311 19.2298 11.0747 19.5431 11.2386 19.2846C11.0004 19.307 10.8246 19.416 10.5981 19.5116L10.5757 19.5203C10.2846 19.639 10.2405 19.6567 10.207 20.0287C9.95762 20.1056 9.66863 20.1925 9.49285 20.374C9.31746 20.5418 9.14137 20.7092 8.97105 20.8727C8.95449 20.8864 8.94254 20.9001 8.93207 20.9092C8.99449 21.3764 8.93207 21.3855 8.64809 21.5677C8.41027 21.7214 8.3309 21.7171 8.11004 21.9123C7.40168 22.5478 7.74199 22.2522 7.78098 23.3463C7.63379 23.3012 7.4923 23.251 7.35629 23.2012C7.2484 22.4748 7.39559 22.7159 6.81215 22.5477C6.18285 22.3662 6.26762 22.6747 6.00715 22.7292C5.71809 22.7923 5.57629 22.4657 5.15699 22.7381C4.92496 22.8966 4.70379 23.0012 4.64715 23.2823C4.57934 23.6229 4.42629 23.8719 4.44871 24.249C4.48879 25.2706 5.41793 25.329 5.65605 24.8527C5.81449 24.5351 5.77512 24.3627 6.29074 24.4442C6.3416 24.7167 6.26223 24.9162 6.19402 25.1252C6.14895 25.2475 6.0241 25.4698 6.08652 25.6383C6.45496 25.7881 6.46613 25.5063 6.95363 25.7967C6.98793 26.2821 6.73277 26.8266 7.1066 27.1081C7.39527 27.3213 7.41262 27.1308 7.66738 27.0857C7.95098 27.036 7.90012 27.2128 8.16098 27.2538C8.30816 27.072 8.24574 27.186 8.34246 26.963C8.51238 26.578 8.55754 26.7591 8.9602 26.5235C8.99949 26.5007 9.03348 26.4776 9.07348 26.4506C9.11855 26.5458 9.1698 26.6367 9.21457 26.7274C9.50941 26.3781 9.54332 26.7184 9.88355 26.8136C10.03 26.8537 10.1339 26.8681 10.2144 26.8692C10.4616 26.8728 10.4868 26.7526 10.8243 26.8721C10.8643 26.8908 10.9152 26.9042 10.9607 26.9179C10.9661 26.9179 10.983 26.9269 10.983 26.9363C10.9892 26.941 11.0057 26.9544 11.0115 26.9595C11.0682 27.0226 11.0743 27.0865 11.1194 27.1543C11.3518 27.3766 11.5842 27.5992 11.8108 27.8168C12.2582 27.994 12.2582 27.6624 12.7685 28.1567C12.9839 28.361 12.8872 28.357 13.0063 28.6197C13.0236 28.6609 13.0575 28.7013 13.0799 28.7514C13.1254 28.8741 13.1762 28.9917 13.2275 29.1097C13.4595 29.4139 13.777 29.2234 14.1 29.5366C14.2869 29.7181 14.1454 29.6636 14.5589 29.7361C15.1994 29.8404 14.9504 29.7816 15.4376 30.1492C15.6246 30.2853 15.6696 30.2081 15.8454 30.326C16.0893 30.6663 16.0268 31.034 15.823 31.3335C15.1937 32.2501 15.4091 32.1003 15.3806 32.8267C15.3579 33.2438 15.2388 34.1062 14.8476 34.2105C13.4255 34.6103 14.2526 34.8871 13.8788 35.5903C13.7713 35.7903 13.6915 35.84 13.6237 35.9992C13.3408 36.6613 13.5389 36.8839 12.7 36.7342C12.7797 36.8746 12.7285 36.7792 12.8079 36.9063C13.0572 37.292 13.0969 37.5828 12.5867 37.6774C12.1616 37.7592 12.3431 37.6774 12.3034 38.1493C12.1389 38.2175 12.0653 38.1493 11.9577 38.2583L11.9978 38.333L11.9971 38.3327ZM8.26207 14.4244C8.37176 14.4099 8.37137 14.3624 8.65863 14.2927C8.6359 14.1974 8.61855 14.1974 8.59621 14.1613L8.58723 14.1433C8.47793 14.2356 8.36926 14.3299 8.26207 14.4248V14.4244ZM23.4106 19.687L23.3994 19.679C23.3597 19.652 23.3204 19.6249 23.2864 19.5931C23.0371 19.3705 22.9855 19.1713 22.7084 19.2211C22.7022 19.43 22.7311 19.4387 22.8328 19.5751C23.2182 20.0561 23.0992 19.893 23.3993 20.0698L23.4105 20.0763C23.4816 20.1171 23.5639 20.1741 23.6768 20.256C23.2914 20.5955 23.6487 20.632 23.4105 20.7456L23.3993 20.751C23.3762 20.7597 23.3543 20.7691 23.3373 20.7781C23.2575 20.5781 23.4333 20.6738 23.2294 20.3833C23.1161 20.2335 23.0086 20.1881 22.8328 20.1058C22.3904 19.8972 22.4475 19.7342 22.1754 19.4617C21.8691 19.471 21.9376 19.5663 21.7222 19.6753C21.4617 19.8019 21.5014 19.6529 21.195 19.6796C20.9457 20.1202 21.3025 19.7524 20.8493 20.1154C20.3052 20.5372 20.753 20.9774 19.8805 21.1095C19.8181 21.1185 19.7954 21.1096 19.7333 21.1319C19.5684 21.1907 19.6647 21.1409 19.5684 21.2362C19.6424 21.409 19.5403 21.3813 19.835 21.4224C20.3734 21.4946 20.4416 21.1636 20.8328 21.0817C21.0251 21.041 22.2325 20.9908 22.3173 21.0135C22.5779 21.3044 22.3628 21.5086 22.3628 21.7533C22.6468 21.9031 23.0487 21.9395 23.2132 22.0939C23.4002 22.2707 23.3096 22.2433 23.4002 22.2751L23.4114 22.2787C23.4457 22.2885 23.4951 22.3061 23.5817 22.3389C23.8083 22.4158 23.7968 22.4613 24.0403 22.4793C24.2614 21.7396 24.0345 21.8168 25.1 22.1567C26.2107 22.5205 25.712 22.1888 26.1825 22.2386C26.4153 22.2617 26.3528 22.3338 26.6758 22.2931C26.7379 22.166 27.1968 21.0131 26.6018 21.1586C26.4261 21.2037 26.5455 21.2672 26.2958 21.2037C26.0353 21.1362 26.2846 21.086 25.996 21.1265C25.712 21.1677 25.3725 21.4174 25.1512 20.5596C25.0664 20.2507 24.9131 19.9834 24.562 20.4503C24.6525 20.609 24.715 20.6228 24.8168 20.7772C24.7886 20.8223 24.6923 20.936 24.6583 20.9724C24.466 21.163 24.7381 21.0724 24.426 21.1128C24.2561 20.9858 24.2903 20.8224 24.1257 20.5957C23.8367 20.1731 24.0236 20.3688 23.8764 19.9646C23.7605 19.8629 23.5682 19.7867 23.4112 19.6868H23.4106V19.687ZM29.4633 31.9046C29.2143 32.0317 29.18 32.3225 28.9932 32.4856C28.7893 32.6717 28.5168 32.5859 28.4379 32.9305C28.3357 33.3613 28.6078 33.23 28.3076 33.7925C28.2001 34.0011 28.1943 34.5228 28.3589 34.6777C28.8514 35.1536 29.1181 33.9517 29.2314 33.5749C29.3165 33.3072 29.3959 33.0034 29.4864 32.7533C29.577 32.4856 29.7073 32.25 29.4633 31.9046ZM28.6475 19.2431C28.6871 19.7973 29.0155 20.0103 29.2482 20.2642C29.2201 20.5277 29.1573 20.4595 29.1631 20.8268C29.4409 21.0271 29.6444 21.1491 30.0079 21.0498C30.0587 20.6049 29.9169 20.6272 29.7812 20.3234C29.8039 20.287 29.866 20.2418 29.8772 20.2328C29.9797 20.0968 29.9285 20.287 29.9797 20.0556C29.7134 19.9698 29.2826 19.697 29.249 19.339C29.3793 19.2347 29.3396 19.2978 29.4356 19.2347C29.6453 19.0983 29.4868 19.3069 29.6113 19.0756C29.5038 18.867 29.3846 18.8306 29.1242 18.9349C29.0109 18.9803 28.7103 19.1936 28.6479 19.2434L28.6475 19.2431ZM26.3294 19.3885C26.154 19.1438 26.1649 19.0208 25.825 19.0118C25.6893 19.1572 25.5305 19.3748 25.4569 19.5971C25.3436 19.9331 25.423 19.7014 25.4342 20.0648C25.4284 20.0781 25.4342 20.0969 25.4342 20.1103C25.4284 20.3278 25.3771 20.0691 25.4114 20.269C25.6781 20.2142 25.4743 20.2188 25.6727 20.1553C25.8596 20.0918 26.4319 19.9193 26.5964 19.9605C26.9872 20.051 27.316 20.3599 27.7583 20.051C27.7352 19.6563 27.2593 19.5065 26.9306 19.3337C26.9479 18.971 27.0439 19.2568 27.0211 18.9072C26.9079 18.9025 26.8396 18.8845 26.7321 18.9299C26.477 19.0432 26.6188 19.0753 26.6188 19.1161C26.63 19.311 26.8739 19.0753 26.6134 19.316C26.5398 19.3792 26.4204 19.3792 26.3298 19.3885H26.3294ZM19.7098 16.6385C19.6989 17.274 19.9198 17.0603 20.1291 17.3739C20.0331 17.6417 20.0158 17.4331 19.9086 17.7095C19.8123 17.9411 19.931 17.7326 19.8686 18.136C20.0331 18.1453 20.2767 18.0865 20.4921 18.0681C20.7984 18.0407 20.7923 18.0137 20.9002 17.7004C20.7303 17.4918 20.5603 17.2829 20.3846 17.0743C20.163 16.738 20.3846 16.9697 20.3168 16.6882C20.2659 16.5883 20.22 16.489 20.175 16.3887C19.8801 16.4892 19.9086 16.4617 19.7098 16.6385Z" fill="#15BDB1"/>
<path d="M30.9111 15.5145L30.7397 15.3431L30.0332 14.6365L29.8618 14.4651C29.3043 14.6766 28.6064 15.5906 28.3311 16.1672L28.4166 16.2531L29.1232 16.9596L29.209 17.0455C29.7857 16.7698 30.6996 16.0723 30.9111 15.5148V15.5145Z" fill="#FBB429"/>
<path d="M30.911 15.5145L30.7396 15.3431L30.033 14.6365L29.8616 14.4651C29.7328 14.5142 29.5971 14.6004 29.46 14.7112L30.6648 15.916C30.7756 15.7792 30.8618 15.6432 30.9109 15.5148V15.5145H30.911Z" fill="white"/>
<path d="M32.0938 18.874L31.9223 18.7026L31.2158 17.996L31.0444 17.8246C30.4869 18.0361 29.789 18.9501 29.5137 19.5267L29.5995 19.6126L30.3061 20.3191L30.392 20.405C30.9686 20.1293 31.8826 19.4318 32.0941 18.874H32.0938Z" fill="#FBB429"/>
<path d="M32.0936 18.8741L31.9222 18.7031L31.2156 17.9962L31.0442 17.8252C30.9154 17.8739 30.7797 17.9601 30.6426 18.0713L31.8474 19.2761C31.9582 19.1393 32.0448 19.0033 32.0935 18.8745V18.8741H32.0936Z" fill="white"/>
<path d="M22.448 7.05176L22.6194 7.22316L23.326 7.92973L23.4974 8.10113C23.2859 8.65863 22.3719 9.35652 21.7953 9.63215L21.7094 9.54629L21.0029 8.83973L20.917 8.75387C21.1927 8.17762 21.8902 7.26324 22.4477 7.05176H22.448Z" fill="#FBB429"/>
<path d="M22.4485 7.05176L22.6199 7.22316L23.3265 7.92973L23.4979 8.10113C23.4491 8.22996 23.363 8.36598 23.2518 8.50277L22.0469 7.29785C22.1837 7.18668 22.3197 7.10051 22.4485 7.05176Z" fill="white"/>
<path d="M19.0886 5.8686L19.26 6.04001L19.9666 6.74657L20.138 6.91797C19.9265 7.47547 19.0125 8.17336 18.4359 8.44868L18.35 8.36282L17.6435 7.65626L17.5576 7.5704C17.8333 6.99415 18.5308 6.07977 19.0883 5.86829L19.0886 5.8686Z" fill="#FBB429"/>
<path d="M19.0881 5.86865L19.2595 6.04006L19.9664 6.74662L20.1374 6.91803C20.0886 7.04686 20.0025 7.18287 19.8917 7.31967L18.6865 6.11475C18.8232 6.00357 18.9593 5.91732 19.0881 5.86865Z" fill="white"/>
<path d="M16.5789 21.7968L18.6519 24.7442L19.313 23.9449L18.1399 20.8456C18.2871 20.7185 18.0103 20.9704 18.6158 20.4256C19.2213 19.8807 21.8818 17.4349 24.2915 15.4759L31.2316 25.2864L31.8645 24.6535L28.0284 12.4257C29.5963 11.1332 30.8094 10.1023 31.1363 9.72877C32.1354 8.58705 33.0393 7.06431 32.326 5.6372C30.8985 4.92345 29.3761 5.82775 28.2344 6.8265C27.8606 7.15345 26.83 8.36658 25.5375 9.93439L13.3096 6.09845L12.6768 6.73135L22.487 13.6714C20.5283 16.0815 18.0822 18.7416 17.5377 19.3471C16.9925 19.9526 17.2447 19.6759 17.1177 19.8231L14.0184 18.6499L13.2191 19.311L16.1664 21.3841C15.8464 21.9347 16.0286 22.117 16.5793 21.7969H16.5789V21.7968Z" fill="white"/>
<path d="M16.5781 21.7967L18.6512 24.7441L18.8106 24.5514L16.8011 21.6431L16.5784 21.7968H16.5781V21.7967Z" fill="#C8CACC"/>
<path d="M13.4104 19.1515L13.2178 19.311L16.1651 21.3841L16.3189 21.1614L13.4101 19.1515H13.4104Z" fill="#C8CACC"/>
<path d="M24.291 15.4756L31.2311 25.2862L31.475 25.0419L24.7009 15.1411L24.291 15.4756Z" fill="#C8CACC"/>
<path d="M12.9197 6.48706L12.6758 6.73136L22.486 13.6714L22.8206 13.2615L12.9193 6.48745L12.9197 6.48706Z" fill="#C8CACC"/>
<path d="M31.729 6.23323C31.5886 6.09284 31.4187 5.99401 31.23 5.93518L31.1156 6.25456C31.2347 6.32565 31.3465 6.41222 31.4486 6.51401C31.5504 6.61612 31.637 6.728 31.7081 6.84675L32.0275 6.73237C31.9686 6.54401 31.8698 6.37409 31.7294 6.23331H31.729V6.23323ZM30.9749 5.88104C30.6837 5.84604 30.3643 5.8919 30.0479 6.01347C30.3329 5.98964 30.6194 6.03112 30.8825 6.13831L30.9749 5.88104ZM31.8243 7.08011C31.9318 7.34315 31.973 7.62933 31.9492 7.91472C32.0711 7.59823 32.1166 7.27893 32.0816 6.98768L31.8243 7.08011Z" fill="#15BDB1"/>
<path d="M14.4412 23.7181L14.4437 23.7156L14.4856 23.6752L14.5271 23.6351L14.5693 23.5943L14.6115 23.5535L14.6536 23.5127L14.6962 23.4716L14.7388 23.4304L14.7818 23.3892L14.825 23.3477L14.868 23.3063L14.9113 23.2644L14.9546 23.2222L14.9982 23.18L15.0419 23.1374L15.0859 23.0948L15.1303 23.0523L15.1747 23.0093L15.219 22.9663L15.2638 22.923L15.3086 22.8794L15.3536 22.8357L15.3987 22.792L15.4438 22.748L15.4893 22.7036L15.5347 22.6592L15.5806 22.6145L15.6265 22.5697L15.6726 22.5246L15.7188 22.4791L15.765 22.4337L15.507 22.171L15.4608 22.2161L15.415 22.2612L15.3691 22.3059L15.3232 22.351L15.2778 22.3954L15.2327 22.4398L15.1876 22.4838L15.1425 22.5278L15.0978 22.5715L15.053 22.6148L15.0082 22.6581L14.9639 22.7013L14.9195 22.7443L14.8751 22.7873L14.8311 22.8298L14.7872 22.8724L14.7435 22.9146L14.6998 22.9565L14.6565 22.9987L14.6132 23.0406L14.57 23.082L14.527 23.1235L14.484 23.1647L14.4415 23.2059L14.3989 23.2466L14.3563 23.2874L14.3141 23.3282L14.2722 23.3686L14.2304 23.4094L14.1885 23.4495L14.186 23.452L14.4415 23.7172L14.4412 23.7181ZM35.0719 23.5661L35.0282 23.6802L34.9846 23.7927L34.9409 23.9035L34.8972 24.0125L34.8533 24.12L34.8092 24.2257L34.7652 24.33L34.7212 24.4325L34.6772 24.5335L34.6328 24.6327L34.5888 24.7309L34.5444 24.8272L34.5 24.9217L34.4557 25.0148L34.4535 25.0191L34.7843 25.1812L34.7876 25.1747L34.8331 25.0791L34.8786 24.982L34.9236 24.8835L34.9691 24.7836L35.0142 24.6822L35.0593 24.579L35.1043 24.4744L35.1491 24.3679L35.1939 24.2604L35.239 24.1507L35.2833 24.0395L35.3281 23.927L35.3725 23.8126L35.4168 23.6964L35.0726 23.5658L35.0719 23.5661ZM33.94 25.9802L33.9172 26.0177L33.8722 26.092L33.8271 26.1648L33.782 26.2366L33.7365 26.3066L33.6911 26.3752L33.6456 26.4427L33.6001 26.5088L33.5547 26.5737L33.5092 26.6372L33.4637 26.6996L33.4179 26.7606L33.3724 26.8205L33.3265 26.879L33.2807 26.9363L33.2345 26.9927L33.1886 27.0475L33.1428 27.1013L33.0969 27.1536L33.0507 27.2052L33.0049 27.2553L32.9587 27.3044L32.9125 27.3523L32.8664 27.3992L32.8584 27.4072L33.1164 27.6702L33.1275 27.6591L33.177 27.6089L33.2261 27.5577L33.2751 27.5053L33.3242 27.4519L33.3729 27.3974L33.4217 27.3419L33.47 27.2848L33.5184 27.2267L33.5668 27.1672L33.6151 27.107L33.6631 27.0452L33.7111 26.9824L33.759 26.9185L33.8067 26.8532L33.8543 26.7865L33.902 26.7187L33.9493 26.6494L33.9969 26.579L34.0438 26.5072L34.0911 26.4343L34.1379 26.36L34.1852 26.2842L34.2321 26.207L34.2544 26.1691L33.9387 25.9794L33.94 25.9802ZM32.0297 28.0695L32.0286 28.0702L31.9814 28.0987L31.9341 28.1265L31.8868 28.1532L31.8396 28.1792L31.7919 28.2045L31.7447 28.2286L31.697 28.2524L31.6493 28.2752L31.6017 28.2972L31.554 28.3185L31.5061 28.3391L31.4581 28.3589L31.4101 28.3781L31.3622 28.3968L31.3138 28.4145L31.2654 28.4318L31.2171 28.4484L31.1687 28.4642L31.12 28.4798L31.0712 28.4942L31.0222 28.5083L30.9734 28.522L30.9243 28.5347L30.8753 28.547L30.8258 28.5585L30.7764 28.5697L30.7269 28.5802L30.6772 28.5902L30.6274 28.5996L30.5776 28.6086L30.5275 28.6173L30.4773 28.6252L30.4272 28.6328L30.3766 28.64L30.3737 28.6404L30.4206 29.0059L30.4268 29.0048L30.4809 28.9973L30.5347 28.9893L30.5881 28.9806L30.6418 28.9716L30.6956 28.9619L30.7493 28.9518L30.8028 28.9409L30.8562 28.9294L30.9093 28.9175L30.9627 28.9048L31.0161 28.8915L31.0696 28.8774L31.123 28.863L31.1757 28.8478L31.2287 28.832L31.2814 28.8154L31.334 28.7981L31.3871 28.78L31.4397 28.7613L31.4921 28.7418L31.5447 28.7216L31.5971 28.7006L31.6494 28.679L31.7018 28.6563L31.7541 28.6328L31.8061 28.6087L31.858 28.5838L31.91 28.5581L31.9619 28.5314L32.0139 28.504L32.0654 28.4755L32.117 28.4463L32.1686 28.4163L32.2198 28.3853L32.2209 28.3846L32.0286 28.0707L32.0297 28.0695ZM29.296 28.702H29.2898L29.2368 28.7016L29.1833 28.7009L29.1299 28.7002L29.0761 28.6991L29.0224 28.698L28.9686 28.6966L28.9145 28.6952L28.8604 28.6934L28.8059 28.6916L28.7515 28.6898L28.697 28.688L28.6425 28.6858L28.5877 28.6836L28.5325 28.6818L28.4772 28.6796L28.422 28.6774L28.3668 28.6749L28.3115 28.6727L28.256 28.6706L28.2004 28.6684L28.1445 28.6662L28.0886 28.664L28.0326 28.6618L27.9763 28.6596L27.92 28.6574L27.8633 28.6552L27.8067 28.6534L27.75 28.6516L27.693 28.6498L27.636 28.6481L27.579 28.6466L27.5216 28.6452L27.4643 28.6441L27.4585 28.6438L27.452 29.0122H27.4571L27.5134 29.0133L27.5697 29.0147L27.6261 29.0161L27.682 29.0179L27.7383 29.0197L27.7947 29.0215L27.8506 29.0233L27.9065 29.0255L27.9625 29.0277L28.0184 29.0298L28.0739 29.032L28.1295 29.0342L28.185 29.0364L28.2406 29.0386L28.2961 29.0408L28.3517 29.043L28.4072 29.0452L28.4628 29.0473L28.5183 29.0495L28.5736 29.0517L28.6288 29.0539L28.6843 29.0561L28.7392 29.0579L28.7944 29.0597L28.8497 29.0615L28.9049 29.0629L28.9601 29.0643L29.0154 29.0657L29.0702 29.0668L29.125 29.0679L29.1799 29.0686L29.2347 29.0693L29.2896 29.0697H29.2957L29.2972 28.7013L29.296 28.702ZM26.3356 28.6691L26.2879 28.6727L26.228 28.6778L26.1674 28.6832L26.1075 28.689L26.0468 28.6952L25.9862 28.702L25.9256 28.7092L25.865 28.7168L25.804 28.7248L25.7429 28.7338L25.6816 28.7431L25.6203 28.7532L25.559 28.7633L25.4976 28.7745L25.4359 28.786L25.3742 28.7979L25.3122 28.8106L25.2501 28.8239L25.1881 28.838L25.1257 28.8527L25.0632 28.8683L25.0004 28.8841L24.938 28.9004L24.8752 28.9177L24.8124 28.9358L24.7496 28.9545L24.6865 28.974L24.6233 28.9942L24.5598 29.0152L24.4963 29.0372L24.488 29.0401L24.6129 29.3869L24.6179 29.3851L24.6779 29.3645L24.7374 29.3451L24.7969 29.3259L24.8565 29.3075L24.916 29.2902L24.9755 29.2728L25.0347 29.2566L25.0938 29.2407L25.1529 29.2256L25.2121 29.2111L25.2709 29.197L25.3297 29.1841L25.3886 29.1714L25.447 29.1595L25.5054 29.148L25.5643 29.1371L25.6227 29.127L25.6811 29.117L25.7396 29.1076L25.7977 29.0989L25.8561 29.0906L25.9143 29.0827L25.9724 29.0755L26.0305 29.0686L26.0882 29.0621L26.146 29.0559L26.2041 29.0502L26.2615 29.0451L26.3192 29.0404L26.3668 29.0368L26.3379 28.6695L26.3356 28.6691ZM23.4525 29.5073L23.4034 29.5348L23.3381 29.5723L23.2728 29.6109L23.2075 29.6502L23.1418 29.6909L23.0765 29.7324L23.0107 29.775L22.9454 29.8183L22.8797 29.863L22.814 29.9085L22.748 29.9554L22.682 30.0034L22.6163 30.0524L22.5503 30.1022L22.4843 30.1534L22.4182 30.2058L22.3518 30.2592L22.2854 30.3137L22.219 30.3692L22.1523 30.4259L22.0856 30.4843L22.0192 30.5434L21.9525 30.6037L21.9359 30.6192L22.1871 30.8888L22.2011 30.8761L22.2654 30.8177L22.3296 30.7606L22.3935 30.7051L22.4574 30.6506L22.5209 30.5972L22.5848 30.5448L22.6479 30.4936L22.7115 30.4438L22.7746 30.3951L22.8377 30.3471L22.9008 30.3002L22.9636 30.2548L23.0265 30.2104L23.0893 30.1667L23.1517 30.1245L23.2141 30.0831L23.2765 30.0427L23.339 30.0034L23.401 29.9651L23.463 29.9276L23.5247 29.8912L23.5865 29.8555L23.6355 29.8281L23.4533 29.5077L23.4525 29.5073ZM21.1511 31.4213L21.1446 31.4281L21.0768 31.5053L21.0107 31.5811L20.9447 31.6558L20.8787 31.7298L20.813 31.8027L20.7473 31.8748L20.6816 31.9459L20.6163 32.0159L20.551 32.0852L20.4861 32.1538L20.4211 32.2213L20.3562 32.2881L20.2916 32.3538L20.227 32.4187L20.1624 32.4826L20.0982 32.5457L20.034 32.6081L19.97 32.6695L19.9061 32.7301L19.8939 32.7413L20.1447 33.0108L20.1584 32.9981L20.2241 32.9361L20.2898 32.8733L20.3555 32.8098L20.4212 32.7452L20.4872 32.6795L20.5532 32.6131L20.6193 32.5456L20.6857 32.4777L20.7521 32.4088L20.8188 32.3392L20.8852 32.2685L20.9519 32.1967L21.0186 32.1242L21.0857 32.0509L21.1529 31.9766L21.22 31.9013L21.2875 31.8251L21.355 31.7482L21.4207 31.6731L21.4272 31.6663L21.1515 31.422L21.1511 31.4213ZM19.0693 33.4539L19.025 33.4889L18.9636 33.5369L18.9019 33.5841L18.8406 33.6307L18.7793 33.6766L18.7182 33.7216L18.6576 33.7656L18.597 33.8089L18.5364 33.8515L18.4761 33.8934L18.4159 33.9345L18.3557 33.9749L18.2957 34.0146L18.2362 34.0536L18.1767 34.0915L18.1172 34.1287L18.058 34.1655L17.9989 34.2012L17.9397 34.2362L17.8813 34.2705L17.8229 34.3041L17.7644 34.3369L17.7063 34.3694L17.6482 34.4008L17.5904 34.4315L17.5626 34.4459L17.7315 34.7736L17.7622 34.7577L17.8229 34.7252L17.8835 34.6924L17.9441 34.6588L18.0051 34.6242L18.0661 34.5892L18.1272 34.5535L18.1885 34.5167L18.2498 34.4795L18.3115 34.4416L18.3732 34.4027L18.4353 34.3634L18.4973 34.323L18.5593 34.2818L18.6218 34.2399L18.6842 34.1973L18.747 34.1541L18.8098 34.11L18.8726 34.0649L18.9357 34.0191L18.9989 33.9725L19.062 33.9252L19.1255 33.8773L19.1894 33.8282L19.2529 33.7784L19.2969 33.7434L19.0693 33.4537L19.0693 33.4539ZM16.5752 34.8688L16.5268 34.8846L16.4727 34.902L16.4186 34.9185L16.3648 34.9348L16.3114 34.9503L16.2579 34.9651L16.2049 34.9791L16.1518 34.9929L16.0992 35.0059L16.0468 35.0181L15.9945 35.0297L15.9422 35.0409L15.8902 35.0513L15.8386 35.0614L15.7871 35.0708L15.7355 35.0798L15.6847 35.0881L15.6338 35.0956L15.5829 35.1028L15.5324 35.1093L15.4822 35.1155L15.4321 35.1209L15.3823 35.1259L15.3325 35.1302L15.2828 35.1338L15.2337 35.1371L15.1847 35.1396L15.1356 35.1418L15.0868 35.1436L15.0385 35.1447L14.9905 35.1454H14.9425L14.8946 35.145L14.8473 35.1443L14.8289 35.1436L14.8155 35.5116L14.8382 35.5123L14.8898 35.5134L14.9414 35.5138H14.9933L15.0457 35.5131L15.098 35.5117L15.1504 35.5099L15.203 35.5077L15.2565 35.5045L15.3095 35.5009L15.3629 35.4969L15.4164 35.4922L15.4701 35.4871L15.5243 35.4809L15.5784 35.4745L15.6329 35.4673L15.687 35.4597L15.7418 35.4517L15.7967 35.4427L15.8519 35.433L15.9072 35.4232L15.9627 35.4123L16.0182 35.4012L16.0738 35.3893L16.1297 35.3766L16.1861 35.3633L16.2424 35.3495L16.2987 35.3351L16.3554 35.3199L16.4124 35.3041L16.4694 35.2875L16.5265 35.2705L16.5838 35.2529L16.6411 35.2345L16.6895 35.2186L16.5758 34.8682L16.5752 34.8688ZM13.7837 34.9831L13.7657 34.9781L13.7235 34.9658L13.6816 34.9528L13.6394 34.9395L13.5975 34.9257L13.5557 34.9113L13.5142 34.8968L13.4734 34.882L13.4322 34.8665L13.3915 34.8506L13.3511 34.8344L13.3107 34.8178L13.2706 34.8009L13.2309 34.7835L13.1912 34.7659L13.1519 34.7474L13.1129 34.729L13.074 34.7102L13.035 34.6911L12.9967 34.6716L12.9588 34.6518L12.9205 34.6313L12.8826 34.6107L12.8451 34.5895L12.8079 34.5681L12.7707 34.5465L12.7336 34.5241L12.6972 34.5018L12.6607 34.4791L12.6246 34.4559L12.5885 34.4325L12.5528 34.4087L12.5171 34.3848L12.4821 34.3603L12.4471 34.3358L12.4121 34.3106L12.3775 34.2853L12.3432 34.2597L12.3093 34.2337L12.2754 34.2077L12.2418 34.1813L12.2266 34.1691L11.9946 34.4552L12.0119 34.4693L12.048 34.4978L12.0844 34.5259L12.1209 34.5538L12.1581 34.5816L12.1953 34.609L12.2328 34.6357L12.2707 34.6624L12.309 34.6888L12.3472 34.7144L12.3858 34.74L12.4248 34.7652L12.4638 34.7902L12.5031 34.8151L12.5428 34.8392L12.5825 34.8631L12.6229 34.8865L12.6632 34.9096L12.704 34.9323L12.7452 34.9547L12.7864 34.9767L12.8279 34.9984L12.8697 35.0196L12.9116 35.0402L12.9538 35.0607L12.9964 35.0809L13.039 35.1004L13.0819 35.1195L13.1252 35.1383L13.1689 35.1567L13.2122 35.1748L13.2561 35.1924L13.3005 35.2098L13.3449 35.2263L13.3897 35.2429L13.4347 35.2588L13.4798 35.2743L13.5253 35.2891L13.5711 35.3035L13.617 35.3176L13.6632 35.3313L13.6812 35.3364L13.7837 34.9824V34.9831ZM11.4715 33.4185L11.4563 33.3998L11.4296 33.3666L11.4029 33.3334L11.3768 33.2998L11.3508 33.2659L11.3252 33.232L11.3 33.1981L11.2747 33.1638L11.2498 33.1291L11.2253 33.0945L11.2007 33.0599L11.1769 33.0249L11.1531 32.9899L11.1297 32.9545L11.1065 32.9191L11.0834 32.8834L11.0611 32.8477L11.0387 32.8116L11.0167 32.7756L10.995 32.7395L10.9734 32.7031L10.9521 32.6666L10.9311 32.6298L10.9106 32.5934L10.8904 32.5566L10.8701 32.5195L10.8503 32.4827L10.8308 32.4455L10.8114 32.4083L10.7926 32.3708L10.7739 32.3336L10.7554 32.2961L10.7374 32.2582L10.7197 32.2203L10.7024 32.1824L10.6854 32.1445L10.6685 32.1066L10.6519 32.0688L10.6357 32.0305L10.6198 31.9926L10.6043 31.9543L10.5887 31.916L10.5761 31.8839L10.2329 32.017L10.2467 32.052L10.2629 32.0928L10.2795 32.1336L10.2965 32.1744L10.3138 32.2148L10.3311 32.2552L10.3492 32.2959L10.3676 32.3363L10.3864 32.3767L10.4051 32.4168L10.4243 32.4569L10.4437 32.497L10.4636 32.537L10.4838 32.5767L10.504 32.6164L10.5246 32.6557L10.5459 32.695L10.5672 32.734L10.5889 32.7733L10.6109 32.8123L10.6332 32.8513L10.656 32.8898L10.6787 32.9284L10.7022 32.967L10.7256 33.0053L10.749 33.0432L10.7732 33.0815L10.7973 33.1194L10.8218 33.1573L10.8468 33.1948L10.872 33.232L10.8976 33.2691L10.9236 33.3063L10.9497 33.3431L10.9764 33.3799L11.0031 33.4164L11.0301 33.4528L11.0575 33.4889L11.085 33.525L11.1128 33.5607L11.1409 33.5964L11.1694 33.6321L11.185 33.6509L11.4707 33.4185H11.4715ZM10.2843 30.8559C10.1779 30.2713 10.1606 29.682 10.289 29.0993L9.92926 29.0199C9.78856 29.6416 9.80801 30.2984 9.92208 30.9223L10.2843 30.8556V30.8559ZM10.6383 28.0994C10.8884 27.5686 11.2604 27.058 11.6307 26.6052L11.3467 26.3706C10.9599 26.8379 10.5662 27.3889 10.3071 27.9385L10.6383 28.0994ZM12.3552 25.7867L12.3577 25.7842L12.3891 25.751L12.4205 25.7178L12.4522 25.6846L12.4843 25.651L12.5165 25.6174L12.5486 25.5838L12.5811 25.5502L12.6139 25.5163L12.6467 25.4824L12.6795 25.4485L12.7127 25.4146L12.7463 25.3803L12.7799 25.346L12.8138 25.3117L12.8477 25.2774L12.882 25.2428L12.9166 25.2078L12.9512 25.1728L12.9858 25.1382L13.0208 25.1032L13.0558 25.0682L13.0915 25.0328L13.1272 24.9974L13.1629 24.962L13.199 24.9263L13.2351 24.8906L13.2715 24.8549L13.308 24.8188L13.3448 24.7827L13.3816 24.7466L13.4188 24.7102L13.456 24.6738L13.4935 24.6374L13.531 24.6006L13.5689 24.5638L13.6068 24.527L13.645 24.4898L13.6475 24.4877L13.3906 24.2235L13.3881 24.226L13.3498 24.2632L13.3115 24.3004L13.2736 24.3372L13.2357 24.3744L13.1982 24.4108L13.1607 24.4476L13.1236 24.484L13.0864 24.5204L13.0496 24.5568L13.0128 24.5929L12.976 24.629L12.9395 24.6651L12.9034 24.7008L12.8673 24.7369L12.8316 24.7726L12.7959 24.808L12.7602 24.8437L12.7252 24.8791L12.6902 24.9141L12.6552 24.9495L12.6206 24.9845L12.586 25.0195L12.5517 25.0545L12.5174 25.0891L12.4835 25.1237L12.4496 25.1583L12.4157 25.1929L12.3821 25.2272L12.3489 25.2615L12.3157 25.2958L12.2829 25.3301L12.25 25.3644L12.2175 25.3983L12.1854 25.4319L12.1529 25.4658L12.1208 25.4997L12.0891 25.5333L12.0866 25.5362L12.355 25.7884V25.7867H12.3552Z" fill="white"/>
</svg>
