<svg width="40" height="40" viewBox="0 0 40 40" fill="none" xmlns="http://www.w3.org/2000/svg">
<g clip-path="url(#clip0)">
<path d="M38.7987 8.34931H36.7362C36.5694 8.34931 36.4095 8.41555 36.2916 8.53346C36.1737 8.65138 36.1074 8.8113 36.1074 8.97806V12.4156L34.3262 14.1759L34.478 15.1887L36.5977 13.2727C36.6435 13.2836 36.6904 13.2893 36.7374 13.2896H38.7999C38.9667 13.2896 39.1266 13.2234 39.2445 13.1055C39.3624 12.9876 39.4287 12.8276 39.4287 12.6609V8.97806C39.4287 8.89538 39.4124 8.81352 39.3807 8.73715C39.349 8.66079 39.3026 8.59142 39.2441 8.53302C39.1856 8.47462 39.1161 8.42833 39.0397 8.39681C38.9632 8.36528 38.8813 8.34914 38.7987 8.34931Z" fill="#43567C"/>
<path d="M1.20199 8.34937H3.26449C3.43125 8.34937 3.59117 8.41561 3.70909 8.53352C3.827 8.65144 3.89324 8.81136 3.89324 8.97812V12.4156L5.67449 14.1759L5.52324 15.1875L3.40355 13.2712C3.35778 13.2821 3.31092 13.2878 3.26387 13.2881H1.20137C1.03472 13.288 0.874956 13.2216 0.757178 13.1037C0.639399 12.9858 0.573242 12.826 0.573242 12.6594V8.97812C0.573242 8.81136 0.639485 8.65144 0.757399 8.53352C0.875312 8.41561 1.03524 8.34937 1.20199 8.34937Z" fill="#43567C"/>
<path d="M37.2318 27.7341L33.0106 27.7185C32.7817 27.7186 32.5622 27.8096 32.4004 27.9714C32.2385 28.1333 32.1475 28.3527 32.1475 28.5816L32.1625 36.3648C32.1625 36.5936 32.2535 36.8131 32.4154 36.9749C32.5772 37.1367 32.7967 37.2276 33.0256 37.2276H37.2318C37.3452 37.2276 37.4574 37.2053 37.5621 37.162C37.6668 37.1186 37.762 37.0551 37.8421 36.975C37.9223 36.8948 37.9859 36.7997 38.0293 36.695C38.0726 36.5903 38.095 36.4781 38.095 36.3648V28.5973C38.095 28.3683 38.004 28.1488 37.8422 27.9869C37.6803 27.8251 37.4607 27.7341 37.2318 27.7341Z" fill="#2F3A5A"/>
<path d="M7.10293 27.7341L2.88168 27.7185C2.76829 27.7185 2.65602 27.7409 2.55128 27.7844C2.44654 27.8278 2.35138 27.8914 2.27123 27.9716C2.19108 28.0518 2.12751 28.147 2.08416 28.2518C2.04081 28.3566 2.01851 28.4689 2.01855 28.5823L2.03355 36.3654C2.03364 36.5942 2.12461 36.8137 2.28647 36.9755C2.44833 37.1373 2.66782 37.2282 2.89668 37.2282H7.10293C7.21626 37.2282 7.32849 37.206 7.43321 37.1626C7.53793 37.1193 7.63308 37.0557 7.71323 36.9756C7.79339 36.8955 7.85697 36.8003 7.90035 36.6956C7.94373 36.5909 7.96606 36.4787 7.96605 36.3654V28.5973C7.96606 28.3683 7.87512 28.1488 7.71325 27.9869C7.55138 27.8251 7.33184 27.7341 7.10293 27.7341Z" fill="#2F3A5A"/>
<path d="M34.1287 4.8952C34.0665 4.49312 33.8661 4.12531 33.5618 3.85515C33.2576 3.58499 32.8687 3.4294 32.4621 3.4152C24.1762 2.55675 15.8237 2.55675 7.53773 3.4152C7.13113 3.4294 6.74221 3.58499 6.43799 3.85515C6.13378 4.12531 5.93333 4.49312 5.87117 4.8952L3.68555 19.0605L5.76836 29.2233H34.2315L36.3143 19.0605L34.1287 4.8952Z" fill="#F6BA5B"/>
<path d="M33.7184 13.7563C28.7809 13.3354 23.8288 13.1406 18.8621 13.1719C18.5559 13.1719 18.2496 13.175 17.9465 13.1781C17.5652 13.1812 17.1871 13.1875 16.809 13.2C16.1934 13.2094 15.5777 13.224 14.9621 13.2438C12.0746 13.3344 9.18294 13.5052 6.28711 13.7563L7.61211 5.16563L7.67461 5.1625L7.72148 5.16563C11.7546 4.74347 15.807 4.53172 19.8621 4.53125H19.8746C20.4715 4.53125 21.0746 4.53438 21.6746 4.54688C22.0465 4.55 22.4184 4.55937 22.7902 4.56875C23.0871 4.575 23.3871 4.58438 23.684 4.59688C26.5309 4.68438 29.4121 4.87813 32.284 5.16875L32.3434 5.17187L32.3996 5.175L33.7184 13.7563Z" fill="#43567C"/>
<path d="M34.512 17.0759C34.4462 16.5976 34.232 16.1519 33.8996 15.8018C33.5671 15.4516 33.1332 15.2145 32.6589 15.124C28.6795 14.3684 20.0261 14.4247 19.9998 14.4247C19.9736 14.4247 11.3202 14.3684 7.34078 15.124C6.8665 15.2145 6.43257 15.4516 6.10012 15.8018C5.76767 16.1519 5.55345 16.5976 5.48766 17.0759L4.87891 21.4593L8.11359 29.2234H31.8861L35.1208 21.4593L34.512 17.0759Z" fill="#F9C87E"/>
<path d="M32.6469 20.7322C32.2888 18.306 31.7197 17.3357 29.0729 16.6888C26.4313 16.0432 20.0244 15.9632 20 15.9644C19.9757 15.9657 13.5688 16.0432 10.9272 16.6888C8.2813 17.3357 7.7113 18.306 7.35317 20.7322C6.99505 23.1585 7.69317 26.1625 7.69317 26.1625H32.3069C32.3069 26.1625 33.005 23.1582 32.6469 20.7322Z" fill="#F6BA5B"/>
<path d="M38.2338 19.1161L35.2585 18.644C34.9579 18.5963 34.6505 18.6647 34.3985 18.8353C34.1466 19.0059 33.9689 19.266 33.9016 19.5627L33.5541 21.094C33.5344 21.181 33.5244 21.27 33.5244 21.3593V28.0246C33.5245 28.3425 33.6509 28.6474 33.8757 28.8722C34.1006 29.097 34.4055 29.2233 34.7235 29.2233H38.0457C38.3636 29.2233 38.6686 29.097 38.8934 28.8722C39.1183 28.6474 39.2446 28.3425 39.2447 28.0246V20.3002C39.2447 20.0148 39.1429 19.7388 38.9576 19.5218C38.7723 19.3048 38.5156 19.1609 38.2338 19.1161Z" fill="#F6BA5B"/>
<path d="M1.76582 19.1161L4.74113 18.644C5.04167 18.5963 5.34909 18.6647 5.60106 18.8353C5.85303 19.0059 6.03069 19.266 6.09801 19.5627L6.44551 21.094C6.46523 21.181 6.47519 21.27 6.4752 21.3593V28.0246C6.47511 28.3425 6.34875 28.6474 6.12389 28.8722C5.89903 29.097 5.59409 29.2233 5.27613 29.2233H1.95395C1.63599 29.2233 1.33105 29.097 1.10619 28.8722C0.881332 28.6474 0.754966 28.3425 0.754883 28.0246V20.3002C0.754919 20.0148 0.856737 19.7388 1.04204 19.5218C1.22734 19.3048 1.48398 19.1609 1.76582 19.1161Z" fill="#F6BA5B"/>
<path d="M39.3919 25.3237H0.608125C0.44684 25.3237 0.292161 25.3878 0.178116 25.5018C0.0640702 25.6159 3.23061e-08 25.7706 3.23061e-08 25.9319V28.6328C-4.10209e-05 28.8314 0.0390448 29.028 0.115025 29.2115C0.191005 29.395 0.30239 29.5617 0.442818 29.7022C0.583246 29.8426 0.749964 29.954 0.93345 30.03C1.11694 30.1059 1.31359 30.145 1.51219 30.145H38.4878C38.6864 30.145 38.8831 30.1059 39.0666 30.03C39.25 29.954 39.4168 29.8426 39.5572 29.7022C39.6976 29.5617 39.809 29.395 39.885 29.2115C39.961 29.028 40 28.8314 40 28.6328V25.9319C40 25.7706 39.9359 25.6159 39.8219 25.5018C39.7078 25.3878 39.5532 25.3237 39.3919 25.3237Z" fill="#43567C"/>
<path d="M28.5469 18.5353C28.176 18.5353 27.8135 18.6453 27.5052 18.8513C27.1968 19.0574 26.9565 19.3502 26.8146 19.6928C26.6727 20.0354 26.6356 20.4124 26.7079 20.7761C26.7803 21.1398 26.9588 21.4739 27.2211 21.7362C27.4833 21.9984 27.8174 22.177 28.1811 22.2493C28.5448 22.3217 28.9218 22.2845 29.2644 22.1426C29.607 22.0007 29.8999 21.7604 30.1059 21.452C30.3119 21.1437 30.4219 20.7812 30.4219 20.4103C30.4219 19.9131 30.2243 19.4361 29.8727 19.0845C29.5211 18.7329 29.0442 18.5353 28.5469 18.5353Z" fill="#DBE2EB"/>
<path d="M11.4531 18.5353C11.0823 18.5353 10.7198 18.6453 10.4114 18.8513C10.1031 19.0574 9.86277 19.3502 9.72085 19.6928C9.57894 20.0354 9.54181 20.4124 9.61415 20.7761C9.6865 21.1398 9.86508 21.4739 10.1273 21.7362C10.3895 21.9984 10.7236 22.177 11.0873 22.2493C11.451 22.3217 11.828 22.2845 12.1707 22.1426C12.5133 22.0007 12.8061 21.7604 13.0121 21.452C13.2182 21.1437 13.3281 20.7812 13.3281 20.4103C13.3281 19.9131 13.1306 19.4361 12.779 19.0845C12.4273 18.7329 11.9504 18.5353 11.4531 18.5353Z" fill="#DBE2EB"/>
<path d="M36.1247 26.6174C35.9038 26.6174 35.6879 26.6829 35.5042 26.8057C35.3205 26.9284 35.1774 27.1028 35.0928 27.3069C35.0083 27.511 34.9862 27.7356 35.0293 27.9522C35.0724 28.1689 35.1787 28.3679 35.3349 28.5241C35.4911 28.6803 35.6901 28.7866 35.9068 28.8297C36.1235 28.8728 36.348 28.8507 36.5521 28.7662C36.7562 28.6816 36.9306 28.5385 37.0533 28.3548C37.1761 28.1712 37.2416 27.9552 37.2416 27.7343C37.2416 27.4381 37.1239 27.154 36.9144 26.9446C36.705 26.7351 36.4209 26.6174 36.1247 26.6174Z" fill="#DBE2EB"/>
<path d="M3.875 26.6174C3.65409 26.6174 3.43812 26.6828 3.25441 26.8055C3.0707 26.9282 2.9275 27.1026 2.84292 27.3067C2.75834 27.5108 2.73618 27.7353 2.77924 27.952C2.8223 28.1687 2.92864 28.3677 3.08483 28.5239C3.24101 28.6802 3.44002 28.7866 3.65668 28.8297C3.87334 28.8728 4.09793 28.8507 4.30203 28.7662C4.50613 28.6817 4.68058 28.5385 4.80332 28.3548C4.92605 28.1712 4.99156 27.9552 4.99156 27.7343C4.99156 27.4381 4.87394 27.1541 4.66455 26.9447C4.45516 26.7352 4.17116 26.6175 3.875 26.6174Z" fill="#DBE2EB"/>
<path d="M15.7368 18.629C15.5847 18.629 15.4387 18.6894 15.3311 18.797C15.2235 18.9046 15.1631 19.0506 15.1631 19.2027V23.9715C15.1631 24.1236 15.2235 24.2696 15.3311 24.3772C15.4387 24.4848 15.5847 24.5452 15.7368 24.5452C15.889 24.5452 16.0349 24.4848 16.1425 24.3772C16.2501 24.2696 16.3106 24.1236 16.3106 23.9715V19.2027C16.3106 19.0506 16.2501 18.9046 16.1425 18.797C16.0349 18.6894 15.889 18.629 15.7368 18.629Z" fill="#43567C"/>
<path d="M17.8687 18.629C17.7165 18.629 17.5706 18.6894 17.463 18.797C17.3554 18.9046 17.2949 19.0506 17.2949 19.2027V23.9715C17.2949 24.1236 17.3554 24.2696 17.463 24.3772C17.5706 24.4848 17.7165 24.5452 17.8687 24.5452C18.0208 24.5452 18.1668 24.4848 18.2744 24.3772C18.382 24.2696 18.4424 24.1236 18.4424 23.9715V19.2027C18.4424 19.0506 18.382 18.9046 18.2744 18.797C18.1668 18.6894 18.0208 18.629 17.8687 18.629Z" fill="#43567C"/>
<path d="M19.9995 18.629C19.8474 18.629 19.7014 18.6894 19.5938 18.797C19.4862 18.9046 19.4258 19.0506 19.4258 19.2027V23.9715C19.4258 24.1236 19.4862 24.2696 19.5938 24.3772C19.7014 24.4848 19.8474 24.5452 19.9995 24.5452C20.1517 24.5452 20.2976 24.4848 20.4052 24.3772C20.5128 24.2696 20.5733 24.1236 20.5733 23.9715V19.2027C20.5733 19.0506 20.5128 18.9046 20.4052 18.797C20.2976 18.6894 20.1517 18.629 19.9995 18.629Z" fill="#43567C"/>
<path d="M22.1304 18.629C21.9782 18.629 21.8323 18.6894 21.7247 18.797C21.6171 18.9046 21.5566 19.0506 21.5566 19.2027V23.9715C21.5566 24.1236 21.6171 24.2696 21.7247 24.3772C21.8323 24.4848 21.9782 24.5452 22.1304 24.5452C22.2826 24.5452 22.4285 24.4848 22.5361 24.3772C22.6437 24.2696 22.7041 24.1236 22.7041 23.9715V19.2027C22.7041 19.0506 22.6437 18.9046 22.5361 18.797C22.4285 18.6894 22.2826 18.629 22.1304 18.629Z" fill="#43567C"/>
<path d="M24.2615 18.629C24.1861 18.6288 24.1113 18.6435 24.0416 18.6723C23.9718 18.701 23.9084 18.7433 23.855 18.7966C23.8016 18.8499 23.7592 18.9132 23.7303 18.9829C23.7014 19.0526 23.6865 19.1273 23.6865 19.2027V23.9715C23.6865 24.0468 23.7014 24.1214 23.7302 24.191C23.759 24.2606 23.8013 24.3239 23.8546 24.3772C23.9078 24.4304 23.9711 24.4727 24.0407 24.5015C24.1103 24.5304 24.1849 24.5452 24.2603 24.5452C24.3356 24.5452 24.4102 24.5304 24.4798 24.5015C24.5494 24.4727 24.6127 24.4304 24.666 24.3772C24.7193 24.3239 24.7615 24.2606 24.7903 24.191C24.8192 24.1214 24.834 24.0468 24.834 23.9715V19.2027C24.834 19.0508 24.7737 18.905 24.6664 18.7975C24.5591 18.6899 24.4135 18.6293 24.2615 18.629Z" fill="#43567C"/>
<g opacity="0.25">
<path opacity="0.25" d="M21.6754 4.54688L16.8098 13.2C16.1941 13.2094 15.5785 13.224 14.9629 13.2438L19.8629 4.53125H19.8754C20.4723 4.53125 21.0754 4.53438 21.6754 4.54688Z" fill="white"/>
<path opacity="0.25" d="M23.6848 4.59691L18.8629 13.1719C18.5566 13.1719 18.2504 13.175 17.9473 13.1782L22.791 4.56879C23.0879 4.57504 23.3879 4.58441 23.6848 4.59691Z" fill="white"/>
</g>
</g>
<defs>
<clipPath id="clip0">
<rect width="40" height="40" fill="white"/>
</clipPath>
</defs>
</svg>
