<svg width="446" height="348" viewBox="0 0 446 348" fill="none" xmlns="http://www.w3.org/2000/svg">
<path d="M66.4999 52C101.211 9.25483 152.436 52 207.5 52C262.564 52 304.202 19.2937 348.5 52C415.365 101.368 382.622 219.329 311 261.5C269.729 285.8 236.491 267.442 188.75 271.25C141.008 275.058 100.455 314.776 66.4999 281C34.798 249.465 66.4999 211.215 66.4999 166.5C66.4999 121.785 38.3122 86.7115 66.4999 52Z" fill="#F5F6F8"/>
<path d="M330.212 220.532C321.233 211.384 321.369 196.687 330.518 187.707C339.668 178.727 354.364 178.864 363.344 188.013C372.324 197.162 372.187 211.859 363.038 220.838C353.889 229.818 339.193 229.681 330.212 220.532ZM385.001 227.248C387.166 223.653 388.776 219.815 389.837 215.861L398.395 214.221L398.484 204.755L398.572 195.288L390.045 193.489C389.058 189.515 387.52 185.649 385.423 182.014L390.312 174.809L383.68 168.052L377.049 161.296L369.753 166.05C366.158 163.885 362.321 162.275 358.367 161.214L356.726 152.656L347.26 152.567L337.794 152.479L335.994 161.006C332.02 161.992 328.155 163.531 324.519 165.628L317.314 160.739L310.557 167.371L303.802 174.002L308.555 181.298C306.39 184.893 304.78 188.729 303.72 192.684L295.161 194.325L295.073 203.791L294.984 213.257L303.511 215.056C304.498 219.03 306.037 222.896 308.133 226.531L303.245 233.737L309.876 240.493L316.507 247.25L323.803 242.496C327.398 244.66 331.235 246.271 335.19 247.332L336.83 255.89L346.297 255.978L355.763 256.067L357.562 247.539C361.535 246.553 365.402 245.015 369.036 242.918L376.242 247.807L382.999 241.175L389.755 234.544L385.001 227.248" fill="url(#paint0_linear)"/>
<path d="M118.982 150.008C111.613 143.898 110.594 132.971 116.704 125.602C122.815 118.234 133.741 117.214 141.11 123.325C148.479 129.435 149.498 140.362 143.388 147.73C137.277 155.099 126.35 156.118 118.982 150.008ZM160.192 150.815C161.525 147.98 162.428 145.006 162.914 141.988L169.146 140.117L168.49 133.079L167.833 126.04L161.362 125.354C160.326 122.477 158.888 119.723 157.053 117.183L160.134 111.458L154.693 106.945L149.251 102.432L144.195 106.52C141.359 105.187 138.386 104.284 135.368 103.798L133.496 97.5655L126.458 98.2224L119.419 98.8792L118.734 105.35C115.857 106.386 113.102 107.824 110.563 109.659L104.838 106.578L100.324 112.019L95.8123 117.461L99.8996 122.517C98.5664 125.353 97.6634 128.326 97.1776 131.345L90.9453 133.216L91.6015 140.254L92.259 147.293L98.7295 147.979C99.7661 150.855 101.204 153.61 103.039 156.149L99.9573 161.875L105.399 166.388L110.84 170.9L115.897 166.812C118.733 168.146 121.706 169.049 124.724 169.535L126.596 175.767L133.634 175.111L140.673 174.454L141.358 167.983C144.235 166.947 146.989 165.509 149.529 163.673L155.254 166.755L159.767 161.313L164.28 155.872L160.192 150.815" fill="url(#paint1_linear)"/>
<path d="M369.06 293.173H368.467V250.994C368.467 241.609 360.832 233.974 351.446 233.974H308.05C298.338 233.974 290.436 226.073 290.436 216.361V137.52C290.436 128.135 282.801 120.5 273.417 120.5H162.763V119.906H273.417C283.129 119.906 291.03 127.808 291.03 137.52V216.361C291.03 225.745 298.665 233.381 308.05 233.381H351.446C361.159 233.381 369.06 241.282 369.06 250.994V293.173" fill="#64A4FF"/>
<path d="M191.125 93.1911C191.125 93.1911 197.822 119.859 181.742 127.15C165.663 134.439 168.743 121.091 168.743 121.091C168.743 121.091 162.148 119.259 180.096 109.083C188.556 104.287 191.125 93.1911 191.125 93.1911" fill="#BBD070"/>
<path d="M233.235 95.5186C233.235 95.5186 236.531 118.764 206.101 128.813C175.669 138.861 171.336 151.607 171.336 151.607C171.336 151.607 170.425 100.085 233.235 95.5186" fill="#97A43C"/>
<path d="M171.2 142.14C162.176 138.696 183.625 120.228 200.108 120.727C216.592 121.226 227.762 127.326 238.803 124.748C238.803 124.748 215.634 159.099 171.2 142.14Z" fill="#48753A"/>
<path d="M128.314 187.194C128.409 180.634 137.144 168.433 137.144 168.433C137.144 168.433 137.548 168.261 137.554 168.278C137.559 168.284 138.004 168.216 138.004 168.222C138.013 168.222 139.361 166.937 139.37 166.937C139.691 168.103 142.585 184.582 143.294 194.175C135.09 192.563 128.266 190.323 128.314 187.194V187.194ZM201.517 157.57C202.036 150.559 202.397 144.002 202.603 137.888C200.911 136.992 198.878 135.944 197.251 135.172C192.214 132.774 185.197 129.545 180.695 127.479C178.059 126.268 175.477 125.383 175.477 125.383C175.477 125.383 157.482 123.659 156.021 123.751C155.56 123.778 153.311 124.561 150.361 125.686C143.979 128.108 131.677 133.038 129.718 134.445C126.845 136.502 116.566 186.889 116.293 190.31C116.026 193.634 130.273 198.183 143.466 201.667C143.457 206.774 143.353 213.931 143.237 220.464C143.22 221.58 143.199 222.675 143.178 223.738H200.907C200.83 222.616 200.762 221.508 200.706 220.464C200.7 220.324 200.691 220.188 200.685 220.051C200.465 215.626 199.605 207.701 199.824 199.983C199.824 199.983 199.685 191.848 200.492 188.346C200.581 172.882 201.517 157.57 201.517 157.57" fill="#DBD8E3"/>
<path d="M202.584 220.464C202.204 217.73 201.845 214.999 201.521 212.325C201.521 212.31 201.516 212.302 201.516 212.286C201.411 211.396 201.305 210.518 201.204 209.642C201.198 209.6 201.195 209.553 201.189 209.503C200.767 205.82 200.418 202.287 200.165 199.052C199.976 196.573 200.147 194.152 200.488 191.783C201.492 175.241 201.991 157.801 201.991 157.801C202.519 150.663 202.822 143.991 203.024 137.773C203.024 137.773 180.427 127.093 178.379 126.481C178.379 126.481 182.665 136.547 185.88 159.042C187.114 167.682 189.403 182.226 191.065 197.069V197.072C191.964 205.083 193.65 213.242 194.932 220.464C195.128 221.58 195.315 222.672 195.487 223.738H203.05C202.889 222.649 202.736 221.556 202.584 220.464" fill="#323657"/>
<path d="M137.779 181.236C137.581 173.709 137.616 168.457 137.616 168.457C138.361 171.036 139.391 178.405 140.299 185.731C137.245 184.194 137.818 182.756 137.779 181.236V181.236ZM164.964 193.893C165.854 185.529 166.656 177.182 166.27 172.609C163.153 135.84 154.335 126.108 153.056 124.683C152.067 125.06 148.304 126.473 147.202 126.909C141.171 129.287 128.878 133.644 127.221 134.834C124.349 136.891 113.022 189.715 112.68 193.13C112.452 195.44 127.234 200.265 142.314 204.573C142.175 208.707 142.566 214.539 141.192 220.629C140.951 221.709 140.596 222.392 140.54 223.82L161.562 223.738C161.69 222.651 161.823 221.562 161.958 220.464C162.357 217.178 162.776 213.813 163.191 210.236C169.496 211.868 173.782 212.919 173.782 212.919C173.782 212.919 179.704 202.907 181.422 198.853C181.716 198.162 174.093 196.33 164.964 193.893" fill="#323657"/>
<path d="M155.077 124.327C155.077 124.327 157.366 120.002 156.733 107.724C156.559 104.322 174.601 115.791 174.601 115.791C174.601 115.791 174.539 116.963 174.5 118.545C174.48 119.204 174.468 119.925 174.468 120.667C174.468 120.872 174.47 121.076 174.47 121.282C174.474 121.617 174.476 121.949 174.483 122.282C174.491 122.695 174.507 123.098 174.527 123.487C174.548 123.929 174.577 124.347 174.619 124.73C174.693 125.472 175.129 126.781 175.287 127.141C176.115 129.049 161.832 129.159 155.077 124.327" fill="#EEA987"/>
<path d="M170.203 132.137L173.528 136.604C173.528 136.604 171.58 139.213 168.12 137.287L170.203 132.137Z" fill="#E8734D"/>
<path d="M172.639 136.786C172.639 136.786 184.822 166.541 182.223 204.336L178.381 211.31L174.048 205.371C174.048 205.371 173.349 155.174 169.891 136.666L172.639 136.786" fill="#E8734D"/>
<path d="M173.764 127.971L170.204 132.137C170.204 132.137 164.49 131.03 162.813 128.045C161.135 125.06 173.764 127.971 173.764 127.971" fill="#EEA987"/>
<path d="M174.581 124.326C174.581 124.326 174.167 127.501 170.204 132.137L174.53 137.949L176.872 125.891L174.581 124.326" fill="#C4C1CC"/>
<path d="M156.164 120.507C156.164 120.507 164.426 129.852 170.204 132.137L167.517 138.782L154.33 124.236L156.164 120.507" fill="#C4C1CC"/>
<path d="M241.102 205.056C241.102 205.056 230.135 194.419 222.942 192.651C219.617 191.832 215.237 187.242 211.075 181.845C209.704 180.069 208.358 178.204 207.078 176.358C207.075 176.354 207.075 176.35 207.075 176.35C201.968 168.978 197.967 161.911 197.967 161.911C197.967 161.911 182.874 144.224 194.986 136.339C194.986 136.339 200.176 136.227 203.024 137.774C205.951 139.363 212.195 152.395 213.254 154.703C214.313 157.008 225.782 178.444 226.55 178.925C227.319 179.407 228.598 181.169 233.187 183.64C238.806 186.665 247.632 195.519 247.632 195.519L241.102 205.056Z" fill="#323657"/>
<path d="M188.459 217.365C188.459 217.365 186.926 217.303 186.27 216.949C186.27 216.949 185.124 216.215 184.278 215.742C184.009 215.591 183.771 215.467 183.609 215.403C182.933 215.135 181.368 214.749 179.926 213.648C178.483 212.549 173.782 208.151 173.782 208.151L176.821 203.48L178.224 198.854C178.224 198.854 189.185 199.944 190.647 200.813C190.789 200.899 190.927 200.988 191.049 201.082C192.216 201.938 192.725 203.066 193.286 203.584C193.491 203.776 195.4 205.82 195.293 206.648C195.146 207.799 194.578 208.537 193.864 208.887C193.864 208.887 193.477 211.126 192.319 212.128C192.319 212.128 192.029 214.206 190.234 215.041C190.234 215.041 189.703 217.116 188.459 217.365" fill="#EFAA88"/>
<path d="M171.006 76.0441C171.006 76.0441 190.817 71.2684 186.644 96.3512C182.471 121.435 177.719 123.47 165.65 118.47C153.582 113.469 154.42 97.4247 153.702 89.5741C152.982 81.7242 164.668 76.4104 171.006 76.0441" fill="#CA7CAB"/>
<path d="M160.596 93.4152C160.303 91.2119 155.928 90.4671 155.625 93.7809C155.323 97.0953 157.742 102.869 159.389 102.273C161.036 101.677 161.003 96.4532 160.596 93.4152Z" fill="#CA7CAB"/>
<path d="M154.86 102.397C154.86 102.397 155.256 94.5075 158.131 94.219C161.007 93.9305 161.496 97.0986 161.496 97.0986L164.412 97.6052C164.412 97.6052 163.391 90.71 166.248 89.4607C169.105 88.2114 184.929 92.9905 187.207 90.9287C189.484 88.8676 188.193 74.8699 183.991 73.0135C179.791 71.157 168.202 67.0288 159.842 72.8686C159.842 72.8686 153.249 72.2144 152.35 77.5409C151.452 82.8668 153.012 98.4733 154.86 102.397Z" fill="#16202E"/>
<path d="M181.962 198.854L173.782 212.918C173.782 212.918 152.112 207.334 147.056 205.908L158.614 192.151C158.614 192.151 175.655 196.044 181.962 198.854Z" fill="#323657"/>
<path d="M174.527 123.487H174.524C163.898 122.403 159.779 114.223 159.779 114.223C166.462 120.848 174.468 120.667 174.468 120.667C174.468 120.872 174.471 121.076 174.471 121.282C174.474 121.617 174.477 121.949 174.483 122.282C174.492 122.695 174.507 123.098 174.527 123.487" fill="#A77860"/>
<path d="M319.514 252.372L319.513 252.372C319.294 252.452 319.06 252.501 318.817 252.514C318.763 252.517 318.709 252.517 318.654 252.517C318.425 252.514 318.204 252.478 317.994 252.415C317.703 252.328 317.435 252.191 317.202 252.009C317.117 251.944 317.037 251.871 316.961 251.795C316.522 251.35 316.253 250.737 316.263 250.062C316.265 249.887 316.287 249.716 316.325 249.551C316.343 249.471 316.363 249.393 316.389 249.316C316.717 248.347 317.639 247.656 318.717 247.67C319.491 247.679 320.177 248.052 320.612 248.623C320.931 249.04 321.117 249.561 321.11 250.125C321.097 251.161 320.434 252.038 319.514 252.372V252.372ZM321.269 248.148C320.687 247.377 319.768 246.873 318.728 246.861C317.29 246.842 316.06 247.764 315.623 249.057C315.517 249.369 315.458 249.703 315.453 250.052C315.448 250.458 315.519 250.846 315.651 251.206C315.861 251.781 316.23 252.28 316.706 252.649C317.18 253.016 317.757 253.255 318.389 253.312C318.473 253.319 318.558 253.325 318.644 253.326C318.698 253.326 318.752 253.324 318.805 253.322C318.823 253.322 318.842 253.322 318.861 253.322C319.185 253.304 319.497 253.239 319.79 253.133C321.017 252.687 321.9 251.518 321.919 250.135C321.929 249.39 321.685 248.701 321.269 248.148" fill="#4DA8F2"/>
<path d="M197.339 187.303C209.655 199.981 225.927 215.947 225.927 215.947L232.288 203.871C232.288 203.871 217.835 186.928 208.037 175.622C205.034 177.094 199.52 180.607 197.339 187.303Z" fill="#CA7CAB"/>
<path d="M189.732 204.35C189.732 204.35 193.048 205.952 193.914 206.665C194.78 207.38 198.287 210.006 199.138 210.624C199.987 211.242 197.855 212.999 191.583 210.282C185.31 207.565 189.732 204.35 189.732 204.35Z" fill="#CA7CAB"/>
<path d="M190.022 168.062L184.242 221.793H260.309L266.089 168.062H190.022Z" fill="#CA7CAB"/>
<path d="M188.649 218.719H264.119L269.835 165.582H194.364L188.649 218.719ZM264.652 219.314H187.988L193.831 164.989H270.495L264.652 219.314Z" fill="#CA7CAB"/>
<path d="M178.189 216.959H190.894V221.793H178.189V216.959Z" fill="#CA7CAB"/>
<path d="M389.026 294.81H209.913V291.536H389.026V294.81Z" fill="#CA7CAB"/>
<path d="M220.942 194.065C220.33 197.056 221.726 199.868 224.059 200.344C226.391 200.821 228.778 198.782 229.389 195.791C230.001 192.799 228.606 189.987 226.273 189.511C223.939 189.034 221.553 191.073 220.942 194.065" fill="#CFA345"/>
<path d="M366.016 172.768C366.016 172.768 367.77 175.743 368.512 176.228C369.517 176.888 368.887 177.555 368.41 177.555C367.932 177.555 365.492 177.73 364.955 177.12C364.418 176.511 364.151 174.683 363.651 174.205C363.152 173.726 362.635 171.826 363.895 171.364C365.008 170.956 366.016 172.768 366.016 172.768" fill="#6069A8"/>
<path d="M365.256 171.459C365.256 171.459 367.266 174.943 367.612 175.458C367.959 175.972 366.96 175.971 366.342 175.726C365.723 175.483 364.167 172.984 363.942 172.529C363.676 171.986 363.895 171.364 363.895 171.364L365.256 171.459Z" fill="#202338"/>
<path d="M363.221 173.334L363.685 176.905L363.931 176.916L363.854 174.346L363.221 173.334" fill="#6069A8"/>
<path d="M348.616 172.768C348.616 172.768 350.371 175.743 351.112 176.228C352.117 176.888 351.487 177.555 351.01 177.555C350.532 177.555 348.093 177.73 347.556 177.12C347.018 176.511 346.752 174.683 346.252 174.205C345.752 173.726 345.219 171.777 346.495 171.364C347.615 171.002 348.616 172.768 348.616 172.768" fill="#6069A8"/>
<path d="M347.962 171.467C347.962 171.467 349.866 174.943 350.212 175.458C350.558 175.972 349.56 175.971 348.941 175.726C348.322 175.483 346.766 172.984 346.543 172.529C346.276 171.986 346.494 171.364 346.494 171.364L347.962 171.467Z" fill="#202338"/>
<path d="M345.821 173.334L346.285 176.905L346.53 176.916L346.454 174.346L345.821 173.334" fill="#6069A8"/>
<path d="M340.831 145.698L356.709 152.933C356.709 152.933 358.482 153.509 358.68 155.477C359.3 161.619 363.895 171.364 363.895 171.364C365.369 172.085 365.256 171.459 365.256 171.459C364.327 168.477 363.196 156.186 362.792 151.244C362.707 150.197 362.654 149.48 362.643 149.251C362.635 149.096 362.464 148.891 362.17 148.653C359.992 146.886 351.026 143.229 351.026 143.229C344.294 143.058 340.831 145.698 340.831 145.698" fill="#202338"/>
<path d="M337.838 148.805C338.33 153.097 344.456 152.605 344.456 152.605H351.881C351.881 152.605 349.932 156.945 349.178 160.606C348.379 164.49 346.495 171.364 346.495 171.364C346.495 171.364 346.619 171.598 347.962 171.467C347.962 171.467 353.791 159.85 356.022 156.93C356.502 156.301 357.877 152.89 358.114 150.855C358.194 150.17 358.145 149.641 357.889 149.427C357.631 149.211 357.039 148.805 356.25 148.307C353.924 146.84 349.885 144.582 347.634 144.077C344.621 143.399 339.853 142.13 339.853 142.13C339.853 142.13 337.347 144.513 337.838 148.805" fill="#202338"/>
<path d="M342.892 115.746C342.892 115.746 341.781 113.636 342.323 111.389C342.864 109.142 344.95 106.904 348.002 107.931C351.055 108.96 353.523 111.332 351.693 114.073C349.863 116.815 353.348 118.054 352.461 119.359C351.572 120.664 351.909 122.026 352.285 122.33C352.661 122.633 353.874 123.715 353.741 124.996C353.607 126.277 347.818 121.263 347.818 121.263C347.818 121.263 344.665 114.927 342.892 115.746" fill="#464240"/>
<path d="M352.198 142.714C352.198 142.714 351.737 144.947 339.878 142.128C339.878 142.128 343.854 140.807 352.198 142.714Z" fill="#EB4747"/>
<path d="M339.743 142.754C339.559 143.105 339.375 143.456 339.191 143.807C343.527 143.933 347.862 144.059 352.197 144.186C351.511 141.889 351.733 138.78 351.853 136.42C352 133.538 353.592 131.533 353.422 128.618C354.28 128.756 354.428 128.783 355.287 128.914C353.974 125.171 353.524 123.317 349.443 121.877C348.115 121.408 347.242 121.315 345.804 121.433C341.078 121.823 339.653 121.879 337.332 126.161C340.965 126.739 340.367 128.044 341.469 131.658C342.006 133.421 342.567 135.388 342.279 137.247C341.996 139.077 339.743 141.085 339.743 142.754" fill="#5F8CC9"/>
<path d="M347.285 122.784C345.35 122.418 345.762 121.343 345.762 121.343C345.762 121.343 345.852 120.736 345.886 119.969C345.896 119.772 345.901 119.565 345.901 119.355C345.899 119.036 345.884 118.71 345.847 118.403C345.689 117.106 349.358 117.879 349.358 117.879C349.358 117.879 349.147 120.507 349.652 121.294C350.158 122.081 349.219 123.149 347.285 122.784" fill="#CA7CAB"/>
<path d="M343.595 121.336C343.595 121.336 347.496 125.841 348.938 126.885C348.938 126.885 350.595 125.387 349.573 121.433C349.573 121.433 347.691 120.49 343.595 121.336" fill="#CA7CAB"/>
<path d="M343.701 110.494C343.701 110.494 341.675 114.398 343.685 118.095C345.694 121.793 349.642 116.485 349.898 115.863C350.153 115.24 351.507 111.718 348.814 110.647C346.121 109.577 344.275 109.435 343.701 110.494" fill="#CA7CAB"/>
<path d="M344.374 111.879C344.374 111.879 342.98 113.711 342.815 115.065C342.815 115.065 342.26 112.506 343.83 110.047C345.4 107.588 349.391 109.93 349.926 110.912C350.46 111.895 352.027 112.76 349.395 116.982C349.395 116.982 344.661 113.693 344.374 111.879Z" fill="#464240"/>
<path d="M347.613 118.485C347.613 118.485 347.261 119.253 345.887 119.969C345.896 119.772 345.901 119.565 345.901 119.355C345.901 119.355 346.831 119.242 347.613 118.485" fill="#A77860"/>
<path d="M327.137 139.242C327.137 139.242 326.174 139.67 325.717 139.476C325.26 139.281 324.554 139.244 324.331 139.243C324.033 139.243 323.101 138.91 323.117 139.274C323.133 139.638 324.631 139.893 324.938 140.007C325.244 140.12 324.02 140.794 323.906 141.093C323.793 141.392 325.174 143.356 325.953 142.796C326.732 142.237 327.154 141.12 327.313 141.049C327.471 140.978 327.897 140.664 327.897 140.664L327.137 139.242" fill="#CA7CAB"/>
<path d="M324.054 140.919C324.054 140.919 321.796 142.792 321.76 143.045C321.725 143.298 321.843 143.416 322.063 143.249C322.282 143.084 324.302 141.504 324.302 141.504C324.302 141.504 322.039 144.177 321.963 144.376C321.919 144.491 322.136 144.733 322.262 144.655C322.389 144.577 324.795 142.06 324.795 142.06C324.795 142.06 322.687 144.56 322.676 144.748C322.666 144.911 322.919 145.088 323.09 144.913C323.26 144.739 325.358 142.533 325.358 142.533C325.358 142.533 323.947 144.452 324.034 144.621C324.087 144.725 324.266 144.941 324.613 144.434C324.96 143.928 325.915 142.821 325.915 142.821L324.054 140.919" fill="#CA7CAB"/>
<path d="M351.108 152.605H344.457C344.457 152.605 338.33 153.097 337.839 148.805C337.348 144.513 339.853 142.13 339.853 142.13C339.853 142.13 343.09 142.992 345.915 143.674C347.331 143.373 349.036 143.178 351.026 143.229C351.026 143.229 363.005 147.186 362.644 149.27C362.644 149.27 357.634 146.591 351.108 152.605" fill="#CA7CAB"/>
<path d="M346.777 145.173L359.457 144.987L353.055 148.237L346.777 145.173Z" fill="#5E5853"/>
<path d="M350.717 143.553C350.717 143.553 347.865 144.658 344.368 143.659L344.204 142.354L351.403 142.754L350.717 143.553" fill="#5F8CC9"/>
<path d="M353.055 148.237L346.777 145.806V145.173L353.552 147.617L353.055 148.237" fill="#91887F"/>
<path d="M350.674 144.157C350.64 144.626 351.113 144.964 351.545 144.78L352.282 144.465C352.503 144.37 352.632 144.138 352.593 143.899C352.287 141.982 351.629 134.516 352.59 133.235C352.946 132.761 353.168 132.347 353.293 131.984C353.927 133.62 354.716 135.728 355.03 136.861L361.021 144.831L363.029 145.34C360.523 139.301 358.51 136.101 358.51 136.101C358.118 135.049 356.993 131.862 355.998 129.024C355.369 127.232 354.792 125.579 354.481 124.691C354.324 124.241 354.014 123.861 353.605 123.617C352.677 123.062 351.131 122.188 349.729 121.507C349.723 121.504 349.718 121.502 349.712 121.499C349.667 121.478 349.623 121.455 349.578 121.435C349.576 121.434 349.576 121.434 349.576 121.434C349.575 121.433 349.574 121.433 349.574 121.433C352.241 125.467 351.201 136.857 350.675 144.141C350.675 144.146 350.674 144.152 350.674 144.157" fill="#EDDAD3"/>
<path d="M340.777 121.778C339.923 121.91 337.806 123.965 336.682 126.04C335.398 128.408 334.092 131.104 333.112 131.991C331.312 133.622 326.274 139.387 326.033 139.247C325.942 139.194 327.415 140.969 327.603 141.052C327.697 141.093 335.885 133.997 336.672 132.916C337.418 131.891 339.412 127.59 340.009 127.684C340.009 127.684 340.009 127.686 340.01 127.687C340.01 127.688 340.011 127.688 340.011 127.688C340.057 127.786 340.782 129.36 341.469 131.658C341.481 131.697 341.492 131.735 341.504 131.773C341.977 133.377 341.934 135.118 341.677 137.073C341.484 138.551 340.381 140.964 339.716 142.14C339.637 142.281 339.657 142.549 339.743 142.754C339.743 142.754 339.743 142.754 339.743 142.754C339.795 142.876 339.87 142.976 339.961 143.008L342.366 143.899L342.931 144.109C343.337 144.26 343.764 144.181 344.083 143.949C344.344 143.76 344.534 143.467 344.579 143.114C345.114 139.002 345.79 134.8 346.329 133.218C348.695 126.273 345.404 121.055 345.404 121.055C345.404 121.055 341.527 121.498 340.777 121.778" fill="#EDDAD3"/>
<path d="M353.056 148.237L356.827 137.94L368.986 138.139L365.391 147.628L353.056 148.237" fill="#6E6760"/>
<path d="M360.718 142.495C360.347 143.237 360.458 144.045 360.968 144.299C361.478 144.554 362.191 144.16 362.562 143.418C362.933 142.676 362.821 141.869 362.312 141.614C361.802 141.359 361.088 141.754 360.718 142.495Z" fill="#807066"/>
<path d="M347.901 114.381C347.901 114.381 348.68 115.593 347.96 116.639C347.24 117.685 348.142 118.712 348.297 119.818C348.454 120.923 345.294 123.865 348.808 125.345C352.322 126.825 353.44 124.379 352.544 123.032C351.647 121.686 351.011 120.594 350.935 118.674C350.859 116.755 350.228 113.763 347.901 114.381" fill="#464240"/>
<path d="M330.727 109.351H338.057V115.784L336.938 114.664H330.727V109.351Z" fill="#7BBDBF"/>
<path d="M289.577 190.888C289.577 190.888 273.599 206.092 281.371 217.93C289.144 229.769 292.781 219.399 292.781 219.399C292.781 219.399 298.038 220.986 290.236 206.39C286.558 199.51 289.577 190.888 289.577 190.888" fill="#BBD070"/>
<path d="M260.035 174.404C260.035 174.404 247.83 188.747 264.147 208.61C280.465 228.473 277.936 238.973 277.936 238.973C277.936 238.973 300.651 204.439 260.035 174.404Z" fill="#97A43C"/>
<path d="M281.615 232.976C289.209 234.511 283.065 212.432 271.678 205.7C260.291 198.968 250.103 198.312 243.725 191.829C243.725 191.829 244.222 225.414 281.615 232.976Z" fill="#48753A"/>
<path d="M231.988 242.661C231.988 242.661 232.336 241.799 232.394 241.668C232.451 241.538 232.786 241.326 233.191 241.116C233.598 240.907 234.241 240.804 234.309 240.843C234.378 240.881 234.465 240.887 234.555 241.07C234.643 241.251 234.618 241.454 234.618 241.454C234.618 241.454 234.833 241.626 234.784 241.874C234.784 241.874 234.979 242.045 234.876 242.316C234.876 242.316 235.062 242.49 234.971 242.68C234.971 242.68 234.635 242.893 234.533 243.008C234.432 243.123 233.704 243.518 232.947 243.79C232.947 243.79 232.145 243.805 231.988 242.661" fill="#CA7CAB"/>
<path d="M233.222 242.19C233.222 242.19 233.23 242.657 233.166 242.789C233.103 242.922 234.113 243.215 234.113 243.215C234.113 243.215 233.79 242.194 233.222 242.19Z" fill="#CF8C6C"/>
<path d="M214.357 287.844L214.799 286.469L216.667 286.771L216.388 288.012L214.357 287.844Z" fill="#3B3F66"/>
<path d="M229.669 287.681L229.774 288.437L231.818 288.096L231.709 286.968L229.669 287.681" fill="#555C94"/>
<path d="M225.241 266.503C225.241 266.503 224.94 268.144 224.59 269.966C224.529 270.283 224.468 270.606 224.405 270.926C224.063 272.682 223.717 274.37 223.59 274.719C223.3 275.514 217.039 286.986 217.039 286.986C217.039 286.986 214.479 286.791 214.383 286.462C214.383 286.462 219.632 274.005 219.602 273.55C219.573 273.097 220.243 260.326 220.243 260.326C220.243 260.326 225.102 265.766 225.241 266.503" fill="#354C70"/>
<path d="M228.101 259.596C228.101 259.596 230.55 272.141 230.76 273.101C230.97 274.062 231.898 286.913 231.898 286.913C231.898 286.913 231.347 288.048 229.313 287.62C229.313 287.62 226.54 273.813 226.307 273.35C225.4 271.555 220.949 262.856 220.517 261.615C220.086 260.373 220.213 258.925 220.213 258.925C220.213 258.925 223.52 257.066 228.101 259.596" fill="#354C70"/>
<path d="M227.071 243.348C227.071 243.348 228.145 246.026 228.415 245.948C228.685 245.868 231.773 242.242 231.773 242.242C231.773 242.242 233.186 244.005 232.996 244.207C232.733 244.489 229.086 250.552 228.584 250.443C228.082 250.333 225.84 246.627 225.84 246.627C225.84 246.627 225.713 243.832 227.071 243.348Z" fill="#7BBDBF"/>
<path d="M222.476 238.232C222.476 238.232 225.262 240.363 226.032 241.207C226.8 242.052 228.923 245.555 228.77 246.609C228.184 250.649 227.905 254.092 227.886 256.848C227.871 259.249 228.636 259.862 228.159 259.898C227.613 259.939 220.601 262.48 219.563 262.789C219.563 262.789 220.244 254.334 220.588 253.358C220.933 252.382 219.486 242.158 222.476 238.232Z" fill="#6AAFB1"/>
<path d="M240.421 234.193L241.046 237.343L241.671 240.493C241.671 240.493 238.094 239.373 234.034 240.18L233.758 238.79L233.48 237.392C237.541 236.586 240.421 234.193 240.421 234.193Z" fill="#D9D0C4"/>
<path d="M229.773 288.437C229.773 288.437 231.316 288.138 231.371 288.092C231.425 288.044 231.756 287.435 231.994 287.541C232.233 287.648 232.236 288.389 232.469 288.515C232.703 288.641 234.544 289.885 234.771 290.112C234.997 290.338 236.393 290.205 236.552 290.599C236.713 290.993 236.726 291.923 234.644 291.704C232.563 291.485 230.187 291.823 229.738 291.578C229.29 291.332 229.63 289.036 229.773 288.437" fill="#4D4879"/>
<path d="M214.334 287.81C214.334 287.81 215.906 287.762 215.966 287.724C216.027 287.687 216.451 287.138 216.67 287.282C216.889 287.425 216.773 288.157 216.983 288.319C217.193 288.48 218.813 290.003 219 290.263C219.187 290.524 220.585 290.615 220.68 291.03C220.776 291.443 220.639 292.364 218.621 291.814C216.601 291.266 214.201 291.219 213.798 290.905C213.395 290.59 214.097 288.379 214.334 287.81" fill="#4D4879"/>
<path d="M226.537 260.177C226.537 260.177 226.725 260.942 227.026 261.107C227.327 261.273 225.62 262.906 225.62 262.906C225.62 262.906 224.927 261.392 224.946 261.239C224.965 261.087 226.537 260.177 226.537 260.177" fill="#EEA987"/>
<path d="M221.238 241.536C221.238 241.536 219.239 251.048 219.074 252.022C218.919 252.944 224.938 261.745 224.938 261.745L226.938 260.558C226.938 260.558 222.083 251.728 222.09 251.325C222.096 250.922 224.42 243.254 224.42 243.254C224.42 243.254 225.392 241.584 223.669 240.773C221.946 239.962 221.238 241.536 221.238 241.536" fill="#7BBDBF"/>
<path d="M227.71 260.834C227.71 260.834 228.36 264.069 228.32 265.06C228.28 266.05 224.587 263.5 224.775 262.515L227.71 260.834Z" fill="#3C5780"/>
<path d="M222.476 238.233C222.476 238.233 227.551 243.776 227.238 243.162C226.123 240.971 225.346 240.601 225.362 240.192C225.374 239.879 225.496 238.968 225.517 238.663C225.557 238.082 225.599 237.609 225.599 237.609C225.599 237.609 223.079 234.07 223.191 235.276C223.302 236.482 222.476 238.233 222.476 238.233Z" fill="#CA7CAB"/>
<path d="M227.309 231.707C227.309 231.707 228.007 233.345 228.017 233.728C228.026 234.112 227.93 234.406 227.99 234.847C228.051 235.305 228.434 236.265 228.387 236.53C228.33 236.851 227.655 236.684 227.561 237.213C227.468 237.741 226.977 238.734 226.733 238.754C226.104 238.805 223.698 237.825 223.545 237.321C223.392 236.818 222.52 234.011 222.249 233.477C221.978 232.943 226.487 230.018 226.899 230.863C227.309 231.707 227.309 231.707 227.309 231.707Z" fill="#CA7CAB"/>
<path d="M221.177 232.922C220.859 231.533 222.456 231.361 222.456 231.361C222.456 231.361 223.496 230.15 225.985 230.294C228.474 230.438 228.095 233.686 228.095 233.686C228.095 233.686 226.372 233.429 225.624 233.619C225.624 233.619 225.532 235.006 225.614 235.35L224.674 235.266C224.674 235.266 224.779 234.034 224.329 233.976C223.878 233.918 223.726 236.583 222.887 237.17C222.887 237.17 222.878 236.982 222.773 236.797C222.606 236.504 222.345 236.013 222.121 235.438C221.755 234.633 221.34 233.634 221.177 232.922" fill="#16202E"/>
<path d="M224.954 234.274C224.954 234.274 224.605 233.334 223.779 233.944C223.178 234.388 223.796 235.974 224.381 235.966C224.965 235.959 225.202 235.095 224.954 234.274" fill="#CA7CAB"/>
<path d="M223.409 236.881C223.409 236.881 223.533 237.381 223.667 237.496C223.801 237.614 224.433 238.126 225.531 238.471L225.433 239.455C225.433 239.455 223.3 238.632 223.409 236.881" fill="#C48A6F"/>
<path d="M232.464 240.01V243.778H232.426V240.01H232.464Z" fill="#96CBFF"/>
<path d="M232.503 240.01V243.778H232.464V240.01H232.503Z" fill="#95CAFF"/>
<path d="M232.543 240.01V243.778H232.504V240.01H232.543Z" fill="#94C9FF"/>
<path d="M232.582 240.01V243.778H232.543V240.01H232.582Z" fill="#93C9FF"/>
<path d="M232.621 240.01V243.778H232.582V240.01H232.621Z" fill="#92C8FF"/>
<path d="M232.66 240.01V243.778H232.62V240.01H232.66Z" fill="#91C7FF"/>
<path d="M232.698 240.01V243.778H232.66V240.01H232.698Z" fill="#90C6FF"/>
<path d="M232.738 240.01V243.778H232.698V240.01H232.738Z" fill="#8FC6FF"/>
<path d="M232.777 240.01V243.778H232.738V240.01H232.777Z" fill="#8EC5FF"/>
<path d="M232.815 240.01V243.778H232.775V240.01H232.815Z" fill="#8DC4FF"/>
<path d="M232.854 240.01V243.778H232.815V240.01H232.854Z" fill="#8CC3FF"/>
<path d="M232.893 240.01V243.778H232.854V240.01H232.893Z" fill="#8BC2FF"/>
<path d="M232.932 240.01V243.778H232.894V240.01H232.932Z" fill="#8AC2FF"/>
<path d="M232.972 240.01V243.778H232.933V240.01H232.972Z" fill="#89C1FF"/>
<path d="M233.011 240.01V243.778H232.972V240.01H233.011Z" fill="#88C0FF"/>
<path d="M233.049 240.01V243.778H233.01V240.01H233.049Z" fill="#87BFFF"/>
<path d="M233.088 240.01V243.778H233.05V240.01H233.088Z" fill="#86BFFF"/>
<path d="M233.127 240.01V243.778H233.088V240.01H233.127Z" fill="#85BEFF"/>
<path d="M233.166 240.01V243.778H233.127V240.01H233.166Z" fill="#84BDFF"/>
<path d="M233.206 240.01V243.778H233.166V240.01H233.206Z" fill="#83BCFF"/>
<path d="M233.244 240.01V243.778H233.205V240.01H233.244Z" fill="#82BBFF"/>
<path d="M233.282 240.01V243.778H233.244V240.01H233.282Z" fill="#81BBFF"/>
<path d="M233.323 240.01V243.778H233.283V240.01H233.323Z" fill="#80BAFF"/>
<path d="M233.361 240.01V243.778H233.322V240.01H233.361Z" fill="#7FB9FF"/>
<path d="M233.4 240.01V243.778H233.361V240.01H233.4Z" fill="#7EB8FF"/>
<path d="M233.438 240.01V243.778H233.399V240.01H233.438Z" fill="#7DB7FF"/>
<path d="M233.478 240.01V243.778H233.439V240.01H233.478Z" fill="#7CB7FF"/>
<path d="M233.517 240.01V243.778H233.478V240.01H233.517Z" fill="#7BB6FF"/>
<path d="M233.556 240.01V243.778H233.518V240.01H233.556Z" fill="#7AB5FF"/>
<path d="M233.595 240.01V243.778H233.556V240.01H233.595Z" fill="#79B4FF"/>
<path d="M233.634 240.01V243.778H233.595V240.01H233.634Z" fill="#78B4FF"/>
<path d="M233.672 240.01V243.778H233.634V240.01H233.672Z" fill="#77B3FF"/>
<path d="M233.712 240.01V243.778H233.673V240.01H233.712Z" fill="#76B2FF"/>
<path d="M233.75 240.01V243.778H233.712V240.01H233.75Z" fill="#74B1FF"/>
<path d="M233.79 240.01V243.778H233.75V240.01H233.79Z" fill="#73B0FF"/>
<path d="M233.829 240.01V243.778H233.79V240.01H233.829Z" fill="#72B0FF"/>
<path d="M233.868 240.01V243.778H233.829V240.01H233.868Z" fill="#71AFFF"/>
<path d="M233.906 240.01V243.778H233.867V240.01H233.906Z" fill="#70AEFF"/>
<path d="M233.947 240.01V243.778H233.907V240.01H233.947Z" fill="#6FADFF"/>
<path d="M233.985 240.01V243.778H233.946V240.01H233.985Z" fill="#6EADFF"/>
<path d="M234.024 240.01V243.778H233.984V240.01H234.024Z" fill="#6DACFF"/>
<path d="M234.062 240.01V243.778H234.023V240.01H234.062Z" fill="#6CABFF"/>
<path d="M234.102 240.01V243.778H234.062V240.01H234.102Z" fill="#6BAAFF"/>
<path d="M234.14 240.01V243.778H234.102V240.01H234.14Z" fill="#6AA9FF"/>
<path d="M234.18 240.01V243.778H234.141V240.01H234.18Z" fill="#69A9FF"/>
<path d="M234.219 240.01V243.778H234.18V240.01H234.219Z" fill="#68A8FF"/>
<path d="M234.258 240.01V243.778H234.219V240.01H234.258Z" fill="#67A7FF"/>
<path d="M234.297 240.01V243.778H234.258V240.01H234.297Z" fill="#66A6FF"/>
<path d="M234.335 240.01V243.778H234.296V240.01H234.335Z" fill="#65A6FF"/>
<path d="M234.374 240.01V243.778H234.336V240.01H234.374Z" fill="#64A5FF"/>
<path d="M234.414 240.01V243.778H234.374V240.01H234.414Z" fill="#63A4FF"/>
<path d="M234.452 240.01V243.778H234.414V240.01H234.452Z" fill="#62A3FF"/>
<path d="M234.492 240.01V243.778H234.452V240.01H234.492Z" fill="#61A2FF"/>
<path d="M234.531 240.01V243.778H234.492V240.01H234.531Z" fill="#60A2FF"/>
<path d="M234.569 240.01V243.778H234.53V240.01H234.569Z" fill="#5FA1FF"/>
<path d="M234.608 240.01V243.778H234.569V240.01H234.608Z" fill="#5EA0FF"/>
<path d="M234.647 240.01V243.778H234.608V240.01H234.647Z" fill="#5D9FFF"/>
<path d="M234.686 240.01V243.778H234.647V240.01H234.686Z" fill="#5C9EFF"/>
<path d="M234.726 240.01V243.778H234.687V240.01H234.726Z" fill="#5B9EFF"/>
<path d="M234.764 240.01V243.778H234.726V240.01H234.764Z" fill="#5A9DFF"/>
<path d="M234.803 240.01V243.778H234.764V240.01H234.803Z" fill="#599CFF"/>
<path d="M234.842 240.01V243.778H234.804V240.01H234.842Z" fill="#589BFF"/>
<path d="M234.881 240.01V243.778H234.842V240.01H234.881Z" fill="#579BFF"/>
<path d="M234.921 240.01V243.778H234.882V240.01H234.921Z" fill="#569AFF"/>
<path d="M234.959 240.01V243.778H234.92V240.01H234.959Z" fill="#59529C"/>
<path d="M234.2 240.893C234.2 240.893 233.184 241.451 233.254 241.626C233.324 241.801 233.454 241.823 233.454 241.823L233.14 242.241C233.14 242.241 233.089 242.637 233.534 242.577C233.534 242.577 233.448 242.941 233.871 242.832C233.871 242.832 233.921 243.097 234.126 243.082C234.331 243.066 234.97 242.68 234.97 242.68C234.97 242.68 235.068 242.538 234.875 242.316C234.875 242.316 234.989 242.062 234.784 241.874C234.784 241.874 234.841 241.656 234.617 241.454C234.617 241.454 234.711 240.958 234.309 240.843C234.309 240.843 234.243 240.87 234.2 240.893" fill="#DB9C7C"/>
<path d="M230.736 237.155V240.76H230.673V237.155H230.736Z" fill="#96CBFF"/>
<path d="M230.799 237.155V240.76H230.735V237.155H230.799Z" fill="#95CAFF"/>
<path d="M230.863 237.155V240.76H230.799V237.155H230.863Z" fill="#94C9FF"/>
<path d="M230.926 237.155V240.76H230.863V237.155H230.926Z" fill="#93C9FF"/>
<path d="M230.991 237.155V240.76H230.927V237.155H230.991Z" fill="#92C8FF"/>
<path d="M231.054 237.155V240.76H230.99V237.155H231.054Z" fill="#91C7FF"/>
<path d="M231.118 237.155V240.76H231.055V237.155H231.118Z" fill="#90C6FF"/>
<path d="M231.181 237.155V240.76H231.118V237.155H231.181Z" fill="#8FC6FF"/>
<path d="M231.244 237.155V240.76H231.181V237.155H231.244Z" fill="#8EC5FF"/>
<path d="M231.308 237.155V240.76H231.244V237.155H231.308Z" fill="#8DC4FF"/>
<path d="M231.373 237.155V240.76H231.309V237.155H231.373Z" fill="#8CC3FF"/>
<path d="M231.436 237.155V240.76H231.373V237.155H231.436Z" fill="#8BC2FF"/>
<path d="M231.5 237.155V240.76H231.437V237.155H231.5Z" fill="#8AC2FF"/>
<path d="M231.564 237.155V240.76H231.5V237.155H231.564Z" fill="#89C1FF"/>
<path d="M231.627 237.155V240.76H231.563V237.155H231.627Z" fill="#88C0FF"/>
<path d="M231.691 237.155V240.76H231.627V237.155H231.691Z" fill="#87BFFF"/>
<path d="M231.754 237.155V240.76H231.69V237.155H231.754Z" fill="#86BFFF"/>
<path d="M231.818 237.155V240.76H231.754V237.155H231.818Z" fill="#85BEFF"/>
<path d="M231.881 237.155V240.76H231.817V237.155H231.881Z" fill="#84BDFF"/>
<path d="M231.946 237.155V240.76H231.882V237.155H231.946Z" fill="#83BCFF"/>
<path d="M232.009 237.155V240.76H231.945V237.155H232.009Z" fill="#82BBFF"/>
<path d="M232.073 237.155V240.76H232.009V237.155H232.073Z" fill="#81BBFF"/>
<path d="M232.136 237.155V240.76H232.073V237.155H232.136Z" fill="#80BAFF"/>
<path d="M232.199 237.155V240.76H232.136V237.155H232.199Z" fill="#7FB9FF"/>
<path d="M232.264 237.155V240.76H232.2V237.155H232.264Z" fill="#7EB8FF"/>
<path d="M232.327 237.155V240.76H232.264V237.155H232.327Z" fill="#7DB7FF"/>
<path d="M232.39 237.155V240.76H232.326V237.155H232.39Z" fill="#7CB7FF"/>
<path d="M232.453 237.155V240.76H232.39V237.155H232.453Z" fill="#7BB6FF"/>
<path d="M232.518 237.155V240.76H232.454V237.155H232.518Z" fill="#7AB5FF"/>
<path d="M232.581 237.155V240.76H232.518V237.155H232.581Z" fill="#79B4FF"/>
<path d="M232.645 237.155V240.76H232.581V237.155H232.645Z" fill="#78B4FF"/>
<path d="M232.708 237.155V240.76H232.645V237.155H232.708Z" fill="#77B3FF"/>
<path d="M232.772 237.155V240.76H232.709V237.155H232.772Z" fill="#76B2FF"/>
<path d="M232.835 237.155V240.76H232.771V237.155H232.835Z" fill="#74B1FF"/>
<path d="M232.9 237.155V240.76H232.836V237.155H232.9Z" fill="#73B0FF"/>
<path d="M232.963 237.155V240.76H232.899V237.155H232.963Z" fill="#72B0FF"/>
<path d="M233.026 237.155V240.76H232.963V237.155H233.026Z" fill="#71AFFF"/>
<path d="M233.091 237.155V240.76H233.026V237.155H233.091Z" fill="#70AEFF"/>
<path d="M233.154 237.155V240.76H233.09V237.155H233.154Z" fill="#6FADFF"/>
<path d="M233.218 237.155V240.76H233.154V237.155H233.218Z" fill="#6EADFF"/>
<path d="M233.281 237.155V240.76H233.218V237.155H233.281Z" fill="#6DACFF"/>
<path d="M233.345 237.155V240.76H233.281V237.155H233.345Z" fill="#6CABFF"/>
<path d="M233.408 237.155V240.76H233.345V237.155H233.408Z" fill="#6BAAFF"/>
<path d="M233.471 237.155V240.76H233.408V237.155H233.471Z" fill="#6AA9FF"/>
<path d="M233.535 237.155V240.76H233.472V237.155H233.535Z" fill="#69A9FF"/>
<path d="M233.599 237.155V240.76H233.535V237.155H233.599Z" fill="#68A8FF"/>
<path d="M233.664 237.155V240.76H233.6V237.155H233.664Z" fill="#67A7FF"/>
<path d="M233.726 237.155V240.76H233.663V237.155H233.726Z" fill="#66A6FF"/>
<path d="M233.79 237.155V240.76H233.727V237.155H233.79Z" fill="#65A6FF"/>
<path d="M233.854 237.155V240.76H233.79V237.155H233.854Z" fill="#64A5FF"/>
<path d="M233.917 237.155V240.76H233.854V237.155H233.917Z" fill="#63A4FF"/>
<path d="M233.981 237.155V240.76H233.918V237.155H233.981Z" fill="#62A3FF"/>
<path d="M234.044 237.155V240.76H233.98V237.155H234.044Z" fill="#61A2FF"/>
<path d="M234.109 237.155V240.76H234.045V237.155H234.109Z" fill="#60A2FF"/>
<path d="M234.172 237.155V240.76H234.108V237.155H234.172Z" fill="#5FA1FF"/>
<path d="M234.236 237.155V240.76H234.172V237.155H234.236Z" fill="#5EA0FF"/>
<path d="M234.299 237.155V240.76H234.235V237.155H234.299Z" fill="#5D9FFF"/>
<path d="M234.364 237.155V240.76H234.3V237.155H234.364Z" fill="#5C9EFF"/>
<path d="M234.426 237.155V240.76H234.363V237.155H234.426Z" fill="#5B9EFF"/>
<path d="M234.49 237.155V240.76H234.427V237.155H234.49Z" fill="#5A9DFF"/>
<path d="M234.554 237.155V240.76H234.49V237.155H234.554Z" fill="#599CFF"/>
<path d="M234.617 237.155V240.76H234.554V237.155H234.617Z" fill="#589BFF"/>
<path d="M234.681 237.155V240.76H234.617V237.155H234.681Z" fill="#579BFF"/>
<path d="M234.745 237.155V240.76H234.681V237.155H234.745Z" fill="#569AFF"/>
<path d="M234.809 237.155V240.76H234.745V237.155H234.809Z" fill="#59529C"/>
<path d="M232.424 241.648C232.424 241.648 233.219 241.625 233.659 241.803C233.757 241.843 233.847 241.9 233.847 242.008C233.847 242.115 233.691 242.252 233.347 242.28C233.003 242.307 232.572 242.5 232.572 242.5C232.572 242.5 232.21 242.424 232.424 241.648" fill="#CA7CAB"/>
<path d="M224.589 269.966C224.528 270.283 224.467 270.606 224.404 270.926L222.37 265.543C222.638 266.087 224.589 269.966 224.589 269.966Z" fill="#293B57"/>
<path d="M112.684 205.834H80.5973C78.2269 205.834 76.3047 203.913 76.3047 201.543V150.855C76.3047 148.485 78.2269 146.562 80.5973 146.562H112.684C115.054 146.562 116.977 148.485 116.977 150.855V201.543C116.977 203.913 115.054 205.834 112.684 205.834Z" fill="#CA7CAB"/>
<path d="M112.655 184.84H110.548V200.878H112.655V184.84Z" fill="#E3F2FF"/>
<path d="M108.491 186.638H106.385V200.878H108.491V186.638Z" fill="#E3F2FF"/>
<path d="M103.969 188.975H101.861V200.878H103.969V188.975Z" fill="#E3F2FF"/>
<path d="M99.3222 191.923H97.2148V200.878H99.3222V191.923Z" fill="#E3F2FF"/>
<path d="M84.6418 190.023L84.1855 189.86L88.1588 178.712L96.7763 176.434L99.8733 164.197L106.524 161.263L108.013 151.748L108.492 151.823L106.962 161.599L100.286 164.546L97.1768 176.829L88.5298 179.117L84.6418 190.023" fill="#E3F2FF"/>
<path d="M97.9772 175.812C98.4294 176.365 98.3476 177.18 97.7947 177.633C97.2419 178.084 96.4267 178.002 95.9745 177.449C95.5223 176.897 95.6048 176.081 96.1577 175.63C96.7105 175.178 97.525 175.26 97.9772 175.812" fill="#CA7CAB"/>
<path d="M96.3116 175.818C95.8628 176.185 95.7957 176.847 96.1627 177.296C96.5297 177.745 97.1926 177.811 97.6407 177.445C98.0896 177.078 98.1567 176.414 97.7897 175.966C97.4234 175.518 96.7598 175.451 96.3116 175.818ZM97.948 177.82C97.2925 178.356 96.323 178.259 95.7876 177.602C95.2516 176.947 95.3488 175.977 96.0043 175.441C96.6598 174.906 97.6293 175.003 98.1654 175.659C98.7008 176.314 98.6042 177.284 97.948 177.82Z" fill="#E3F2FF"/>
<path d="M101.115 163.627C101.568 164.18 101.486 164.995 100.933 165.446C100.379 165.899 99.5643 165.817 99.1134 165.264C98.6612 164.711 98.7431 163.896 99.2959 163.444C99.8488 162.992 100.663 163.074 101.115 163.627Z" fill="#CA7CAB"/>
<path d="M99.4494 163.632C99.0006 163.999 98.9335 164.662 99.3005 165.11C99.6675 165.559 100.33 165.626 100.779 165.259C101.227 164.892 101.295 164.229 100.928 163.781C100.561 163.332 99.8976 163.265 99.4494 163.632ZM101.086 165.635C100.43 166.17 99.4608 166.073 98.9248 165.418C98.3894 164.761 98.4867 163.792 99.1422 163.257C99.7977 162.72 100.766 162.818 101.303 163.473C101.839 164.129 101.742 165.099 101.086 165.635Z" fill="#E3F2FF"/>
<path d="M107.662 160.608C108.115 161.161 108.033 161.976 107.479 162.428C106.926 162.88 106.112 162.798 105.66 162.245C105.208 161.693 105.29 160.877 105.843 160.425C106.396 159.974 107.21 160.056 107.662 160.608Z" fill="#CA7CAB"/>
<path d="M105.997 160.613C105.548 160.98 105.482 161.643 105.849 162.092C106.215 162.541 106.878 162.607 107.327 162.24C107.776 161.874 107.842 161.21 107.475 160.762C107.109 160.313 106.445 160.247 105.997 160.613ZM107.634 162.616C106.978 163.152 106.009 163.054 105.473 162.398C104.937 161.743 105.035 160.773 105.69 160.238C106.346 159.702 107.315 159.799 107.851 160.455C108.387 161.11 108.289 162.08 107.634 162.616" fill="#E3F2FF"/>
<path d="M89.3935 178.206C89.8457 178.759 89.7639 179.573 89.211 180.025C88.6575 180.477 87.843 180.395 87.3908 179.843C86.9386 179.29 87.0204 178.475 87.5733 178.023C88.1268 177.571 88.9413 177.653 89.3935 178.206Z" fill="#CA7CAB"/>
<path d="M87.7276 178.211C87.2788 178.577 87.2117 179.24 87.5787 179.689C87.945 180.137 88.6086 180.204 89.0568 179.838C89.5056 179.471 89.5727 178.808 89.2057 178.359C88.8394 177.91 88.1758 177.844 87.7276 178.211ZM89.364 180.214C88.7085 180.749 87.739 180.652 87.2036 179.996C86.6676 179.341 86.7649 178.371 87.4204 177.835C88.0759 177.3 89.0454 177.396 89.5814 178.052C90.1168 178.708 90.0195 179.678 89.364 180.214Z" fill="#E3F2FF"/>
<path d="M92.6444 166.069H81.5539C81.0413 166.069 80.626 165.653 80.626 165.14V164.315C80.626 163.802 81.0413 163.387 81.5539 163.387H92.6444C93.157 163.387 93.573 163.802 93.573 164.315V165.14C93.573 165.653 93.157 166.069 92.6444 166.069Z" fill="#EBEBEB"/>
<path d="M92.6444 161.38H81.5539C81.0413 161.38 80.626 160.965 80.626 160.451V159.626C80.626 159.114 81.0413 158.698 81.5539 158.698H92.6444C93.157 158.698 93.573 159.114 93.573 159.626V160.451C93.573 160.965 93.157 161.38 92.6444 161.38Z" fill="#EBEBEB"/>
<path d="M71.3332 168.227C71.3332 168.227 70.9581 171.929 71.6418 172.858C71.6418 172.858 69.831 172.463 69.4116 171.84C68.9923 171.216 71.3332 168.227 71.3332 168.227Z" fill="#16202E"/>
<path d="M82.6404 180.049C82.6404 180.049 83.2973 179.608 83.3999 179.544C83.5019 179.48 83.8394 179.49 84.2258 179.536C84.6123 179.582 85.1135 179.817 85.1437 179.878C85.1739 179.937 85.2329 179.984 85.2088 180.154C85.1839 180.324 85.0699 180.455 85.0699 180.455C85.0699 180.455 85.1383 180.679 84.986 180.83C84.986 180.83 85.041 181.044 84.8391 181.187C84.8391 181.187 84.8874 181.397 84.7324 181.488C84.7324 181.488 84.3942 181.477 84.2681 181.51C84.1413 181.542 83.4395 181.473 82.7766 181.303C82.7766 181.303 82.0366 181.144 82.6404 180.049" fill="#CA7CAB"/>
<path d="M83.759 180.355C83.759 180.355 83.5611 180.701 83.4564 180.77C83.3517 180.838 83.9623 181.495 83.9623 181.495C83.9623 181.495 84.1716 180.607 83.759 180.355Z" fill="#CF8C6C"/>
<path d="M82.2515 180.113C82.2515 180.113 82.6648 180.067 82.9204 179.949C83.1754 179.831 82.8728 181.236 82.8728 181.236C82.8728 181.236 82.2535 180.809 81.8496 180.797C81.4457 180.784 82.2515 180.113 82.2515 180.113Z" fill="#CA7CAB"/>
<path d="M65.1251 217.529C65.1251 217.529 66.4172 219.418 66.8676 219.819C66.8676 219.819 67.7695 220.286 67.797 220.66C67.85 221.367 67.8876 221.783 66.7015 221.816C65.5153 221.85 64.7744 221.813 64.5569 221.095C64.3402 220.376 63.9654 219.813 63.9654 219.813L63.875 221.682H63.6077C63.6077 221.682 63.4881 219.809 63.4711 219.541C63.4548 219.274 63.2792 218.247 63.8432 217.791C64.407 217.337 65.1251 217.529 65.1251 217.529Z" fill="#162D40"/>
<path d="M67.0404 219.915C67.0404 219.915 66.3994 220.097 65.637 219.905C64.8743 219.713 64.1424 217.887 63.9195 217.735L63.7217 216.998H65.2082C65.2082 216.998 65.2208 217.543 65.4606 218.01C65.7009 218.476 67.0404 219.915 67.0404 219.915Z" fill="#162D40"/>
<path d="M73.5132 216.823C73.5132 216.823 73.7071 217.281 74.0727 217.758C74.3418 218.108 75.1757 219.546 75.5434 219.646C75.9104 219.746 77.0463 219.946 77.1463 220.581C77.2469 221.216 77.2966 221.667 76.1774 221.717C75.0583 221.766 74.3237 221.834 73.7889 221.049C73.2549 220.264 72.4028 219.695 72.4028 219.695V221.744H71.9687C71.9687 221.744 71.7688 219.612 71.6513 219.462C71.5346 219.312 71.234 217.675 72.2693 216.823C73.3052 215.971 73.5132 216.823 73.5132 216.823" fill="#162D40"/>
<path d="M75.5428 219.646C75.5428 219.646 74.5405 219.896 74.156 219.646C73.7723 219.395 72.466 217.188 72.0332 217.056C72.0332 217.056 72.4525 216.205 73.5126 216.823C73.5126 216.823 75.2584 219.278 75.5428 219.646" fill="#162D40"/>
<path d="M64.5564 186.15C64.5564 186.15 63.1433 187.987 62.7601 190.168C62.3767 192.347 62.9868 199.662 62.9698 200.739C62.9533 201.817 62.0197 205.169 62.2194 207.198C62.4199 209.227 63.4695 217.698 63.4695 217.698L65.9179 217.653C65.9179 217.653 65.4273 208.514 65.5526 207.662C65.6776 206.81 66.0767 203.186 66.1266 202.835C66.1769 202.485 68.9158 193.21 68.9158 191.638C68.9158 190.067 67.9637 183.587 64.5564 186.15" fill="#1D3B54"/>
<path d="M71.655 186.869C71.655 186.869 73.9765 195.729 74.2516 196.957C74.5273 198.184 75.0781 199.787 75.0533 200.013C75.0285 200.238 74.7615 204.021 74.7615 204.021L74.1013 216.898H71.655C71.655 216.898 70.8701 208.705 70.7439 207.052C70.6191 205.399 71.6463 202.844 71.3954 202.142C71.1451 201.441 67.3618 193.349 67.3618 193.349C67.3618 193.349 64.4981 184.297 71.655 186.869Z" fill="#1D3B54"/>
<path d="M70.9366 173.607C70.9366 173.607 71.8645 173.695 72.5663 174.446C73.2681 175.198 73.9263 176.397 74.1101 176.797C74.2933 177.198 76.869 180.913 77.0032 180.997C77.1367 181.08 78.2612 180.784 79.1636 180.709C80.6356 180.586 82.8369 179.837 82.8369 179.837L83.1637 181.5C83.1637 181.5 77.7492 183.246 76.5 182.939C74.9716 182.563 71.4546 178.05 71.4546 178.05C71.4546 178.05 68.8326 174.977 70.9366 173.607" fill="#EDDAD3"/>
<path d="M69.3162 172.956C69.3162 172.956 70.5185 173.524 70.9365 173.607C71.3545 173.691 72.9741 175.796 73.2579 176.564C73.5417 177.332 73.2579 178.484 72.6735 179.837C72.0885 181.19 72.6407 181.641 72.373 182.994C72.1059 184.347 72.1059 188.035 72.1563 188.786C72.2059 189.538 64.4242 190.955 62.8711 189.586C62.8711 189.586 63.922 186.119 65.1678 184.818C65.4364 184.536 65.4084 182.659 65.2246 182.192C65.0406 181.725 62.9697 178.234 62.9697 178.234C62.9697 178.234 62.8174 174.693 63.721 173.991C64.506 173.382 66.6459 173.164 67.0299 173.031C67.4141 172.897 68.5319 172.839 69.3162 172.956" fill="#EDDAD3"/>
<path d="M69.701 175.637L70.4317 174.781L69.797 172.528C69.797 172.528 69.5843 173.783 69.701 175.637Z" fill="#D1C0BA"/>
<path d="M65.1209 173.607C65.1209 173.607 63.6053 173.173 62.7365 174.844C61.8682 176.513 62.0852 177.415 61.8847 178.167C61.685 178.919 60.8831 183.945 60.833 184.163C60.7827 184.38 60.0147 186.936 60.1144 187.72C60.2147 188.505 60.9334 194.451 60.9001 194.651C60.8666 194.852 62.2857 194.46 62.2857 194.46C62.2857 194.46 62.2275 188.388 62.2779 187.887C62.3276 187.387 62.3774 184.756 62.7536 184.079C63.1296 183.403 64.0561 179.269 64.2566 178.844C64.4571 178.418 66.3986 174.15 65.1209 173.607" fill="#CA7CAB"/>
<path d="M69.8909 171.568C69.8909 171.568 69.6514 173.774 69.7011 174.493C69.7011 174.493 68.4511 175.745 67.0303 173.031C67.0303 173.031 67.6285 171.912 67.1784 170.389C66.7284 168.864 69.8909 171.568 69.8909 171.568Z" fill="#CA7CAB"/>
<path d="M69.7006 174.493V175.637L68.3574 174.446L69.7006 174.493Z" fill="#CA7CAB"/>
<path d="M69.7008 175.637L69.1036 174.898L67.0921 172.893L66.3389 173.228L69.7008 175.637" fill="#D1C0BA"/>
<path d="M70.4316 174.781L71.3528 175.035L69.7969 172.528L70.4316 174.781Z" fill="#FAE6DE"/>
<path d="M69.1043 174.898L68.2629 176.246L66.3086 173.18L67.1458 172.754L69.1043 174.898" fill="#FAE6DE"/>
<path d="M73.3884 180.336C73.3884 180.336 73.6889 178.335 73.3689 177.119C73.3689 177.119 73.1925 178.1 72.7617 179.629L73.3884 180.336Z" fill="#D1C0BA"/>
<path d="M64.0479 180.07C64.0479 180.07 64.8795 177.319 64.9284 177.168C64.9284 177.168 64.8716 179.696 64.5532 180.948C64.5532 180.948 64.2471 180.414 64.0479 180.07Z" fill="#D1C0BA"/>
<path d="M95.0188 166.284L81.9336 182.771L82.3898 183.123L95.0188 166.284Z" fill="#54281A"/>
<path d="M85.0438 179.861C85.0438 179.861 84.0622 179.768 84.0273 179.925C83.9931 180.081 84.0757 180.159 84.0757 180.159L83.6536 180.305C83.6536 180.305 83.4289 180.559 83.7704 180.73C83.7704 180.73 83.5369 180.944 83.8865 181.07C83.8865 181.07 83.7952 181.28 83.9468 181.368C84.0991 181.454 84.7332 181.488 84.7332 181.488C84.7332 181.488 84.87 181.435 84.8398 181.187C84.8398 181.187 85.0418 181.061 84.9868 180.83C84.9868 180.83 85.1324 180.705 85.0706 180.455C85.0706 180.455 85.3732 180.15 85.1445 179.878C85.1445 179.878 85.0854 179.864 85.0438 179.861" fill="#DB9C7C"/>
<path d="M83.4314 179.543C83.4314 179.543 84.0017 179.908 84.2264 180.242C84.2767 180.319 84.3123 180.401 84.2613 180.477C84.2097 180.552 84.0345 180.575 83.7796 180.43C83.524 180.285 83.1274 180.214 83.1274 180.214C83.1274 180.214 82.9087 179.989 83.4314 179.543" fill="#CA7CAB"/>
<path d="M68.8773 164.06C68.8773 164.06 71.0913 164.003 71.4979 166.623C71.9058 169.245 70.9645 171.547 70.5955 171.916C70.2258 172.285 68.0124 172.005 67.4911 170.644C66.9688 169.283 66.2056 168.29 66.3201 167.12C66.4349 165.949 66.155 164.015 68.8773 164.06" fill="#CA7CAB"/>
<path d="M71.5927 167.616C71.5927 167.616 72.1858 164.346 69.2465 163.761C66.308 163.176 65.2772 165.186 64.9976 166.382C64.7169 167.578 65.0484 170.949 65.0484 170.949C65.0484 170.949 67.0078 172.667 68.1777 173.112C68.1777 173.112 67.1981 169.524 67.5671 166.954C67.5671 166.954 69.9556 167.329 71.5411 166.938C71.5411 166.938 71.5887 167.475 71.5927 167.616Z" fill="#16202E"/>
<path d="M69.8406 172.061C69.8406 172.061 69.0717 172.055 68.0264 171.375C68.0264 171.375 68.7617 172.3 69.7876 172.638C69.7876 172.638 69.8479 172.178 69.8406 172.061Z" fill="#A77860"/>
<path d="M66.5031 195.264L57.953 196.66L56.9209 190.337L65.4708 188.94L66.5031 195.264" fill="#366E9C"/>
<path d="M60.6044 196.55C60.6044 196.55 60.4699 196.332 60.4584 196.208C60.4584 196.208 60.4529 195.981 60.4398 195.82C60.4354 195.769 60.4306 195.724 60.4244 195.696C60.3987 195.577 60.307 195.324 60.3245 195.022C60.3431 194.721 60.7551 193.438 60.7551 193.438L61.512 193.464L62.2241 193.387C62.2241 193.387 63.0842 195.029 63.1002 195.312C63.1013 195.339 63.1021 195.367 63.1002 195.394C63.0903 195.634 62.9815 195.809 62.9618 195.936C62.9548 195.982 62.8491 196.436 62.7247 196.499C62.5517 196.586 62.3962 196.575 62.2817 196.509C62.2817 196.509 61.935 196.664 61.6886 196.597C61.6886 196.597 61.3744 196.75 61.0911 196.579C61.0911 196.579 60.7546 196.699 60.6044 196.55" fill="#CA7CAB"/>
<path d="M65.1202 173.607C65.1202 173.607 63.6045 173.173 62.7357 174.844C61.8674 176.513 61.8722 177.226 61.7555 178.041C61.6459 178.812 60.5871 183.386 60.5368 183.603C60.487 183.821 60.1385 186.679 60.1136 187.72C60.0952 188.512 60.2808 193.699 60.2472 193.9C60.214 194.101 62.6461 193.549 62.6461 193.549C62.6461 193.549 62.3766 188.765 62.4272 188.263C62.4767 187.762 62.5837 185.264 62.8287 184.53C63.1162 183.668 64.2518 179.323 64.4524 178.897C64.6528 178.471 66.3978 174.15 65.1202 173.607" fill="#EDDAD3"/>
<path d="M143.455 218.576L143.613 217.108C143.613 217.108 141.542 217.093 141.3 217.267C141.3 217.267 141.476 218.5 141.497 218.685C141.52 218.871 143.455 218.576 143.455 218.576Z" fill="#5C544D"/>
<path d="M139.936 221.646C142.4 221.625 143.588 221.793 143.852 221.393C144.116 220.994 143.47 218.445 143.47 218.445C143.47 218.445 142.886 218.657 141.477 218.529C141.477 218.529 140.864 219.272 140.271 219.596C139.678 219.919 138.745 220.048 138.394 220.383C138.142 220.625 137.472 221.667 139.936 221.646" fill="#3C4145"/>
<path d="M129.586 218.576L129.743 217.108C129.743 217.108 127.672 217.093 127.431 217.267C127.431 217.267 127.606 218.5 127.629 218.685C127.65 218.871 129.586 218.576 129.586 218.576Z" fill="#5C544D"/>
<path d="M126.066 221.646C128.529 221.581 129.718 221.793 129.982 221.393C130.246 220.994 129.6 218.445 129.6 218.445C129.6 218.445 129.05 218.671 127.608 218.529C127.608 218.529 126.994 219.272 126.401 219.596C125.808 219.919 123.625 220.186 123.274 220.521C123.021 220.763 122.6 221.737 126.066 221.646" fill="#3C4145"/>
<path d="M140.612 185.429C140.612 185.429 141.642 188.489 141.507 191.126C141.371 193.763 142.039 196.649 142.313 199.404C142.617 202.475 143.864 209.746 143.909 211.389C143.955 213.032 143.715 218.278 143.715 218.278L141.22 218.336C141.22 218.336 139.124 205.625 138.582 204.328C138.039 203.03 135.347 193.783 135.257 192.746C135.166 191.708 140.612 185.429 140.612 185.429" fill="#DBD8E3"/>
<path d="M130.121 185.974C130.121 185.974 128.751 193.202 128.57 194.815C128.389 196.429 128.269 202.627 128.178 203.635C128.088 204.644 127.575 216.837 127.093 218.336H130.283C130.283 218.336 132.731 209.472 132.731 205.278C132.731 201.085 134.623 196.162 135.845 193.395C137.066 190.628 139.861 190.562 140.612 185.429C140.612 185.429 131.138 184.345 130.121 185.974" fill="#DBD8E3"/>
<path d="M136.605 161.271C136.605 161.271 134.09 160.331 132.932 162.245C131.772 164.16 131.884 167.992 133.151 168.463C134.419 168.935 136.323 168.688 136.971 167.49C137.621 166.292 138.207 164.561 138.178 163.403C138.15 162.246 137.266 161.605 136.605 161.271" fill="#CA7CAB"/>
<path d="M133.574 168.346C133.574 168.346 133.676 169.005 133.507 169.329C133.339 169.654 136.671 169.663 136.671 169.663C136.671 169.663 136.94 167.897 137.454 166.405C137.966 164.912 133.574 168.346 133.574 168.346" fill="#CA7CAB"/>
<path d="M137.454 166.405C137.454 166.405 137.223 166.783 136.285 166.636C135.347 166.489 134.202 165.24 133.81 165.104C133.418 164.966 133.415 164.737 133.415 164.737L133.169 165.094L132.753 165.121C132.753 165.121 133.133 164.004 132.56 163.548C131.987 163.093 133.154 159.933 136.164 160.985C136.164 160.985 138.321 161.411 138.451 162.722C138.59 164.118 137.971 165.749 137.454 166.405" fill="#FCCCA2"/>
<path d="M133.31 169.29C133.31 169.29 133.32 168.67 133.601 168.611C133.883 168.551 136.705 168.279 137.051 168.415V169.138C137.051 169.138 136.385 169.547 133.31 169.29Z" fill="#E2D2CA"/>
<path d="M133.476 164.258C133.53 164.037 134.089 163.407 134.304 164.082C134.519 164.757 133.98 165.664 133.679 165.587C133.379 165.509 133.343 164.817 133.476 164.258Z" fill="#CA7CAB"/>
<path d="M133.309 169.29C133.309 169.29 131.762 169.846 129.969 170.609C129.969 170.609 127.907 171.378 127.685 173.655C127.566 174.864 126.279 181.278 126.037 181.821C125.796 182.364 122.943 191.083 122.842 191.264C122.741 191.446 125.171 192.454 125.332 192.374C125.493 192.292 128.095 184.42 128.356 183.837C128.356 183.837 129.854 179.117 129.895 178.414C129.895 178.414 129.938 180.419 130.018 180.982C130.098 181.545 128.686 192.475 128.726 192.776C128.766 193.078 135.145 193.461 137.698 193.179C140.252 192.898 142.312 192.311 142.312 192.311C142.312 192.311 140.303 183.685 140.365 182.729C140.499 180.644 141.195 176.721 141.195 176.721L143.277 180.644L140.612 187.501L141.222 189.583C141.222 189.583 146.174 182.101 146.335 181.417C146.496 180.734 146.092 179.863 145.831 179.301C145.57 178.738 143.853 174.454 143.451 173.851C143.049 173.247 142.369 170.833 140.728 170.16C139.354 169.598 137.05 169.138 137.05 169.138L133.309 169.29" fill="#63A4FF"/>
<path d="M129.905 195.216L118.239 192.225L120.327 184.087L131.992 187.077L129.905 195.216" fill="#F25F54"/>
<path d="M121.827 193.044C121.827 193.044 121.493 193.582 121.371 193.736C121.25 193.889 121.671 193.987 121.851 193.83C122.032 193.675 121.827 193.044 121.827 193.044" fill="#C98462"/>
<path d="M124.255 194.884C124.255 194.884 124.452 194.678 124.495 194.547C124.495 194.547 124.554 194.301 124.606 194.129C124.623 194.074 124.639 194.026 124.651 193.997C124.707 193.875 124.867 193.622 124.919 193.289C124.97 192.957 125.115 191.464 125.115 191.464L124.211 191.236L123.486 191.083C123.486 191.083 121.917 192.647 121.834 192.952C121.826 192.981 121.818 193.011 121.815 193.04C121.768 193.304 121.845 193.52 121.837 193.662C121.834 193.714 121.842 194.233 121.962 194.33C122.13 194.465 122.301 194.49 122.442 194.445C122.442 194.445 122.782 194.695 123.065 194.68C123.065 194.68 123.372 194.92 123.719 194.801C123.719 194.801 124.057 195.01 124.255 194.884Z" fill="#DE9D7D"/>
<path d="M127.784 185.444C127.784 185.444 125.713 191.715 125.333 192.374C125.333 192.374 123.814 192.054 122.843 191.264L125.116 184.498L127.784 185.444" fill="#63A4FF"/>
<path d="M314.559 195.222C314.559 195.222 322.244 172.683 307.578 165.696C292.912 158.708 280.46 168.809 278.108 174.275C275.755 179.74 276.378 189.678 278.384 196.608C280.39 203.537 280.098 214.087 275.74 217.615C271.382 221.143 265.978 227.003 266.245 238.931C266.411 246.331 295.364 220.002 295.364 220.002L314.559 195.222Z" fill="#252E3B"/>
<path d="M293.951 222.032C293.951 222.032 281.897 224.704 277.111 227.5C272.328 230.296 261.702 243.158 261.702 248.689C261.702 254.219 308.169 259.386 308.169 259.386L316.976 291.54C316.976 291.54 340.463 285.809 343.259 281.055C346.055 276.302 334.339 242.235 332.333 235.341C330.288 228.307 321.869 223.404 312.083 222.032C302.297 220.661 293.951 222.032 293.951 222.032Z" fill="#7BBDBF"/>
<path d="M311.247 221.921C311.247 221.921 310.977 236.573 299.357 237.007C287.737 237.441 290.156 222.955 290.156 222.955C290.156 222.955 298.655 219.511 311.247 221.921" fill="#CA7CAB"/>
<path d="M316.163 177.71C316.163 177.71 320.273 201.274 308.568 218.296C296.446 235.926 316.163 177.71 316.163 177.71Z" fill="#252E3B"/>
<path d="M308.755 211.562C308.755 211.562 307.946 218.57 309.295 222.929C310.645 227.288 291.529 227.408 291.539 223.824C291.552 219.753 293.495 216.352 291.665 209.374C289.834 202.395 308.755 211.562 308.755 211.562" fill="#CA7CAB"/>
<path d="M293.926 212.456C293.926 212.456 299.962 218.744 307.679 213.112C307.679 213.112 307.042 217.131 301.491 217.65C295.94 218.169 293.926 212.456 293.926 212.456" fill="#A77860"/>
<path d="M301.485 169.539C301.485 169.539 316.737 174.053 314.558 195.222C312.379 216.39 302.418 215.299 301.485 215.456C300.55 215.611 288.721 216.39 284.986 190.708C281.25 165.026 301.485 169.539 301.485 169.539" fill="#CA7CAB"/>
<path d="M297.547 178.978C297.547 178.978 305.836 192.163 314.559 195.222C314.559 195.222 319.323 173.098 299.649 168.463C279.976 163.828 283.057 190.808 284.525 198.003C284.525 198.003 288.623 187.418 297.547 178.978" fill="#252E3B"/>
<path d="M286.43 176.993C286.43 176.993 290.793 168.543 298.16 168.166C305.527 167.789 309.908 174.179 309.908 174.179C309.908 174.179 307.032 166.984 298.169 166.984C289.306 166.984 286.43 176.993 286.43 176.993" fill="#88C0FF"/>
<path d="M316.423 243.445L321.596 291.536H253.513L248.34 243.445H316.423Z" fill="#59529C"/>
<path d="M251.809 289.293H319.295L314.187 241.794H246.7L251.809 289.293ZM319.957 289.886H251.277L246.04 241.201H314.72L319.957 289.886Z" fill="#5FA0FF"/>
<path d="M289.191 266.713C289.802 269.705 288.407 272.517 286.074 272.994C283.741 273.47 281.355 271.432 280.744 268.441C280.132 265.448 281.527 262.636 283.86 262.159C286.194 261.683 288.579 263.721 289.191 266.713" fill="#5189DB"/>
<path d="M315.159 286.702H327.864V291.536H315.159V286.702Z" fill="#CFCAFD"/>
<path d="M275.657 126.786C270.209 126.786 265.776 131.218 265.776 136.666C265.776 142.115 270.209 146.547 275.657 146.547C281.105 146.547 285.537 142.115 285.537 136.666C285.537 131.218 281.105 126.786 275.657 126.786V126.786ZM275.657 147.141C269.881 147.141 265.183 142.442 265.183 136.666C265.183 130.891 269.881 126.192 275.657 126.192C281.433 126.192 286.131 130.891 286.131 136.666C286.131 142.442 281.433 147.141 275.657 147.141Z" fill="#64A4FF"/>
<path d="M38.5381 201.585L37.6824 201.337C38.5852 198.21 39.3977 196.305 39.4317 196.225L40.2499 196.576C40.2416 196.595 39.4239 198.515 38.5381 201.585V201.585ZM36.4972 211.984L35.6111 211.894C35.7896 210.151 36.0592 208.359 36.4125 206.569L37.2858 206.742C36.938 208.504 36.6728 210.268 36.4972 211.984V211.984ZM35.7067 222.661C35.4764 220.934 35.3537 219.122 35.3438 217.277L36.2343 217.271C36.244 219.079 36.364 220.853 36.5895 222.543L35.7067 222.661ZM38.7608 232.999C37.9819 231.41 37.3267 229.712 36.8135 227.952L37.6687 227.703C38.1672 229.414 38.8035 231.064 39.5602 232.607L38.7608 232.999ZM45.1971 241.643C43.863 240.404 42.6454 239.05 41.5795 237.62L42.2937 237.088C43.3276 238.475 44.5083 239.788 45.803 240.991L45.1971 241.643ZM153.797 241.954L153.684 241.071C155.552 240.832 157.307 240.698 159.049 240.657L159.069 241.548C157.358 241.586 155.633 241.719 153.797 241.954V241.954ZM169.559 242.612C167.838 242.214 166.085 241.923 164.349 241.748L164.438 240.862C166.211 241.041 168.002 241.338 169.76 241.743L169.559 242.612ZM143.388 244.047L143.168 243.184C145.084 242.694 146.792 242.296 148.387 241.966L148.568 242.838C146.986 243.165 145.292 243.56 143.388 244.047V244.047ZM179.52 246.14C177.878 245.363 176.234 244.679 174.63 244.106L174.931 243.267C176.561 243.85 178.233 244.545 179.901 245.335L179.52 246.14ZM133.102 246.884L132.86 246.027C133.606 245.818 134.343 245.609 135.073 245.403C136.063 245.123 137.038 244.847 138.002 244.578L138.242 245.436C137.279 245.705 136.304 245.98 135.316 246.26C134.586 246.466 133.848 246.674 133.102 246.884V246.884ZM54.1503 247.623C52.4822 246.826 50.9004 245.937 49.4498 244.976L49.9412 244.233C51.3578 245.171 52.9028 246.041 54.5343 246.82L54.1503 247.623ZM122.758 249.618L122.55 248.752C124.185 248.36 125.874 247.932 127.716 247.441L127.945 248.302C126.096 248.794 124.4 249.224 122.758 249.618V249.618ZM64.3026 251.153C62.5081 250.718 60.7711 250.213 59.139 249.652L59.4287 248.81C61.0339 249.361 62.7448 249.858 64.5122 250.286L64.3026 251.153ZM112.267 251.771L112.119 250.892C113.836 250.604 115.596 250.275 117.353 249.913L117.533 250.786C115.765 251.149 113.993 251.48 112.267 251.771V251.771ZM74.8888 252.902C73.0625 252.721 71.2725 252.489 69.5683 252.211L69.7112 251.332C71.3973 251.607 73.1692 251.837 74.9767 252.016L74.8888 252.902ZM101.64 253.123L101.563 252.237C103.32 252.084 105.1 251.893 106.855 251.669L106.967 252.553C105.202 252.778 103.409 252.97 101.64 253.123ZM85.5828 253.574C83.8236 253.524 82.0222 253.443 80.2308 253.328L80.2865 252.44C82.0678 252.553 83.8585 252.635 85.6083 252.684L85.5828 253.574ZM90.9409 253.628L90.9335 252.738C92.7094 252.723 94.4995 252.674 96.2533 252.592L96.2949 253.481C94.5303 253.564 92.7282 253.614 90.9409 253.628Z" fill="#C2BEBC"/>
<path d="M156.369 54.3354L156.274 53.4498C158.077 53.2565 159.885 53.1559 161.651 53.1505L161.653 54.0409C159.919 54.0462 158.141 54.1455 156.369 54.3354V54.3354ZM172.147 55.1613C170.42 54.7829 168.665 54.4978 166.931 54.3126L167.025 53.427C168.791 53.6155 170.579 53.906 172.338 54.2911L172.147 55.1613ZM145.983 56.4133L145.737 55.5572C147.492 55.0513 149.248 54.6192 150.957 54.2743L151.133 55.1472C149.448 55.4874 147.716 55.9134 145.983 56.4133ZM182.214 58.42C180.508 57.6988 178.885 57.0889 177.252 56.5549L177.529 55.7088C179.185 56.2502 180.831 56.8688 182.562 57.6001L182.214 58.42ZM136.005 60.041L135.65 59.2238C137.327 58.4952 139.003 57.8243 140.632 57.2285L140.938 58.0645C139.325 58.6542 137.666 59.3184 136.005 60.041ZM191.747 63.132C190.004 62.1759 188.462 61.3648 187.035 60.6522L187.433 59.8552C188.87 60.5731 190.422 61.3896 192.175 62.351L191.747 63.132ZM126.473 64.761L126.042 63.9814C127.638 63.1005 129.235 62.2618 130.788 61.4902L131.184 62.2873C129.643 63.0535 128.057 63.8854 126.473 64.761ZM201.071 68.3377C199.562 67.5172 198.063 66.6738 196.402 65.7359L196.84 64.9603C198.498 65.8962 199.993 66.7383 201.497 67.5555L201.071 68.3377ZM257.96 70.1352L257.919 69.2455C259.691 69.1623 261.493 69.1435 263.292 69.1912L263.269 70.0815C261.491 70.0345 259.711 70.0526 257.96 70.1352ZM117.348 70.2519L116.863 69.5045C118.388 68.5155 119.916 67.5595 121.403 66.6631L121.863 67.4253C120.384 68.317 118.865 69.2677 117.348 70.2519V70.2519ZM273.835 71.0993C272.079 70.8101 270.308 70.5773 268.568 70.4089L268.654 69.5226C270.413 69.693 272.206 69.9285 273.979 70.2211L273.835 71.0993ZM247.434 71.4274L247.259 70.5545C249.005 70.2036 250.791 69.9151 252.564 69.6977L252.673 70.5813C250.921 70.7967 249.158 71.0805 247.434 71.4274V71.4274ZM210.751 72.9631C209.183 72.3513 207.575 71.6441 205.835 70.8007L206.223 69.9996C207.942 70.8323 209.529 71.5301 211.075 72.1332L210.751 72.9631ZM284.189 73.4851C282.48 72.9813 280.75 72.5264 279.047 72.1325L279.248 71.265C280.967 71.6629 282.715 72.1225 284.441 72.6311L284.189 73.4851ZM237.18 74.2534L236.929 73.3986C237.5 73.2309 238.083 73.047 238.661 72.8531C239.774 72.4794 240.909 72.1292 242.034 71.8125L242.276 72.67C241.164 72.9826 240.043 73.3281 238.944 73.6972C238.356 73.8951 237.762 74.0823 237.18 74.2534V74.2534ZM221.158 75.6912C219.417 75.4738 217.636 75.1229 215.863 74.6499L216.092 73.7898C217.826 74.252 219.568 74.5949 221.268 74.8076L221.158 75.6912ZM226.546 75.9683L226.526 75.0779C228.253 75.0397 230.02 74.874 231.779 74.5848L231.923 75.4637C230.123 75.7596 228.314 75.9287 226.546 75.9683ZM294.207 77.0585C292.562 76.3702 290.892 75.7227 289.246 75.1343L289.546 74.2956C291.207 74.8894 292.891 75.5429 294.551 76.2366L294.207 77.0585ZM303.809 81.6517C302.244 80.8077 300.648 79.9952 299.064 79.237L299.449 78.4333C301.046 79.1981 302.655 80.0173 304.232 80.8681L303.809 81.6517ZM312.935 87.1426C311.47 86.1651 309.957 85.2057 308.436 84.2905L308.895 83.5277C310.429 84.4495 311.954 85.417 313.43 86.4019L312.935 87.1426ZM321.458 93.5239C321.443 93.5104 319.956 92.1901 317.292 90.2101L317.824 89.4956C320.522 91.501 322.035 92.8456 322.05 92.859L321.458 93.5239Z" fill="#C2BEBC"/>
<path d="M210.507 255.911L188.125 249.404L194.834 247.38L210.507 255.911Z" fill="#D6D6D6"/>
<path d="M210.506 255.911L202.141 247.508L196.991 248.554L210.506 255.911Z" fill="#E8E8E8"/>
<path d="M193.272 250.899L193.453 253.489L210.507 255.911L193.272 250.899Z" fill="#C2C2C2"/>
<path d="M97.8574 85.056L117.586 74.0226L110.804 73.575L97.8574 85.056Z" fill="#D6D6D6"/>
<path d="M97.8574 85.056L103.928 75.2913L109.022 75.1558L97.8574 85.056Z" fill="#E8E8E8"/>
<path d="M113.049 76.56L113.444 79.0458L97.8574 85.056L113.049 76.56Z" fill="#C2C2C2"/>
<defs>
<linearGradient id="paint0_linear" x1="294.984" y1="204.273" x2="398.572" y2="204.273" gradientUnits="userSpaceOnUse">
<stop stop-color="#96CBFF"/>
<stop offset="0.0625" stop-color="#59529C"/>
<stop offset="0.947917" stop-color="#6F64DC"/>
<stop offset="1" stop-color="#4D4698"/>
</linearGradient>
<linearGradient id="paint1_linear" x1="91.5726" y1="140.618" x2="168.518" y2="132.713" gradientUnits="userSpaceOnUse">
<stop stop-color="#59529C"/>
<stop offset="1" stop-color="#6E65C5"/>
</linearGradient>
</defs>
</svg>
